Adaxi.glyphspackage
{
glyphname = quotedbl;
layers = (
{
layerId = m01;
shapes = (
{
closed = 1;
nodes = (
(95,1140,l),
(95,1045,l),
(190,1045,l),
(190,1140,l)
);
},
{
closed = 1;
nodes = (
(190,1140,l),
(190,1045,l),
(285,1045,l),
(285,1140,l)
);
},
{
closed = 1;
nodes = (
(285,1140,l),
(285,1045,l),
(380,1045,l),
(380,1140,l)
);
},
{
closed = 1;
nodes = (
(475,1140,l),
(475,1045,l),
(570,1045,l),
(570,1140,l)
);
},
{
closed = 1;
nodes = (
(570,1140,l),
(570,1045,l),
(665,1045,l),
(665,1140,l)
);
},
{
closed = 1;
nodes = (
(665,1140,l),
(665,1045,l),
(760,1045,l),
(760,1140,l)
);
},
{
closed = 1;
nodes = (
(95,1235,l),
(95,1140,l),
(190,1140,l),
(190,1235,l)
);
},
{
closed = 1;
nodes = (
(190,1235,l),
(190,1140,l),
(285,1140,l),
(285,1235,l)
);
},
{
closed = 1;
nodes = (
(285,1235,l),
(285,1140,l),
(380,1140,l),
(380,1235,l)
);
},
{
closed = 1;
nodes = (
(475,1235,l),
(475,1140,l),
(570,1140,l),
(570,1235,l)
);
},
{
closed = 1;
nodes = (
(570,1235,l),
(570,1140,l),
(665,1140,l),
(665,1235,l)
);
},
{
closed = 1;
nodes = (
(665,1235,l),
(665,1140,l),
(760,1140,l),
(760,1235,l)
);
},
{
closed = 1;
nodes = (
(95,1330,l),
(95,1235,l),
(190,1235,l),
(190,1330,l)
);
},
{
closed = 1;
nodes = (
(190,1330,l),
(190,1235,l),
(285,1235,l),
(285,1330,l)
);
},
{
closed = 1;
nodes = (
(475,1330,l),
(475,1235,l),
(570,1235,l),
(570,1330,l)
);
},
{
closed = 1;
nodes = (
(570,1330,l),
(570,1235,l),
(665,1235,l),
(665,1330,l)
);
},
{
closed = 1;
nodes = (
(190,1425,l),
(190,1330,l),
(285,1330,l),
(285,1425,l)
);
},
{
closed = 1;
nodes = (
(285,1425,l),
(285,1330,l),
(380,1330,l),
(380,1425,l)
);
},
{
closed = 1;
nodes = (
(570,1425,l),
(570,1330,l),
(665,1330,l),
(665,1425,l)
);
},
{
closed = 1;
nodes = (
(665,1425,l),
(665,1330,l),
(760,1330,l),
(760,1425,l)
);
},
{
closed = 1;
nodes = (
(190,1520,l),
(190,1425,l),
(285,1425,l),
(285,1520,l)
);
},
{
closed = 1;
nodes = (
(285,1520,l),
(285,1425,l),
(380,1425,l),
(380,1520,l)
);
},
{
closed = 1;
nodes = (
(570,1520,l),
(570,1425,l),
(665,1425,l),
(665,1520,l)
);
},
{
closed = 1;
nodes = (
(665,1520,l),
(665,1425,l),
(760,1425,l),
(760,1520,l)
);
}
);
width = 855;
}
);
note = quotedbl;
unicode = 34;
}
{
glyphname = quotesingle;
layers = (
{
layerId = m01;
shapes = (
{
closed = 1;
nodes = (
(285,1045,l),
(380,1045,l),
(380,1140,l),
(285,1140,l)
);
},
{
closed = 1;
nodes = (
(190,1045,l),
(285,1045,l),
(285,1140,l),
(190,1140,l)
);
},
{
closed = 1;
nodes = (
(95,1045,l),
(190,1045,l),
(190,1140,l),
(95,1140,l)
);
},
{
closed = 1;
nodes = (
(285,1140,l),
(380,1140,l),
(380,1235,l),
(285,1235,l)
);
},
{
closed = 1;
nodes = (
(190,1140,l),
(285,1140,l),
(285,1235,l),
(190,1235,l)
);
},
{
closed = 1;
nodes = (
(95,1140,l),
(190,1140,l),
(190,1235,l),
(95,1235,l)
);
},
{
closed = 1;
nodes = (
(285,1235,l),
(380,1235,l),
(380,1330,l),
(285,1330,l)
);
},
{
closed = 1;
nodes = (
(190,1235,l),
(285,1235,l),
(285,1330,l),
(190,1330,l)
);
},
{
closed = 1;
nodes = (
(190,1330,l),
(285,1330,l),
(285,1425,l),
(190,1425,l)
);
},
{
closed = 1;
nodes = (
(95,1330,l),
(190,1330,l),
(190,1425,l),
(95,1425,l)
);
},
{
closed = 1;
nodes = (
(190,1425,l),
(285,1425,l),
(285,1520,l),
(190,1520,l)
);
},
{
closed = 1;
nodes = (
(95,1425,l),
(190,1425,l),
(190,1520,l),
(95,1520,l)
);
}
);
width = 475;
}
);
unicode = 39;
}
{
glyphname = parenleft;
layers = (
{
layerId = m01;
shapes = (
{
closed = 1;
nodes = (
(380,-380,l),
(380,-475,l),
(475,-475,l),
(475,-380,l)
);
},
{
closed = 1;
nodes = (
(190,-285,l),
(190,-380,l),
(285,-380,l),
(285,-285,l)
);
},
{
closed = 1;
nodes = (
(285,-285,l),
(285,-380,l),
(380,-380,l),
(380,-285,l)
);
},
{
closed = 1;
nodes = (
(95,-190,l),
(95,-285,l),
(190,-285,l),
(190,-190,l)
);
},
{
closed = 1;
nodes = (
(190,-190,l),
(190,-285,l),
(285,-285,l),
(285,-190,l)
);
},
{
closed = 1;
nodes = (
(0,-95,l),
(0,-190,l),
(95,-190,l),
(95,-95,l)
);
},
{
closed = 1;
nodes = (
(95,-95,l),
(95,-190,l),
(190,-190,l),
(190,-95,l)
);
},
{
closed = 1;
nodes = (
(0,0,l),
(0,-95,l),
(95,-95,l),
(95,0,l)
);
},
{
closed = 1;
nodes = (
(95,0,l),
(95,-95,l),
(190,-95,l),
(190,0,l)
);
},
{
closed = 1;
nodes = (
(0,95,l),
(0,0,l),
(95,0,l),
(95,95,l)
);
},
{
closed = 1;
nodes = (
(95,95,l),
(95,0,l),
(190,0,l),
(190,95,l)
);
},
{
closed = 1;
nodes = (
(0,190,l),
(0,95,l),
(95,95,l),
(95,190,l)
);
},
{
closed = 1;
nodes = (
(95,190,l),
(95,95,l),
(190,95,l),
(190,190,l)
);
},
{
closed = 1;
nodes = (
(0,285,l),
(0,190,l),
(95,190,l),
(95,285,l)
);
},
{
closed = 1;
nodes = (
(95,285,l),
(95,190,l),
(190,190,l),
(190,285,l)
);
},
{
closed = 1;
nodes = (
(0,380,l),
(0,285,l),
(95,285,l),
(95,380,l)
);
},
{
closed = 1;
nodes = (
(95,380,l),
(95,285,l),
(190,285,l),
(190,380,l)
);
},
{
closed = 1;
nodes = (
(0,475,l),
(0,380,l),
(95,380,l),
(95,475,l)
);
},
{
closed = 1;
nodes = (
(95,475,l),
(95,380,l),
(190,380,l),
(190,475,l)
);
},
{
closed = 1;
nodes = (
(0,570,l),
(0,475,l),
(95,475,l),
(95,570,l)
);
},
{
closed = 1;
nodes = (
(95,570,l),
(95,475,l),
(190,475,l),
(190,570,l)
);
},
{
closed = 1;
nodes = (
(0,665,l),
(0,570,l),
(95,570,l),
(95,665,l)
);
},
{
closed = 1;
nodes = (
(95,665,l),
(95,570,l),
(190,570,l),
(190,665,l)
);
},
{
closed = 1;
nodes = (
(0,760,l),
(0,665,l),
(95,665,l),
(95,760,l)
);
},
{
closed = 1;
nodes = (
(95,760,l),
(95,665,l),
(190,665,l),
(190,760,l)
);
},
{
closed = 1;
nodes = (
(0,855,l),
(0,760,l),
(95,760,l),
(95,855,l)
);
},
{
closed = 1;
nodes = (
(95,855,l),
(95,760,l),
(190,760,l),
(190,855,l)
);
},
{
closed = 1;
nodes = (
(0,950,l),
(0,855,l),
(95,855,l),
(95,950,l)
);
},
{
closed = 1;
nodes = (
(95,950,l),
(95,855,l),
(190,855,l),
(190,950,l)
);
},
{
closed = 1;
nodes = (
(0,1045,l),
(0,950,l),
(95,950,l),
(95,1045,l)
);
},
{
closed = 1;
nodes = (
(95,1045,l),
(95,950,l),
(190,950,l),
(190,1045,l)
);
},
{
closed = 1;
nodes = (
(0,1140,l),
(0,1045,l),
(95,1045,l),
(95,1140,l)
);
},
{
closed = 1;
nodes = (
(95,1140,l),
(95,1045,l),
(190,1045,l),
(190,1140,l)
);
},
{
closed = 1;
nodes = (
(0,1235,l),
(0,1140,l),
(95,1140,l),
(95,1235,l)
);
},
{
closed = 1;
nodes = (
(95,1235,l),
(95,1140,l),
(190,1140,l),
(190,1235,l)
);
},
{
closed = 1;
nodes = (
(95,1330,l),
(95,1235,l),
(190,1235,l),
(190,1330,l)
);
},
{
closed = 1;
nodes = (
(190,1330,l),
(190,1235,l),
(285,1235,l),
(285,1330,l)
);
},
{
closed = 1;
nodes = (
(190,1425,l),
(190,1330,l),
(285,1330,l),
(285,1425,l)
);
},
{
closed = 1;
nodes = (
(285,1425,l),
(285,1330,l),
(380,1330,l),
(380,1425,l)
);
},
{
closed = 1;
nodes = (
(380,1520,l),
(380,1425,l),
(475,1425,l),
(475,1520,l)
);
}
);
width = 570;
}
);
note = parenleft;
unicode = 40;
}
{
glyphname = parenright;
layers = (
{
layerId = m01;
shapes = (
{
closed = 1;
nodes = (
(95,-380,l),
(95,-475,l),
(190,-475,l),
(190,-380,l)
);
},
{
closed = 1;
nodes = (
(190,-285,l),
(190,-380,l),
(285,-380,l),
(285,-285,l)
);
},
{
closed = 1;
nodes = (
(285,-285,l),
(285,-380,l),
(380,-380,l),
(380,-285,l)
);
},
{
closed = 1;
nodes = (
(285,-190,l),
(285,-285,l),
(380,-285,l),
(380,-190,l)
);
},
{
closed = 1;
nodes = (
(380,-190,l),
(380,-285,l),
(475,-285,l),
(475,-190,l)
);
},
{
closed = 1;
nodes = (
(380,-95,l),
(380,-190,l),
(475,-190,l),
(475,-95,l)
);
},
{
closed = 1;
nodes = (
(475,-95,l),
(475,-190,l),
(570,-190,l),
(570,-95,l)
);
},
{
closed = 1;
nodes = (
(380,0,l),
(380,-95,l),
(475,-95,l),
(475,0,l)
);
},
{
closed = 1;
nodes = (
(475,0,l),
(475,-95,l),
(570,-95,l),
(570,0,l)
);
},
{
closed = 1;
nodes = (
(380,95,l),
(380,0,l),
(475,0,l),
(475,95,l)
);
},
{
closed = 1;
nodes = (
(475,95,l),
(475,0,l),
(570,0,l),
(570,95,l)
);
},
{
closed = 1;
nodes = (
(380,190,l),
(380,95,l),
(475,95,l),
(475,190,l)
);
},
{
closed = 1;
nodes = (
(475,190,l),
(475,95,l),
(570,95,l),
(570,190,l)
);
},
{
closed = 1;
nodes = (
(380,285,l),
(380,190,l),
(475,190,l),
(475,285,l)
);
},
{
closed = 1;
nodes = (
(475,285,l),
(475,190,l),
(570,190,l),
(570,285,l)
);
},
{
closed = 1;
nodes = (
(380,380,l),
(380,285,l),
(475,285,l),
(475,380,l)
);
},
{
closed = 1;
nodes = (
(475,380,l),
(475,285,l),
(570,285,l),
(570,380,l)
);
},
{
closed = 1;
nodes = (
(380,475,l),
(380,380,l),
(475,380,l),
(475,475,l)
);
},
{
closed = 1;
nodes = (
(475,475,l),
(475,380,l),
(570,380,l),
(570,475,l)
);
},
{
closed = 1;
nodes = (
(380,570,l),
(380,475,l),
(475,475,l),
(475,570,l)
);
},
{
closed = 1;
nodes = (
(475,570,l),
(475,475,l),
(570,475,l),
(570,570,l)
);
},
{
closed = 1;
nodes = (
(380,665,l),
(380,570,l),
(475,570,l),
(475,665,l)
);
},
{
closed = 1;
nodes = (
(475,665,l),
(475,570,l),
(570,570,l),
(570,665,l)
);
},
{
closed = 1;
nodes = (
(380,760,l),
(380,665,l),
(475,665,l),
(475,760,l)
);
},
{
closed = 1;
nodes = (
(475,760,l),
(475,665,l),
(570,665,l),
(570,760,l)
);
},
{
closed = 1;
nodes = (
(380,855,l),
(380,760,l),
(475,760,l),
(475,855,l)
);
},
{
closed = 1;
nodes = (
(475,855,l),
(475,760,l),
(570,760,l),
(570,855,l)
);
},
{
closed = 1;
nodes = (
(380,950,l),
(380,855,l),
(475,855,l),
(475,950,l)
);
},
{
closed = 1;
nodes = (
(475,950,l),
(475,855,l),
(570,855,l),
(570,950,l)
);
},
{
closed = 1;
nodes = (
(380,1045,l),
(380,950,l),
(475,950,l),
(475,1045,l)
);
},
{
closed = 1;
nodes = (
(475,1045,l),
(475,950,l),
(570,950,l),
(570,1045,l)
);
},
{
closed = 1;
nodes = (
(380,1140,l),
(380,1045,l),
(475,1045,l),
(475,1140,l)
);
},
{
closed = 1;
nodes = (
(475,1140,l),
(475,1045,l),
(570,1045,l),
(570,1140,l)
);
},
{
closed = 1;
nodes = (
(380,1235,l),
(380,1140,l),
(475,1140,l),
(475,1235,l)
);
},
{
closed = 1;
nodes = (
(475,1235,l),
(475,1140,l),
(570,1140,l),
(570,1235,l)
);
},
{
closed = 1;
nodes = (
(285,1330,l),
(285,1235,l),
(380,1235,l),
(380,1330,l)
);
},
{
closed = 1;
nodes = (
(380,1330,l),
(380,1235,l),
(475,1235,l),
(475,1330,l)
);
},
{
closed = 1;
nodes = (
(190,1425,l),
(190,1330,l),
(285,1330,l),
(285,1425,l)
);
},
{
closed = 1;
nodes = (
(285,1425,l),
(285,1330,l),
(380,1330,l),
(380,1425,l)
);
},
{
closed = 1;
nodes = (
(95,1520,l),
(95,1425,l),
(190,1425,l),
(190,1520,l)
);
}
);
width = 570;
}
);
note = parenright;
unicode = 41;
}
{
glyphname = asterisk;
layers = (
{
layerId = m01;
shapes = (
{
closed = 1;
nodes = (
(475,855,l),
(475,760,l),
(570,760,l),
(570,855,l)
);
},
{
closed = 1;
nodes = (
(475,1045,l),
(475,950,l),
(570,950,l),
(570,1045,l)
);
},
{
closed = 1;
nodes = (
(570,1140,l),
(570,1045,l),
(665,1045,l),
(665,1140,l)
);
},
{
closed = 1;
nodes = (
(285,855,l),
(285,760,l),
(380,760,l),
(380,855,l)
);
},
{
closed = 1;
nodes = (
(285,1045,l),
(285,950,l),
(380,950,l),
(380,1045,l)
);
},
{
closed = 1;
nodes = (
(190,1140,l),
(190,1045,l),
(285,1045,l),
(285,1140,l)
);
},
{
closed = 1;
nodes = (
(190,760,l),
(190,665,l),
(285,665,l),
(285,760,l)
);
},
{
closed = 1;
nodes = (
(570,760,l),
(570,665,l),
(665,665,l),
(665,760,l)
);
},
{
closed = 1;
nodes = (
(380,760,l),
(380,665,l),
(475,665,l),
(475,760,l)
);
},
{
closed = 1;
nodes = (
(380,1140,l),
(380,1045,l),
(475,1045,l),
(475,1140,l)
);
},
{
closed = 1;
nodes = (
(570,950,l),
(570,855,l),
(665,855,l),
(665,950,l)
);
},
{
closed = 1;
nodes = (
(665,950,l),
(665,855,l),
(760,855,l),
(760,950,l)
);
},
{
closed = 1;
nodes = (
(190,950,l),
(190,855,l),
(285,855,l),
(285,950,l)
);
},
{
closed = 1;
nodes = (
(95,950,l),
(95,855,l),
(190,855,l),
(190,950,l)
);
},
{
closed = 1;
nodes = (
(380,665,l),
(380,570,l),
(475,570,l),
(475,665,l)
);
},
{
closed = 1;
nodes = (
(380,1235,l),
(380,1140,l),
(475,1140,l),
(475,1235,l)
);
},
{
closed = 1;
nodes = (
(380,950,l),
(380,855,l),
(475,855,l),
(475,950,l)
);
}
);
width = 855;
}
);
unicode = 42;
}
{
glyphname = comma;
layers = (
{
layerId = m01;
shapes = (
{
closed = 1;
nodes = (
(0,-95,l),
(0,-190,l),
(95,-190,l),
(95,-95,l)
);
},
{
closed = 1;
nodes = (
(95,-95,l),
(95,-190,l),
(190,-190,l),
(190,-95,l)
);
},
{
closed = 1;
nodes = (
(95,0,l),
(95,-95,l),
(190,-95,l),
(190,0,l)
);
},
{
closed = 1;
nodes = (
(190,0,l),
(190,-95,l),
(285,-95,l),
(285,0,l)
);
},
{
closed = 1;
nodes = (
(95,95,l),
(95,0,l),
(190,0,l),
(190,95,l)
);
},
{
closed = 1;
nodes = (
(190,95,l),
(190,0,l),
(285,0,l),
(285,95,l)
);
},
{
closed = 1;
nodes = (
(0,190,l),
(0,95,l),
(95,95,l),
(95,190,l)
);
},
{
closed = 1;
nodes = (
(95,190,l),
(95,95,l),
(190,95,l),
(190,190,l)
);
},
{
closed = 1;
nodes = (
(190,190,l),
(190,95,l),
(285,95,l),
(285,190,l)
);
},
{
closed = 1;
nodes = (
(0,285,l),
(0,190,l),
(95,190,l),
(95,285,l)
);
},
{
closed = 1;
nodes = (
(95,285,l),
(95,190,l),
(190,190,l),
(190,285,l)
);
},
{
closed = 1;
nodes = (
(190,285,l),
(190,190,l),
(285,190,l),
(285,285,l)
);
}
);
width = 570;
}
);
note = comma;
unicode = 44;
}
{
glyphname = hyphen;
layers = (
{
layerId = m01;
shapes = (
{
closed = 1;
nodes = (
(95,665,l),
(95,570,l),
(190,570,l),
(190,665,l)
);
},
{
closed = 1;
nodes = (
(190,665,l),
(190,570,l),
(285,570,l),
(285,665,l)
);
},
{
closed = 1;
nodes = (
(285,665,l),
(285,570,l),
(380,570,l),
(380,665,l)
);
},
{
closed = 1;
nodes = (
(380,665,l),
(380,570,l),
(475,570,l),
(475,665,l)
);
},
{
closed = 1;
nodes = (
(475,665,l),
(475,570,l),
(570,570,l),
(570,665,l)
);
},
{
closed = 1;
nodes = (
(570,665,l),
(570,570,l),
(665,570,l),
(665,665,l)
);
},
{
closed = 1;
nodes = (
(665,665,l),
(665,570,l),
(760,570,l),
(760,665,l)
);
},
{
closed = 1;
nodes = (
(95,760,l),
(95,665,l),
(190,665,l),
(190,760,l)
);
},
{
closed = 1;
nodes = (
(190,760,l),
(190,665,l),
(285,665,l),
(285,760,l)
);
},
{
closed = 1;
nodes = (
(285,760,l),
(285,665,l),
(380,665,l),
(380,760,l)
);
},
{
closed = 1;
nodes = (
(380,760,l),
(380,665,l),
(475,665,l),
(475,760,l)
);
},
{
closed = 1;
nodes = (
(475,760,l),
(475,665,l),
(570,665,l),
(570,760,l)
);
},
{
closed = 1;
nodes = (
(570,760,l),
(570,665,l),
(665,665,l),
(665,760,l)
);
},
{
closed = 1;
nodes = (
(665,760,l),
(665,665,l),
(760,665,l),
(760,760,l)
);
},
{
closed = 1;
nodes = (
(95,855,l),
(95,760,l),
(190,760,l),
(190,855,l)
);
},
{
closed = 1;
nodes = (
(190,855,l),
(190,760,l),
(285,760,l),
(285,855,l)
);
},
{
closed = 1;
nodes = (
(285,855,l),
(285,760,l),
(380,760,l),
(380,855,l)
);
},
{
closed = 1;
nodes = (
(380,855,l),
(380,760,l),
(475,760,l),
(475,855,l)
);
},
{
closed = 1;
nodes = (
(475,855,l),
(475,760,l),
(570,760,l),
(570,855,l)
);
},
{
closed = 1;
nodes = (
(570,855,l),
(570,760,l),
(665,760,l),
(665,855,l)
);
},
{
closed = 1;
nodes = (
(665,855,l),
(665,760,l),
(760,760,l),
(760,855,l)
);
}
);
width = 855;
}
);
note = hyphen;
unicode = 45;
}
{
glyphname = zero;
layers = (
{
layerId = m01;
shapes = (
{
closed = 1;
nodes = (
(475,95,l),
(475,0,l),
(570,0,l),
(570,95,l)
);
},
{
closed = 1;
nodes = (
(570,95,l),
(570,0,l),
(665,0,l),
(665,95,l)
);
},
{
closed = 1;
nodes = (
(665,95,l),
(665,0,l),
(760,0,l),
(760,95,l)
);
},
{
closed = 1;
nodes = (
(760,95,l),
(760,0,l),
(855,0,l),
(855,95,l)
);
},
{
closed = 1;
nodes = (
(285,190,l),
(285,95,l),
(380,95,l),
(380,190,l)
);
},
{
closed = 1;
nodes = (
(380,190,l),
(380,95,l),
(475,95,l),
(475,190,l)
);
},
{
closed = 1;
nodes = (
(475,190,l),
(475,95,l),
(570,95,l),
(570,190,l)
);
},
{
closed = 1;
nodes = (
(570,190,l),
(570,95,l),
(665,95,l),
(665,190,l)
);
},
{
closed = 1;
nodes = (
(665,190,l),
(665,95,l),
(760,95,l),
(760,190,l)
);
},
{
closed = 1;
nodes = (
(760,190,l),
(760,95,l),
(855,95,l),
(855,190,l)
);
},
{
closed = 1;
nodes = (
(855,190,l),
(855,95,l),
(950,95,l),
(950,190,l)
);
},
{
closed = 1;
nodes = (
(950,190,l),
(950,95,l),
(1045,95,l),
(1045,190,l)
);
},
{
closed = 1;
nodes = (
(190,285,l),
(190,190,l),
(285,190,l),
(285,285,l)
);
},
{
closed = 1;
nodes = (
(285,285,l),
(285,190,l),
(380,190,l),
(380,285,l)
);
},
{
closed = 1;
nodes = (
(380,285,l),
(380,190,l),
(475,190,l),
(475,285,l)
);
},
{
closed = 1;
nodes = (
(475,285,l),
(475,190,l),
(570,190,l),
(570,285,l)
);
},
{
closed = 1;
nodes = (
(760,285,l),
(760,190,l),
(855,190,l),
(855,285,l)
);
},
{
closed = 1;
nodes = (
(855,285,l),
(855,190,l),
(950,190,l),
(950,285,l)
);
},
{
closed = 1;
nodes = (
(950,285,l),
(950,190,l),
(1045,190,l),
(1045,285,l)
);
},
{
closed = 1;
nodes = (
(1045,285,l),
(1045,190,l),
(1140,190,l),
(1140,285,l)
);
},
{
closed = 1;
nodes = (
(190,380,l),
(190,285,l),
(285,285,l),
(285,380,l)
);
},
{
closed = 1;
nodes = (
(285,380,l),
(285,285,l),
(380,285,l),
(380,380,l)
);
},
{
closed = 1;
nodes = (
(380,380,l),
(380,285,l),
(475,285,l),
(475,380,l)
);
},
{
closed = 1;
nodes = (
(855,380,l),
(855,285,l),
(950,285,l),
(950,380,l)
);
},
{
closed = 1;
nodes = (
(950,380,l),
(950,285,l),
(1045,285,l),
(1045,380,l)
);
},
{
closed = 1;
nodes = (
(1045,380,l),
(1045,285,l),
(1140,285,l),
(1140,380,l)
);
},
{
closed = 1;
nodes = (
(190,475,l),
(190,380,l),
(285,380,l),
(285,475,l)
);
},
{
closed = 1;
nodes = (
(285,475,l),
(285,380,l),
(380,380,l),
(380,475,l)
);
},
{
closed = 1;
nodes = (
(950,475,l),
(950,380,l),
(1045,380,l),
(1045,475,l)
);
},
{
closed = 1;
nodes = (
(1045,475,l),
(1045,380,l),
(1140,380,l),
(1140,475,l)
);
},
{
closed = 1;
nodes = (
(95,570,l),
(95,475,l),
(190,475,l),
(190,570,l)
);
},
{
closed = 1;
nodes = (
(190,570,l),
(190,475,l),
(285,475,l),
(285,570,l)
);
},
{
closed = 1;
nodes = (
(285,570,l),
(285,475,l),
(380,475,l),
(380,570,l)
);
},
{
closed = 1;
nodes = (
(950,570,l),
(950,475,l),
(1045,475,l),
(1045,570,l)
);
},
{
closed = 1;
nodes = (
(1045,570,l),
(1045,475,l),
(1140,475,l),
(1140,570,l)
);
},
{
closed = 1;
nodes = (
(1140,570,l),
(1140,475,l),
(1235,475,l),
(1235,570,l)
);
},
{
closed = 1;
nodes = (
(95,665,l),
(95,570,l),
(190,570,l),
(190,665,l)
);
},
{
closed = 1;
nodes = (
(190,665,l),
(190,570,l),
(285,570,l),
(285,665,l)
);
},
{
closed = 1;
nodes = (
(285,665,l),
(285,570,l),
(380,570,l),
(380,665,l)
);
},
{
closed = 1;
nodes = (
(950,665,l),
(950,570,l),
(1045,570,l),
(1045,665,l)
);
},
{
closed = 1;
nodes = (
(1045,665,l),
(1045,570,l),
(1140,570,l),
(1140,665,l)
);
},
{
closed = 1;
nodes = (
(1140,665,l),
(1140,570,l),
(1235,570,l),
(1235,665,l)
);
},
{
closed = 1;
nodes = (
(95,760,l),
(95,665,l),
(190,665,l),
(190,760,l)
);
},
{
closed = 1;
nodes = (
(190,760,l),
(190,665,l),
(285,665,l),
(285,760,l)
);
},
{
closed = 1;
nodes = (
(285,760,l),
(285,665,l),
(380,665,l),
(380,760,l)
);
},
{
closed = 1;
nodes = (
(950,760,l),
(950,665,l),
(1045,665,l),
(1045,760,l)
);
},
{
closed = 1;
nodes = (
(1045,760,l),
(1045,665,l),
(1140,665,l),
(1140,760,l)
);
},
{
closed = 1;
nodes = (
(1140,760,l),
(1140,665,l),
(1235,665,l),
(1235,760,l)
);
},
{
closed = 1;
nodes = (
(95,855,l),
(95,760,l),
(190,760,l),
(190,855,l)
);
},
{
closed = 1;
nodes = (
(190,855,l),
(190,760,l),
(285,760,l),
(285,855,l)
);
},
{
closed = 1;
nodes = (
(285,855,l),
(285,760,l),
(380,760,l),
(380,855,l)
);
},
{
closed = 1;
nodes = (
(950,855,l),
(950,760,l),
(1045,760,l),
(1045,855,l)
);
},
{
closed = 1;
nodes = (
(1045,855,l),
(1045,760,l),
(1140,760,l),
(1140,855,l)
);
},
{
closed = 1;
nodes = (
(1140,855,l),
(1140,760,l),
(1235,760,l),
(1235,855,l)
);
},
{
closed = 1;
nodes = (
(95,950,l),
(95,855,l),
(190,855,l),
(190,950,l)
);
},
{
closed = 1;
nodes = (
(190,950,l),
(190,855,l),
(285,855,l),
(285,950,l)
);
},
{
closed = 1;
nodes = (
(285,950,l),
(285,855,l),
(380,855,l),
(380,950,l)
);
},
{
closed = 1;
nodes = (
(950,950,l),
(950,855,l),
(1045,855,l),
(1045,950,l)
);
},
{
closed = 1;
nodes = (
(1045,950,l),
(1045,855,l),
(1140,855,l),
(1140,950,l)
);
},
{
closed = 1;
nodes = (
(1140,950,l),
(1140,855,l),
(1235,855,l),
(1235,950,l)
);
},
{
closed = 1;
nodes = (
(95,1045,l),
(95,950,l),
(190,950,l),
(190,1045,l)
);
},
{
closed = 1;
nodes = (
(190,1045,l),
(190,950,l),
(285,950,l),
(285,1045,l)
);
},
{
closed = 1;
nodes = (
(285,1045,l),
(285,950,l),
(380,950,l),
(380,1045,l)
);
},
{
closed = 1;
nodes = (
(950,1045,l),
(950,950,l),
(1045,950,l),
(1045,1045,l)
);
},
{
closed = 1;
nodes = (
(1045,1045,l),
(1045,950,l),
(1140,950,l),
(1140,1045,l)
);
},
{
closed = 1;
nodes = (
(1140,1045,l),
(1140,950,l),
(1235,950,l),
(1235,1045,l)
);
},
{
closed = 1;
nodes = (
(190,1140,l),
(190,1045,l),
(285,1045,l),
(285,1140,l)
);
},
{
closed = 1;
nodes = (
(285,1140,l),
(285,1045,l),
(380,1045,l),
(380,1140,l)
);
},
{
closed = 1;
nodes = (
(950,1140,l),
(950,1045,l),
(1045,1045,l),
(1045,1140,l)
);
},
{
closed = 1;
nodes = (
(1045,1140,l),
(1045,1045,l),
(1140,1045,l),
(1140,1140,l)
);
},
{
closed = 1;
nodes = (
(190,1235,l),
(190,1140,l),
(285,1140,l),
(285,1235,l)
);
},
{
closed = 1;
nodes = (
(285,1235,l),
(285,1140,l),
(380,1140,l),
(380,1235,l)
);
},
{
closed = 1;
nodes = (
(380,1235,l),
(380,1140,l),
(475,1140,l),
(475,1235,l)
);
},
{
closed = 1;
nodes = (
(855,1235,l),
(855,1140,l),
(950,1140,l),
(950,1235,l)
);
},
{
closed = 1;
nodes = (
(950,1235,l),
(950,1140,l),
(1045,1140,l),
(1045,1235,l)
);
},
{
closed = 1;
nodes = (
(1045,1235,l),
(1045,1140,l),
(1140,1140,l),
(1140,1235,l)
);
},
{
closed = 1;
nodes = (
(190,1330,l),
(190,1235,l),
(285,1235,l),
(285,1330,l)
);
},
{
closed = 1;
nodes = (
(285,1330,l),
(285,1235,l),
(380,1235,l),
(380,1330,l)
);
},
{
closed = 1;
nodes = (
(380,1330,l),
(380,1235,l),
(475,1235,l),
(475,1330,l)
);
},
{
closed = 1;
nodes = (
(475,1330,l),
(475,1235,l),
(570,1235,l),
(570,1330,l)
);
},
{
closed = 1;
nodes = (
(760,1330,l),
(760,1235,l),
(855,1235,l),
(855,1330,l)
);
},
{
closed = 1;
nodes = (
(855,1330,l),
(855,1235,l),
(950,1235,l),
(950,1330,l)
);
},
{
closed = 1;
nodes = (
(950,1330,l),
(950,1235,l),
(1045,1235,l),
(1045,1330,l)
);
},
{
closed = 1;
nodes = (
(285,1425,l),
(285,1330,l),
(380,1330,l),
(380,1425,l)
);
},
{
closed = 1;
nodes = (
(380,1425,l),
(380,1330,l),
(475,1330,l),
(475,1425,l)
);
},
{
closed = 1;
nodes = (
(475,1425,l),
(475,1330,l),
(570,1330,l),
(570,1425,l)
);
},
{
closed = 1;
nodes = (
(570,1425,l),
(570,1330,l),
(665,1330,l),
(665,1425,l)
);
},
{
closed = 1;
nodes = (
(665,1425,l),
(665,1330,l),
(760,1330,l),
(760,1425,l)
);
},
{
closed = 1;
nodes = (
(760,1425,l),
(760,1330,l),
(855,1330,l),
(855,1425,l)
);
},
{
closed = 1;
nodes = (
(855,1425,l),
(855,1330,l),
(950,1330,l),
(950,1425,l)
);
},
{
closed = 1;
nodes = (
(950,1425,l),
(950,1330,l),
(1045,1330,l),
(1045,1425,l)
);
},
{
closed = 1;
nodes = (
(475,1520,l),
(475,1425,l),
(570,1425,l),
(570,1520,l)
);
},
{
closed = 1;
nodes = (
(570,1520,l),
(570,1425,l),
(665,1425,l),
(665,1520,l)
);
},
{
closed = 1;
nodes = (
(665,1520,l),
(665,1425,l),
(760,1425,l),
(760,1520,l)
);
},
{
closed = 1;
nodes = (
(760,1520,l),
(760,1425,l),
(855,1425,l),
(855,1520,l)
);
},
{
closed = 1;
nodes = (
(380,475,l),
(380,380,l),
(475,380,l),
(475,475,l)
);
},
{
closed = 1;
nodes = (
(855,1140,l),
(855,1045,l),
(950,1045,l),
(950,1140,l)
);
}
);
width = 1330;
}
);
note = zero;
unicode = 48;
}
{
glyphname = one;
layers = (
{
layerId = m01;
shapes = (
{
closed = 1;
nodes = (
(380,95,l),
(380,0,l),
(475,0,l),
(475,95,l)
);
},
{
closed = 1;
nodes = (
(475,95,l),
(475,0,l),
(570,0,l),
(570,95,l)
);
},
{
closed = 1;
nodes = (
(570,95,l),
(570,0,l),
(665,0,l),
(665,95,l)
);
},
{
closed = 1;
nodes = (
(380,190,l),
(380,95,l),
(475,95,l),
(475,190,l)
);
},
{
closed = 1;
nodes = (
(475,190,l),
(475,95,l),
(570,95,l),
(570,190,l)
);
},
{
closed = 1;
nodes = (
(570,190,l),
(570,95,l),
(665,95,l),
(665,190,l)
);
},
{
closed = 1;
nodes = (
(380,285,l),
(380,190,l),
(475,190,l),
(475,285,l)
);
},
{
closed = 1;
nodes = (
(475,285,l),
(475,190,l),
(570,190,l),
(570,285,l)
);
},
{
closed = 1;
nodes = (
(570,285,l),
(570,190,l),
(665,190,l),
(665,285,l)
);
},
{
closed = 1;
nodes = (
(380,380,l),
(380,285,l),
(475,285,l),
(475,380,l)
);
},
{
closed = 1;
nodes = (
(475,380,l),
(475,285,l),
(570,285,l),
(570,380,l)
);
},
{
closed = 1;
nodes = (
(570,380,l),
(570,285,l),
(665,285,l),
(665,380,l)
);
},
{
closed = 1;
nodes = (
(380,475,l),
(380,380,l),
(475,380,l),
(475,475,l)
);
},
{
closed = 1;
nodes = (
(475,475,l),
(475,380,l),
(570,380,l),
(570,475,l)
);
},
{
closed = 1;
nodes = (
(570,475,l),
(570,380,l),
(665,380,l),
(665,475,l)
);
},
{
closed = 1;
nodes = (
(380,570,l),
(380,475,l),
(475,475,l),
(475,570,l)
);
},
{
closed = 1;
nodes = (
(475,570,l),
(475,475,l),
(570,475,l),
(570,570,l)
);
},
{
closed = 1;
nodes = (
(570,570,l),
(570,475,l),
(665,475,l),
(665,570,l)
);
},
{
closed = 1;
nodes = (
(380,665,l),
(380,570,l),
(475,570,l),
(475,665,l)
);
},
{
closed = 1;
nodes = (
(475,665,l),
(475,570,l),
(570,570,l),
(570,665,l)
);
},
{
closed = 1;
nodes = (
(570,665,l),
(570,570,l),
(665,570,l),
(665,665,l)
);
},
{
closed = 1;
nodes = (
(380,760,l),
(380,665,l),
(475,665,l),
(475,760,l)
);
},
{
closed = 1;
nodes = (
(475,760,l),
(475,665,l),
(570,665,l),
(570,760,l)
);
},
{
closed = 1;
nodes = (
(570,760,l),
(570,665,l),
(665,665,l),
(665,760,l)
);
},
{
closed = 1;
nodes = (
(380,855,l),
(380,760,l),
(475,760,l),
(475,855,l)
);
},
{
closed = 1;
nodes = (
(475,855,l),
(475,760,l),
(570,760,l),
(570,855,l)
);
},
{
closed = 1;
nodes = (
(570,855,l),
(570,760,l),
(665,760,l),
(665,855,l)
);
},
{
closed = 1;
nodes = (
(380,950,l),
(380,855,l),
(475,855,l),
(475,950,l)
);
},
{
closed = 1;
nodes = (
(475,950,l),
(475,855,l),
(570,855,l),
(570,950,l)
);
},
{
closed = 1;
nodes = (
(570,950,l),
(570,855,l),
(665,855,l),
(665,950,l)
);
},
{
closed = 1;
nodes = (
(380,1045,l),
(380,950,l),
(475,950,l),
(475,1045,l)
);
},
{
closed = 1;
nodes = (
(475,1045,l),
(475,950,l),
(570,950,l),
(570,1045,l)
);
},
{
closed = 1;
nodes = (
(570,1045,l),
(570,950,l),
(665,950,l),
(665,1045,l)
);
},
{
closed = 1;
nodes = (
(380,1140,l),
(380,1045,l),
(475,1045,l),
(475,1140,l)
);
},
{
closed = 1;
nodes = (
(475,1140,l),
(475,1045,l),
(570,1045,l),
(570,1140,l)
);
},
{
closed = 1;
nodes = (
(570,1140,l),
(570,1045,l),
(665,1045,l),
(665,1140,l)
);
},
{
closed = 1;
nodes = (
(95,1235,l),
(95,1140,l),
(190,1140,l),
(190,1235,l)
);
},
{
closed = 1;
nodes = (
(190,1235,l),
(190,1140,l),
(285,1140,l),
(285,1235,l)
);
},
{
closed = 1;
nodes = (
(285,1235,l),
(285,1140,l),
(380,1140,l),
(380,1235,l)
);
},
{
closed = 1;
nodes = (
(380,1235,l),
(380,1140,l),
(475,1140,l),
(475,1235,l)
);
},
{
closed = 1;
nodes = (
(475,1235,l),
(475,1140,l),
(570,1140,l),
(570,1235,l)
);
},
{
closed = 1;
nodes = (
(570,1235,l),
(570,1140,l),
(665,1140,l),
(665,1235,l)
);
},
{
closed = 1;
nodes = (
(95,1330,l),
(95,1235,l),
(190,1235,l),
(190,1330,l)
);
},
{
closed = 1;
nodes = (
(190,1330,l),
(190,1235,l),
(285,1235,l),
(285,1330,l)
);
},
{
closed = 1;
nodes = (
(285,1330,l),
(285,1235,l),
(380,1235,l),
(380,1330,l)
);
},
{
closed = 1;
nodes = (
(380,1330,l),
(380,1235,l),
(475,1235,l),
(475,1330,l)
);
},
{
closed = 1;
nodes = (
(475,1330,l),
(475,1235,l),
(570,1235,l),
(570,1330,l)
);
},
{
closed = 1;
nodes = (
(570,1330,l),
(570,1235,l),
(665,1235,l),
(665,1330,l)
);
},
{
closed = 1;
nodes = (
(380,1425,l),
(380,1330,l),
(475,1330,l),
(475,1425,l)
);
},
{
closed = 1;
nodes = (
(475,1425,l),
(475,1330,l),
(570,1330,l),
(570,1425,l)
);
},
{
closed = 1;
nodes = (
(570,1425,l),
(570,1330,l),
(665,1330,l),
(665,1425,l)
);
},
{
closed = 1;
nodes = (
(475,1520,l),
(475,1425,l),
(570,1425,l),
(570,1520,l)
);
},
{
closed = 1;
nodes = (
(570,1520,l),
(570,1425,l),
(665,1425,l),
(665,1520,l)
);
}
);
width = 760;
}
);
note = one;
unicode = 49;
}
{
glyphname = two;
layers = (
{
layerId = m01;
shapes = (
{
closed = 1;
nodes = (
(95,95,l),
(95,0,l),
(190,0,l),
(190,95,l)
);
},
{
closed = 1;
nodes = (
(190,95,l),
(190,0,l),
(285,0,l),
(285,95,l)
);
},
{
closed = 1;
nodes = (
(285,95,l),
(285,0,l),
(380,0,l),
(380,95,l)
);
},
{
closed = 1;
nodes = (
(380,95,l),
(380,0,l),
(475,0,l),
(475,95,l)
);
},
{
closed = 1;
nodes = (
(475,95,l),
(475,0,l),
(570,0,l),
(570,95,l)
);
},
{
closed = 1;
nodes = (
(570,95,l),
(570,0,l),
(665,0,l),
(665,95,l)
);
},
{
closed = 1;
nodes = (
(665,95,l),
(665,0,l),
(760,0,l),
(760,95,l)
);
},
{
closed = 1;
nodes = (
(760,95,l),
(760,0,l),
(855,0,l),
(855,95,l)
);
},
{
closed = 1;
nodes = (
(855,95,l),
(855,0,l),
(950,0,l),
(950,95,l)
);
},
{
closed = 1;
nodes = (
(950,95,l),
(950,0,l),
(1045,0,l),
(1045,95,l)
);
},
{
closed = 1;
nodes = (
(1045,95,l),
(1045,0,l),
(1140,0,l),
(1140,95,l)
);
},
{
closed = 1;
nodes = (
(95,190,l),
(95,95,l),
(190,95,l),
(190,190,l)
);
},
{
closed = 1;
nodes = (
(190,190,l),
(190,95,l),
(285,95,l),
(285,190,l)
);
},
{
closed = 1;
nodes = (
(285,190,l),
(285,95,l),
(380,95,l),
(380,190,l)
);
},
{
closed = 1;
nodes = (
(380,190,l),
(380,95,l),
(475,95,l),
(475,190,l)
);
},
{
closed = 1;
nodes = (
(475,190,l),
(475,95,l),
(570,95,l),
(570,190,l)
);
},
{
closed = 1;
nodes = (
(570,190,l),
(570,95,l),
(665,95,l),
(665,190,l)
);
},
{
closed = 1;
nodes = (
(665,190,l),
(665,95,l),
(760,95,l),
(760,190,l)
);
},
{
closed = 1;
nodes = (
(760,190,l),
(760,95,l),
(855,95,l),
(855,190,l)
);
},
{
closed = 1;
nodes = (
(855,190,l),
(855,95,l),
(950,95,l),
(950,190,l)
);
},
{
closed = 1;
nodes = (
(950,190,l),
(950,95,l),
(1045,95,l),
(1045,190,l)
);
},
{
closed = 1;
nodes = (
(1045,190,l),
(1045,95,l),
(1140,95,l),
(1140,190,l)
);
},
{
closed = 1;
nodes = (
(190,285,l),
(190,190,l),
(285,190,l),
(285,285,l)
);
},
{
closed = 1;
nodes = (
(285,285,l),
(285,190,l),
(380,190,l),
(380,285,l)
);
},
{
closed = 1;
nodes = (
(380,285,l),
(380,190,l),
(475,190,l),
(475,285,l)
);
},
{
closed = 1;
nodes = (
(285,380,l),
(285,285,l),
(380,285,l),
(380,380,l)
);
},
{
closed = 1;
nodes = (
(380,380,l),
(380,285,l),
(475,285,l),
(475,380,l)
);
},
{
closed = 1;
nodes = (
(475,380,l),
(475,285,l),
(570,285,l),
(570,380,l)
);
},
{
closed = 1;
nodes = (
(380,475,l),
(380,380,l),
(475,380,l),
(475,475,l)
);
},
{
closed = 1;
nodes = (
(475,475,l),
(475,380,l),
(570,380,l),
(570,475,l)
);
},
{
closed = 1;
nodes = (
(570,475,l),
(570,380,l),
(665,380,l),
(665,475,l)
);
},
{
closed = 1;
nodes = (
(475,570,l),
(475,475,l),
(570,475,l),
(570,570,l)
);
},
{
closed = 1;
nodes = (
(570,570,l),
(570,475,l),
(665,475,l),
(665,570,l)
);
},
{
closed = 1;
nodes = (
(665,570,l),
(665,475,l),
(760,475,l),
(760,570,l)
);
},
{
closed = 1;
nodes = (
(570,665,l),
(570,570,l),
(665,570,l),
(665,665,l)
);
},
{
closed = 1;
nodes = (
(665,665,l),
(665,570,l),
(760,570,l),
(760,665,l)
);
},
{
closed = 1;
nodes = (
(760,665,l),
(760,570,l),
(855,570,l),
(855,665,l)
);
},
{
closed = 1;
nodes = (
(665,760,l),
(665,665,l),
(760,665,l),
(760,760,l)
);
},
{
closed = 1;
nodes = (
(760,760,l),
(760,665,l),
(855,665,l),
(855,760,l)
);
},
{
closed = 1;
nodes = (
(855,760,l),
(855,665,l),
(950,665,l),
(950,760,l)
);
},
{
closed = 1;
nodes = (
(760,855,l),
(760,760,l),
(855,760,l),
(855,855,l)
);
},
{
closed = 1;
nodes = (
(855,855,l),
(855,760,l),
(950,760,l),
(950,855,l)
);
},
{
closed = 1;
nodes = (
(950,855,l),
(950,760,l),
(1045,760,l),
(1045,855,l)
);
},
{
closed = 1;
nodes = (
(760,950,l),
(760,855,l),
(855,855,l),
(855,950,l)
);
},
{
closed = 1;
nodes = (
(855,950,l),
(855,855,l),
(950,855,l),
(950,950,l)
);
},
{
closed = 1;
nodes = (
(950,950,l),
(950,855,l),
(1045,855,l),
(1045,950,l)
);
},
{
closed = 1;
nodes = (
(190,1045,l),
(190,950,l),
(285,950,l),
(285,1045,l)
);
},
{
closed = 1;
nodes = (
(285,1045,l),
(285,950,l),
(380,950,l),
(380,1045,l)
);
},
{
closed = 1;
nodes = (
(855,1045,l),
(855,950,l),
(950,950,l),
(950,1045,l)
);
},
{
closed = 1;
nodes = (
(950,1045,l),
(950,950,l),
(1045,950,l),
(1045,1045,l)
);
},
{
closed = 1;
nodes = (
(190,1140,l),
(190,1045,l),
(285,1045,l),
(285,1140,l)
);
},
{
closed = 1;
nodes = (
(285,1140,l),
(285,1045,l),
(380,1045,l),
(380,1140,l)
);
},
{
closed = 1;
nodes = (
(855,1140,l),
(855,1045,l),
(950,1045,l),
(950,1140,l)
);
},
{
closed = 1;
nodes = (
(950,1140,l),
(950,1045,l),
(1045,1045,l),
(1045,1140,l)
);
},
{
closed = 1;
nodes = (
(190,1235,l),
(190,1140,l),
(285,1140,l),
(285,1235,l)
);
},
{
closed = 1;
nodes = (
(285,1235,l),
(285,1140,l),
(380,1140,l),
(380,1235,l)
);
},
{
closed = 1;
nodes = (
(380,1235,l),
(380,1140,l),
(475,1140,l),
(475,1235,l)
);
},
{
closed = 1;
nodes = (
(760,1235,l),
(760,1140,l),
(855,1140,l),
(855,1235,l)
);
},
{
closed = 1;
nodes = (
(855,1235,l),
(855,1140,l),
(950,1140,l),
(950,1235,l)
);
},
{
closed = 1;
nodes = (
(950,1235,l),
(950,1140,l),
(1045,1140,l),
(1045,1235,l)
);
},
{
closed = 1;
nodes = (
(190,1330,l),
(190,1235,l),
(285,1235,l),
(285,1330,l)
);
},
{
closed = 1;
nodes = (
(285,1330,l),
(285,1235,l),
(380,1235,l),
(380,1330,l)
);
},
{
closed = 1;
nodes = (
(380,1330,l),
(380,1235,l),
(475,1235,l),
(475,1330,l)
);
},
{
closed = 1;
nodes = (
(475,1330,l),
(475,1235,l),
(570,1235,l),
(570,1330,l)
);
},
{
closed = 1;
nodes = (
(665,1330,l),
(665,1235,l),
(760,1235,l),
(760,1330,l)
);
},
{
closed = 1;
nodes = (
(760,1330,l),
(760,1235,l),
(855,1235,l),
(855,1330,l)
);
},
{
closed = 1;
nodes = (
(855,1330,l),
(855,1235,l),
(950,1235,l),
(950,1330,l)
);
},
{
closed = 1;
nodes = (
(950,1330,l),
(950,1235,l),
(1045,1235,l),
(1045,1330,l)
);
},
{
closed = 1;
nodes = (
(285,1425,l),
(285,1330,l),
(380,1330,l),
(380,1425,l)
);
},
{
closed = 1;
nodes = (
(380,1425,l),
(380,1330,l),
(475,1330,l),
(475,1425,l)
);
},
{
closed = 1;
nodes = (
(475,1425,l),
(475,1330,l),
(570,1330,l),
(570,1425,l)
);
},
{
closed = 1;
nodes = (
(570,1425,l),
(570,1330,l),
(665,1330,l),
(665,1425,l)
);
},
{
closed = 1;
nodes = (
(665,1425,l),
(665,1330,l),
(760,1330,l),
(760,1425,l)
);
},
{
closed = 1;
nodes = (
(760,1425,l),
(760,1330,l),
(855,1330,l),
(855,1425,l)
);
},
{
closed = 1;
nodes = (
(855,1425,l),
(855,1330,l),
(950,1330,l),
(950,1425,l)
);
},
{
closed = 1;
nodes = (
(380,1520,l),
(380,1425,l),
(475,1425,l),
(475,1520,l)
);
},
{
closed = 1;
nodes = (
(475,1520,l),
(475,1425,l),
(570,1425,l),
(570,1520,l)
);
},
{
closed = 1;
nodes = (
(570,1520,l),
(570,1425,l),
(665,1425,l),
(665,1520,l)
);
},
{
closed = 1;
nodes = (
(665,1520,l),
(665,1425,l),
(760,1425,l),
(760,1520,l)
);
},
{
closed = 1;
nodes = (
(760,1520,l),
(760,1425,l),
(855,1425,l),
(855,1520,l)
);
}
);
width = 1235;
}
);
note = two;
unicode = 50;
}
{
glyphname = seven;
layers = (
{
layerId = m01;
shapes = (
{
closed = 1;
nodes = (
(475,95,l),
(475,0,l),
(570,0,l),
(570,95,l)
);
},
{
closed = 1;
nodes = (
(570,95,l),
(570,0,l),
(665,0,l),
(665,95,l)
);
},
{
closed = 1;
nodes = (
(665,95,l),
(665,0,l),
(760,0,l),
(760,95,l)
);
},
{
closed = 1;
nodes = (
(475,190,l),
(475,95,l),
(570,95,l),
(570,190,l)
);
},
{
closed = 1;
nodes = (
(570,190,l),
(570,95,l),
(665,95,l),
(665,190,l)
);
},
{
closed = 1;
nodes = (
(665,190,l),
(665,95,l),
(760,95,l),
(760,190,l)
);
},
{
closed = 1;
nodes = (
(475,285,l),
(475,190,l),
(570,190,l),
(570,285,l)
);
},
{
closed = 1;
nodes = (
(570,285,l),
(570,190,l),
(665,190,l),
(665,285,l)
);
},
{
closed = 1;
nodes = (
(665,285,l),
(665,190,l),
(760,190,l),
(760,285,l)
);
},
{
closed = 1;
nodes = (
(475,380,l),
(475,285,l),
(570,285,l),
(570,380,l)
);
},
{
closed = 1;
nodes = (
(570,380,l),
(570,285,l),
(665,285,l),
(665,380,l)
);
},
{
closed = 1;
nodes = (
(665,380,l),
(665,285,l),
(760,285,l),
(760,380,l)
);
},
{
closed = 1;
nodes = (
(475,475,l),
(475,380,l),
(570,380,l),
(570,475,l)
);
},
{
closed = 1;
nodes = (
(570,475,l),
(570,380,l),
(665,380,l),
(665,475,l)
);
},
{
closed = 1;
nodes = (
(665,475,l),
(665,380,l),
(760,380,l),
(760,475,l)
);
},
{
closed = 1;
nodes = (
(475,570,l),
(475,475,l),
(570,475,l),
(570,570,l)
);
},
{
closed = 1;
nodes = (
(570,570,l),
(570,475,l),
(665,475,l),
(665,570,l)
);
},
{
closed = 1;
nodes = (
(665,570,l),
(665,475,l),
(760,475,l),
(760,570,l)
);
},
{
closed = 1;
nodes = (
(475,665,l),
(475,570,l),
(570,570,l),
(570,665,l)
);
},
{
closed = 1;
nodes = (
(570,665,l),
(570,570,l),
(665,570,l),
(665,665,l)
);
},
{
closed = 1;
nodes = (
(665,665,l),
(665,570,l),
(760,570,l),
(760,665,l)
);
},
{
closed = 1;
nodes = (
(570,760,l),
(570,665,l),
(665,665,l),
(665,760,l)
);
},
{
closed = 1;
nodes = (
(665,760,l),
(665,665,l),
(760,665,l),
(760,760,l)
);
},
{
closed = 1;
nodes = (
(760,760,l),
(760,665,l),
(855,665,l),
(855,760,l)
);
},
{
closed = 1;
nodes = (
(570,855,l),
(570,760,l),
(665,760,l),
(665,855,l)
);
},
{
closed = 1;
nodes = (
(665,855,l),
(665,760,l),
(760,760,l),
(760,855,l)
);
},
{
closed = 1;
nodes = (
(760,855,l),
(760,760,l),
(855,760,l),
(855,855,l)
);
},
{
closed = 1;
nodes = (
(665,950,l),
(665,855,l),
(760,855,l),
(760,950,l)
);
},
{
closed = 1;
nodes = (
(760,950,l),
(760,855,l),
(855,855,l),
(855,950,l)
);
},
{
closed = 1;
nodes = (
(855,950,l),
(855,855,l),
(950,855,l),
(950,950,l)
);
},
{
closed = 1;
nodes = (
(665,1045,l),
(665,950,l),
(760,950,l),
(760,1045,l)
);
},
{
closed = 1;
nodes = (
(760,1045,l),
(760,950,l),
(855,950,l),
(855,1045,l)
);
},
{
closed = 1;
nodes = (
(855,1045,l),
(855,950,l),
(950,950,l),
(950,1045,l)
);
},
{
closed = 1;
nodes = (
(760,1140,l),
(760,1045,l),
(855,1045,l),
(855,1140,l)
);
},
{
closed = 1;
nodes = (
(855,1140,l),
(855,1045,l),
(950,1045,l),
(950,1140,l)
);
},
{
closed = 1;
nodes = (
(950,1140,l),
(950,1045,l),
(1045,1045,l),
(1045,1140,l)
);
},
{
closed = 1;
nodes = (
(760,1235,l),
(760,1140,l),
(855,1140,l),
(855,1235,l)
);
},
{
closed = 1;
nodes = (
(855,1235,l),
(855,1140,l),
(950,1140,l),
(950,1235,l)
);
},
{
closed = 1;
nodes = (
(950,1235,l),
(950,1140,l),
(1045,1140,l),
(1045,1235,l)
);
},
{
closed = 1;
nodes = (
(855,1330,l),
(855,1235,l),
(950,1235,l),
(950,1330,l)
);
},
{
closed = 1;
nodes = (
(950,1330,l),
(950,1235,l),
(1045,1235,l),
(1045,1330,l)
);
},
{
closed = 1;
nodes = (
(1045,1330,l),
(1045,1235,l),
(1140,1235,l),
(1140,1330,l)
);
},
{
closed = 1;
nodes = (
(95,1425,l),
(95,1330,l),
(190,1330,l),
(190,1425,l)
);
},
{
closed = 1;
nodes = (
(190,1425,l),
(190,1330,l),
(285,1330,l),
(285,1425,l)
);
},
{
closed = 1;
nodes = (
(285,1425,l),
(285,1330,l),
(380,1330,l),
(380,1425,l)
);
},
{
closed = 1;
nodes = (
(380,1425,l),
(380,1330,l),
(475,1330,l),
(475,1425,l)
);
},
{
closed = 1;
nodes = (
(475,1425,l),
(475,1330,l),
(570,1330,l),
(570,1425,l)
);
},
{
closed = 1;
nodes = (
(570,1425,l),
(570,1330,l),
(665,1330,l),
(665,1425,l)
);
},
{
closed = 1;
nodes = (
(665,1425,l),
(665,1330,l),
(760,1330,l),
(760,1425,l)
);
},
{
closed = 1;
nodes = (
(760,1425,l),
(760,1330,l),
(855,1330,l),
(855,1425,l)
);
},
{
closed = 1;
nodes = (
(855,1425,l),
(855,1330,l),
(950,1330,l),
(950,1425,l)
);
},
{
closed = 1;
nodes = (
(950,1425,l),
(950,1330,l),
(1045,1330,l),
(1045,1425,l)
);
},
{
closed = 1;
nodes = (
(1045,1425,l),
(1045,1330,l),
(1140,1330,l),
(1140,1425,l)
);
},
{
closed = 1;
nodes = (
(95,1520,l),
(95,1425,l),
(190,1425,l),
(190,1520,l)
);
},
{
closed = 1;
nodes = (
(190,1520,l),
(190,1425,l),
(285,1425,l),
(285,1520,l)
);
},
{
closed = 1;
nodes = (
(285,1520,l),
(285,1425,l),
(380,1425,l),
(380,1520,l)
);
},
{
closed = 1;
nodes = (
(380,1520,l),
(380,1425,l),
(475,1425,l),
(475,1520,l)
);
},
{
closed = 1;
nodes = (
(475,1520,l),
(475,1425,l),
(570,1425,l),
(570,1520,l)
);
},
{
closed = 1;
nodes = (
(570,1520,l),
(570,1425,l),
(665,1425,l),
(665,1520,l)
);
},
{
closed = 1;
nodes = (
(665,1520,l),
(665,1425,l),
(760,1425,l),
(760,1520,l)
);
},
{
closed = 1;
nodes = (
(760,1520,l),
(760,1425,l),
(855,1425,l),
(855,1520,l)
);
},
{
closed = 1;
nodes = (
(855,1520,l),
(855,1425,l),
(950,1425,l),
(950,1520,l)
);
},
{
closed = 1;
nodes = (
(950,1520,l),
(950,1425,l),
(1045,1425,l),
(1045,1520,l)
);
},
{
closed = 1;
nodes = (
(1045,1520,l),
(1045,1425,l),
(1140,1425,l),
(1140,1520,l)
);
}
);
width = 1235;
}
);
note = seven;
unicode = 55;
}
{
glyphname = nine;
layers = (
{
layerId = m01;
shapes = (
{
closed = 1;
nodes = (
(855,1426,l),
(855,1521,l),
(760,1521,l),
(760,1426,l)
);
},
{
closed = 1;
nodes = (
(760,1426,l),
(760,1521,l),
(665,1521,l),
(665,1426,l)
);
},
{
closed = 1;
nodes = (
(665,1426,l),
(665,1521,l),
(570,1521,l),
(570,1426,l)
);
},
{
closed = 1;
nodes = (
(570,1426,l),
(570,1521,l),
(475,1521,l),
(475,1426,l)
);
},
{
closed = 1;
nodes = (
(475,1426,l),
(475,1521,l),
(380,1521,l),
(380,1426,l)
);
},
{
closed = 1;
nodes = (
(950,1331,l),
(950,1426,l),
(855,1426,l),
(855,1331,l)
);
},
{
closed = 1;
nodes = (
(855,1331,l),
(855,1426,l),
(760,1426,l),
(760,1331,l)
);
},
{
closed = 1;
nodes = (
(760,1331,l),
(760,1426,l),
(665,1426,l),
(665,1331,l)
);
},
{
closed = 1;
nodes = (
(665,1331,l),
(665,1426,l),
(570,1426,l),
(570,1331,l)
);
},
{
closed = 1;
nodes = (
(570,1331,l),
(570,1426,l),
(475,1426,l),
(475,1331,l)
);
},
{
closed = 1;
nodes = (
(475,1331,l),
(475,1426,l),
(380,1426,l),
(380,1331,l)
);
},
{
closed = 1;
nodes = (
(380,1331,l),
(380,1426,l),
(285,1426,l),
(285,1331,l)
);
},
{
closed = 1;
nodes = (
(1045,1236,l),
(1045,1331,l),
(950,1331,l),
(950,1236,l)
);
},
{
closed = 1;
nodes = (
(950,1236,l),
(950,1331,l),
(855,1331,l),
(855,1236,l)
);
},
{
closed = 1;
nodes = (
(855,1236,l),
(855,1331,l),
(760,1331,l),
(760,1236,l)
);
},
{
closed = 1;
nodes = (
(475,1236,l),
(475,1331,l),
(380,1331,l),
(380,1236,l)
);
},
{
closed = 1;
nodes = (
(380,1236,l),
(380,1331,l),
(285,1331,l),
(285,1236,l)
);
},
{
closed = 1;
nodes = (
(285,1236,l),
(285,1331,l),
(190,1331,l),
(190,1236,l)
);
},
{
closed = 1;
nodes = (
(1140,1141,l),
(1140,1236,l),
(1045,1236,l),
(1045,1141,l)
);
},
{
closed = 1;
nodes = (
(1045,1141,l),
(1045,1236,l),
(950,1236,l),
(950,1141,l)
);
},
{
closed = 1;
nodes = (
(950,1141,l),
(950,1236,l),
(855,1236,l),
(855,1141,l)
);
},
{
closed = 1;
nodes = (
(380,1141,l),
(380,1236,l),
(285,1236,l),
(285,1141,l)
);
},
{
closed = 1;
nodes = (
(285,1141,l),
(285,1236,l),
(190,1236,l),
(190,1141,l)
);
},
{
closed = 1;
nodes = (
(190,1141,l),
(190,1236,l),
(95,1236,l),
(95,1141,l)
);
},
{
closed = 1;
nodes = (
(1140,1046,l),
(1140,1141,l),
(1045,1141,l),
(1045,1046,l)
);
},
{
closed = 1;
nodes = (
(1045,1046,l),
(1045,1141,l),
(950,1141,l),
(950,1046,l)
);
},
{
closed = 1;
nodes = (
(950,1046,l),
(950,1141,l),
(855,1141,l),
(855,1046,l)
);
},
{
closed = 1;
nodes = (
(380,1046,l),
(380,1141,l),
(285,1141,l),
(285,1046,l)
);
},
{
closed = 1;
nodes = (
(285,1046,l),
(285,1141,l),
(190,1141,l),
(190,1046,l)
);
},
{
closed = 1;
nodes = (
(190,1046,l),
(190,1141,l),
(95,1141,l),
(95,1046,l)
);
},
{
closed = 1;
nodes = (
(1140,951,l),
(1140,1046,l),
(1045,1046,l),
(1045,951,l)
);
},
{
closed = 1;
nodes = (
(1045,951,l),
(1045,1046,l),
(950,1046,l),
(950,951,l)
);
},
{
closed = 1;
nodes = (
(950,951,l),
(950,1046,l),
(855,1046,l),
(855,951,l)
);
},
{
closed = 1;
nodes = (
(380,951,l),
(380,1046,l),
(285,1046,l),
(285,951,l)
);
},
{
closed = 1;
nodes = (
(285,951,l),
(285,1046,l),
(190,1046,l),
(190,951,l)
);
},
{
closed = 1;
nodes = (
(190,951,l),
(190,1046,l),
(95,1046,l),
(95,951,l)
);
},
{
closed = 1;
nodes = (
(1140,856,l),
(1140,951,l),
(1045,951,l),
(1045,856,l)
);
},
{
closed = 1;
nodes = (
(1045,856,l),
(1045,951,l),
(950,951,l),
(950,856,l)
);
},
{
closed = 1;
nodes = (
(950,856,l),
(950,951,l),
(855,951,l),
(855,856,l)
);
},
{
closed = 1;
nodes = (
(380,856,l),
(380,951,l),
(285,951,l),
(285,856,l)
);
},
{
closed = 1;
nodes = (
(285,856,l),
(285,951,l),
(190,951,l),
(190,856,l)
);
},
{
closed = 1;
nodes = (
(190,856,l),
(190,951,l),
(95,951,l),
(95,856,l)
);
},
{
closed = 1;
nodes = (
(1140,761,l),
(1140,856,l),
(1045,856,l),
(1045,761,l)
);
},
{
closed = 1;
nodes = (
(1045,761,l),
(1045,856,l),
(950,856,l),
(950,761,l)
);
},
{
closed = 1;
nodes = (
(950,761,l),
(950,856,l),
(855,856,l),
(855,761,l)
);
},
{
closed = 1;
nodes = (
(380,761,l),
(380,856,l),
(285,856,l),
(285,761,l)
);
},
{
closed = 1;
nodes = (
(285,761,l),
(285,856,l),
(190,856,l),
(190,761,l)
);
},
{
closed = 1;
nodes = (
(190,761,l),
(190,856,l),
(95,856,l),
(95,761,l)
);
},
{
closed = 1;
nodes = (
(1045,666,l),
(1045,761,l),
(950,761,l),
(950,666,l)
);
},
{
closed = 1;
nodes = (
(950,666,l),
(950,761,l),
(855,761,l),
(855,666,l)
);
},
{
closed = 1;
nodes = (
(855,666,l),
(855,761,l),
(760,761,l),
(760,666,l)
);
},
{
closed = 1;
nodes = (
(760,666,l),
(760,761,l),
(665,761,l),
(665,666,l)
);
},
{
closed = 1;
nodes = (
(665,666,l),
(665,761,l),
(570,761,l),
(570,666,l)
);
},
{
closed = 1;
nodes = (
(570,666,l),
(570,761,l),
(475,761,l),
(475,666,l)
);
},
{
closed = 1;
nodes = (
(475,666,l),
(475,761,l),
(380,761,l),
(380,666,l)
);
},
{
closed = 1;
nodes = (
(380,666,l),
(380,761,l),
(285,761,l),
(285,666,l)
);
},
{
closed = 1;
nodes = (
(285,666,l),
(285,761,l),
(190,761,l),
(190,666,l)
);
},
{
closed = 1;
nodes = (
(950,571,l),
(950,666,l),
(855,666,l),
(855,571,l)
);
},
{
closed = 1;
nodes = (
(855,571,l),
(855,666,l),
(760,666,l),
(760,571,l)
);
},
{
closed = 1;
nodes = (
(760,571,l),
(760,666,l),
(665,666,l),
(665,571,l)
);
},
{
closed = 1;
nodes = (
(665,571,l),
(665,666,l),
(570,666,l),
(570,571,l)
);
},
{
closed = 1;
nodes = (
(570,571,l),
(570,666,l),
(475,666,l),
(475,571,l)
);
},
{
closed = 1;
nodes = (
(475,571,l),
(475,666,l),
(380,666,l),
(380,571,l)
);
},
{
closed = 1;
nodes = (
(380,571,l),
(380,666,l),
(285,666,l),
(285,571,l)
);
},
{
closed = 1;
nodes = (
(950,476,l),
(950,571,l),
(855,571,l),
(855,476,l)
);
},
{
closed = 1;
nodes = (
(855,476,l),
(855,571,l),
(760,571,l),
(760,476,l)
);
},
{
closed = 1;
nodes = (
(760,476,l),
(760,571,l),
(665,571,l),
(665,476,l)
);
},
{
closed = 1;
nodes = (
(855,381,l),
(855,476,l),
(760,476,l),
(760,381,l)
);
},
{
closed = 1;
nodes = (
(760,381,l),
(760,476,l),
(665,476,l),
(665,381,l)
);
},
{
closed = 1;
nodes = (
(665,381,l),
(665,476,l),
(570,476,l),
(570,381,l)
);
},
{
closed = 1;
nodes = (
(855,286,l),
(855,381,l),
(760,381,l),
(760,286,l)
);
},
{
closed = 1;
nodes = (
(760,286,l),
(760,381,l),
(665,381,l),
(665,286,l)
);
},
{
closed = 1;
nodes = (
(665,286,l),
(665,381,l),
(570,381,l),
(570,286,l)
);
},
{
closed = 1;
nodes = (
(760,191,l),
(760,286,l),
(665,286,l),
(665,191,l)
);
},
{
closed = 1;
nodes = (
(665,191,l),
(665,286,l),
(570,286,l),
(570,191,l)
);
},
{
closed = 1;
nodes = (
(570,191,l),
(570,286,l),
(475,286,l),
(475,191,l)
);
},
{
closed = 1;
nodes = (
(760,96,l),
(760,191,l),
(665,191,l),
(665,96,l)
);
},
{
closed = 1;
nodes = (
(665,96,l),
(665,191,l),
(570,191,l),
(570,96,l)
);
},
{
closed = 1;
nodes = (
(570,96,l),
(570,191,l),
(475,191,l),
(475,96,l)
);
},
{
closed = 1;
nodes = (
(665,1,l),
(665,96,l),
(570,96,l),
(570,1,l)
);
},
{
closed = 1;
nodes = (
(570,1,l),
(570,96,l),
(475,96,l),
(475,1,l)
);
},
{
closed = 1;
nodes = (
(475,1,l),
(475,96,l),
(380,96,l),
(380,1,l)
);
}
);
width = 1235;
}
);
note = nine;
unicode = 57;
}
{
glyphname = colon;
layers = (
{
layerId = m01;
shapes = (
{
closed = 1;
nodes = (
(285,95,l),
(285,0,l),
(380,0,l),
(380,95,l)
);
},
{
closed = 1;
nodes = (
(380,95,l),
(380,0,l),
(475,0,l),
(475,95,l)
);
},
{
closed = 1;
nodes = (
(475,95,l),
(475,0,l),
(570,0,l),
(570,95,l)
);
},
{
closed = 1;
nodes = (
(285,190,l),
(285,95,l),
(380,95,l),
(380,190,l)
);
},
{
closed = 1;
nodes = (
(380,190,l),
(380,95,l),
(475,95,l),
(475,190,l)
);
},
{
closed = 1;
nodes = (
(475,190,l),
(475,95,l),
(570,95,l),
(570,190,l)
);
},
{
closed = 1;
nodes = (
(285,285,l),
(285,190,l),
(380,190,l),
(380,285,l)
);
},
{
closed = 1;
nodes = (
(380,285,l),
(380,190,l),
(475,190,l),
(475,285,l)
);
},
{
closed = 1;
nodes = (
(475,285,l),
(475,190,l),
(570,190,l),
(570,285,l)
);
},
{
closed = 1;
nodes = (
(285,570,l),
(285,475,l),
(380,475,l),
(380,570,l)
);
},
{
closed = 1;
nodes = (
(380,570,l),
(380,475,l),
(475,475,l),
(475,570,l)
);
},
{
closed = 1;
nodes = (
(475,570,l),
(475,475,l),
(570,475,l),
(570,570,l)
);
},
{
closed = 1;
nodes = (
(285,665,l),
(285,570,l),
(380,570,l),
(380,665,l)
);
},
{
closed = 1;
nodes = (
(380,665,l),
(380,570,l),
(475,570,l),
(475,665,l)
);
},
{
closed = 1;
nodes = (
(475,665,l),
(475,570,l),
(570,570,l),
(570,665,l)
);
},
{
closed = 1;
nodes = (
(285,760,l),
(285,665,l),
(380,665,l),
(380,760,l)
);
},
{
closed = 1;
nodes = (
(380,760,l),
(380,665,l),
(475,665,l),
(475,760,l)
);
},
{
closed = 1;
nodes = (
(475,760,l),
(475,665,l),
(570,665,l),
(570,760,l)
);
}
);
width = 855;
}
);
note = colon;
unicode = 58;
}
{
glyphname = semicolon;
layers = (
{
layerId = m01;
shapes = (
{
closed = 1;
nodes = (
(0,-95,l),
(0,-190,l),
(95,-190,l),
(95,-95,l)
);
},
{
closed = 1;
nodes = (
(95,-95,l),
(95,-190,l),
(190,-190,l),
(190,-95,l)
);
},
{
closed = 1;
nodes = (
(95,0,l),
(95,-95,l),
(190,-95,l),
(190,0,l)
);
},
{
closed = 1;
nodes = (
(190,0,l),
(190,-95,l),
(285,-95,l),
(285,0,l)
);
},
{
closed = 1;
nodes = (
(95,95,l),
(95,0,l),
(190,0,l),
(190,95,l)
);
},
{
closed = 1;
nodes = (
(190,95,l),
(190,0,l),
(285,0,l),
(285,95,l)
);
},
{
closed = 1;
nodes = (
(0,190,l),
(0,95,l),
(95,95,l),
(95,190,l)
);
},
{
closed = 1;
nodes = (
(95,190,l),
(95,95,l),
(190,95,l),
(190,190,l)
);
},
{
closed = 1;
nodes = (
(190,190,l),
(190,95,l),
(285,95,l),
(285,190,l)
);
},
{
closed = 1;
nodes = (
(0,285,l),
(0,190,l),
(95,190,l),
(95,285,l)
);
},
{
closed = 1;
nodes = (
(95,285,l),
(95,190,l),
(190,190,l),
(190,285,l)
);
},
{
closed = 1;
nodes = (
(190,285,l),
(190,190,l),
(285,190,l),
(285,285,l)
);
},
{
closed = 1;
nodes = (
(0,665,l),
(0,570,l),
(95,570,l),
(95,665,l)
);
},
{
closed = 1;
nodes = (
(95,665,l),
(95,570,l),
(190,570,l),
(190,665,l)
);
},
{
closed = 1;
nodes = (
(190,665,l),
(190,570,l),
(285,570,l),
(285,665,l)
);
},
{
closed = 1;
nodes = (
(0,760,l),
(0,665,l),
(95,665,l),
(95,760,l)
);
},
{
closed = 1;
nodes = (
(95,760,l),
(95,665,l),
(190,665,l),
(190,760,l)
);
},
{
closed = 1;
nodes = (
(190,760,l),
(190,665,l),
(285,665,l),
(285,760,l)
);
},
{
closed = 1;
nodes = (
(0,855,l),
(0,760,l),
(95,760,l),
(95,855,l)
);
},
{
closed = 1;
nodes = (
(95,855,l),
(95,760,l),
(190,760,l),
(190,855,l)
);
},
{
closed = 1;
nodes = (
(190,855,l),
(190,760,l),
(285,760,l),
(285,855,l)
);
}
);
width = 570;
}
);
note = semicolon;
unicode = 59;
}
{
glyphname = question;
layers = (
{
layerId = m01;
shapes = (
{
closed = 1;
nodes = (
(285,95,l),
(285,0,l),
(380,0,l),
(380,95,l)
);
},
{
closed = 1;
nodes = (
(380,95,l),
(380,0,l),
(475,0,l),
(475,95,l)
);
},
{
closed = 1;
nodes = (
(475,95,l),
(475,0,l),
(570,0,l),
(570,95,l)
);
},
{
closed = 1;
nodes = (
(285,190,l),
(285,95,l),
(380,95,l),
(380,190,l)
);
},
{
closed = 1;
nodes = (
(380,190,l),
(380,95,l),
(475,95,l),
(475,190,l)
);
},
{
closed = 1;
nodes = (
(475,190,l),
(475,95,l),
(570,95,l),
(570,190,l)
);
},
{
closed = 1;
nodes = (
(285,285,l),
(285,190,l),
(380,190,l),
(380,285,l)
);
},
{
closed = 1;
nodes = (
(380,285,l),
(380,190,l),
(475,190,l),
(475,285,l)
);
},
{
closed = 1;
nodes = (
(475,285,l),
(475,190,l),
(570,190,l),
(570,285,l)
);
},
{
closed = 1;
nodes = (
(285,570,l),
(285,475,l),
(380,475,l),
(380,570,l)
);
},
{
closed = 1;
nodes = (
(380,570,l),
(380,475,l),
(475,475,l),
(475,570,l)
);
},
{
closed = 1;
nodes = (
(475,570,l),
(475,475,l),
(570,475,l),
(570,570,l)
);
},
{
closed = 1;
nodes = (
(285,665,l),
(285,570,l),
(380,570,l),
(380,665,l)
);
},
{
closed = 1;
nodes = (
(380,665,l),
(380,570,l),
(475,570,l),
(475,665,l)
);
},
{
closed = 1;
nodes = (
(475,665,l),
(475,570,l),
(570,570,l),
(570,665,l)
);
},
{
closed = 1;
nodes = (
(380,760,l),
(380,665,l),
(475,665,l),
(475,760,l)
);
},
{
closed = 1;
nodes = (
(475,760,l),
(475,665,l),
(570,665,l),
(570,760,l)
);
},
{
closed = 1;
nodes = (
(570,760,l),
(570,665,l),
(665,665,l),
(665,760,l)
);
},
{
closed = 1;
nodes = (
(380,855,l),
(380,760,l),
(475,760,l),
(475,855,l)
);
},
{
closed = 1;
nodes = (
(475,855,l),
(475,760,l),
(570,760,l),
(570,855,l)
);
},
{
closed = 1;
nodes = (
(570,855,l),
(570,760,l),
(665,760,l),
(665,855,l)
);
},
{
closed = 1;
nodes = (
(665,855,l),
(665,760,l),
(760,760,l),
(760,855,l)
);
},
{
closed = 1;
nodes = (
(475,950,l),
(475,855,l),
(570,855,l),
(570,950,l)
);
},
{
closed = 1;
nodes = (
(570,950,l),
(570,855,l),
(665,855,l),
(665,950,l)
);
},
{
closed = 1;
nodes = (
(665,950,l),
(665,855,l),
(760,855,l),
(760,950,l)
);
},
{
closed = 1;
nodes = (
(760,950,l),
(760,855,l),
(855,855,l),
(855,950,l)
);
},
{
closed = 1;
nodes = (
(665,1045,l),
(665,950,l),
(760,950,l),
(760,1045,l)
);
},
{
closed = 1;
nodes = (
(760,1045,l),
(760,950,l),
(855,950,l),
(855,1045,l)
);
},
{
closed = 1;
nodes = (
(0,1140,l),
(0,1045,l),
(95,1045,l),
(95,1140,l)
);
},
{
closed = 1;
nodes = (
(95,1140,l),
(95,1045,l),
(190,1045,l),
(190,1140,l)
);
},
{
closed = 1;
nodes = (
(665,1140,l),
(665,1045,l),
(760,1045,l),
(760,1140,l)
);
},
{
closed = 1;
nodes = (
(760,1140,l),
(760,1045,l),
(855,1045,l),
(855,1140,l)
);
},
{
closed = 1;
nodes = (
(0,1235,l),
(0,1140,l),
(95,1140,l),
(95,1235,l)
);
},
{
closed = 1;
nodes = (
(95,1235,l),
(95,1140,l),
(190,1140,l),
(190,1235,l)
);
},
{
closed = 1;
nodes = (
(665,1235,l),
(665,1140,l),
(760,1140,l),
(760,1235,l)
);
},
{
closed = 1;
nodes = (
(760,1235,l),
(760,1140,l),
(855,1140,l),
(855,1235,l)
);
},
{
closed = 1;
nodes = (
(0,1330,l),
(0,1235,l),
(95,1235,l),
(95,1330,l)
);
},
{
closed = 1;
nodes = (
(95,1330,l),
(95,1235,l),
(190,1235,l),
(190,1330,l)
);
},
{
closed = 1;
nodes = (
(190,1330,l),
(190,1235,l),
(285,1235,l),
(285,1330,l)
);
},
{
closed = 1;
nodes = (
(570,1330,l),
(570,1235,l),
(665,1235,l),
(665,1330,l)
);
},
{
closed = 1;
nodes = (
(665,1330,l),
(665,1235,l),
(760,1235,l),
(760,1330,l)
);
},
{
closed = 1;
nodes = (
(760,1330,l),
(760,1235,l),
(855,1235,l),
(855,1330,l)
);
},
{
closed = 1;
nodes = (
(95,1425,l),
(95,1330,l),
(190,1330,l),
(190,1425,l)
);
},
{
closed = 1;
nodes = (
(190,1425,l),
(190,1330,l),
(285,1330,l),
(285,1425,l)
);
},
{
closed = 1;
nodes = (
(285,1425,l),
(285,1330,l),
(380,1330,l),
(380,1425,l)
);
},
{
closed = 1;
nodes = (
(380,1425,l),
(380,1330,l),
(475,1330,l),
(475,1425,l)
);
},
{
closed = 1;
nodes = (
(475,1425,l),
(475,1330,l),
(570,1330,l),
(570,1425,l)
);
},
{
closed = 1;
nodes = (
(570,1425,l),
(570,1330,l),
(665,1330,l),
(665,1425,l)
);
},
{
closed = 1;
nodes = (
(665,1425,l),
(665,1330,l),
(760,1330,l),
(760,1425,l)
);
},
{
closed = 1;
nodes = (
(190,1520,l),
(190,1425,l),
(285,1425,l),
(285,1520,l)
);
},
{
closed = 1;
nodes = (
(285,1520,l),
(285,1425,l),
(380,1425,l),
(380,1520,l)
);
},
{
closed = 1;
nodes = (
(380,1520,l),
(380,1425,l),
(475,1425,l),
(475,1520,l)
);
},
{
closed = 1;
nodes = (
(475,1520,l),
(475,1425,l),
(570,1425,l),
(570,1520,l)
);
},
{
closed = 1;
nodes = (
(570,1520,l),
(570,1425,l),
(665,1425,l),
(665,1520,l)
);
}
);
width = 855;
}
);
note = question;
unicode = 63;
}
{
glyphname = A;
layers = (
{
anchors = (
{
name = bottom;
pos = (760,0);
},
{
name = ogonek;
pos = (1368,10);
},
{
name = top;
pos = (760,1400);
}
);
layerId = m01;
shapes = (
{
closed = 1;
nodes = (
(95,95,l),
(95,0,l),
(190,0,l),
(190,95,l)
);
},
{
closed = 1;
nodes = (
(190,95,l),
(190,0,l),
(285,0,l),
(285,95,l)
);
},
{
closed = 1;
nodes = (
(285,95,l),
(285,0,l),
(380,0,l),
(380,95,l)
);
},
{
closed = 1;
nodes = (
(1140,95,l),
(1140,0,l),
(1235,0,l),
(1235,95,l)
);
},
{
closed = 1;
nodes = (
(1235,95,l),
(1235,0,l),
(1330,0,l),
(1330,95,l)
);
},
{
closed = 1;
nodes = (
(1330,95,l),
(1330,0,l),
(1425,0,l),
(1425,95,l)
);
},
{
closed = 1;
nodes = (
(190,190,l),
(190,95,l),
(285,95,l),
(285,190,l)
);
},
{
closed = 1;
nodes = (
(285,190,l),
(285,95,l),
(380,95,l),
(380,190,l)
);
},
{
closed = 1;
nodes = (
(1140,190,l),
(1140,95,l),
(1235,95,l),
(1235,190,l)
);
},
{
closed = 1;
nodes = (
(1235,190,l),
(1235,95,l),
(1330,95,l),
(1330,190,l)
);
},
{
closed = 1;
nodes = (
(190,285,l),
(190,190,l),
(285,190,l),
(285,285,l)
);
},
{
closed = 1;
nodes = (
(285,285,l),
(285,190,l),
(380,190,l),
(380,285,l)
);
},
{
closed = 1;
nodes = (
(380,285,l),
(380,190,l),
(475,190,l),
(475,285,l)
);
},
{
closed = 1;
nodes = (
(1045,285,l),
(1045,190,l),
(1140,190,l),
(1140,285,l)
);
},
{
closed = 1;
nodes = (
(1140,285,l),
(1140,190,l),
(1235,190,l),
(1235,285,l)
);
},
{
closed = 1;
nodes = (
(1235,285,l),
(1235,190,l),
(1330,190,l),
(1330,285,l)
);
},
{
closed = 1;
nodes = (
(190,380,l),
(190,285,l),
(285,285,l),
(285,380,l)
);
},
{
closed = 1;
nodes = (
(285,380,l),
(285,285,l),
(380,285,l),
(380,380,l)
);
},
{
closed = 1;
nodes = (
(380,380,l),
(380,285,l),
(475,285,l),
(475,380,l)
);
},
{
closed = 1;
nodes = (
(475,380,l),
(475,285,l),
(570,285,l),
(570,380,l)
);
},
{
closed = 1;
nodes = (
(950,380,l),
(950,285,l),
(1045,285,l),
(1045,380,l)
);
},
{
closed = 1;
nodes = (
(1045,380,l),
(1045,285,l),
(1140,285,l),
(1140,380,l)
);
},
{
closed = 1;
nodes = (
(1140,380,l),
(1140,285,l),
(1235,285,l),
(1235,380,l)
);
},
{
closed = 1;
nodes = (
(1235,380,l),
(1235,285,l),
(1330,285,l),
(1330,380,l)
);
},
{
closed = 1;
nodes = (
(285,475,l),
(285,380,l),
(380,380,l),
(380,475,l)
);
},
{
closed = 1;
nodes = (
(380,475,l),
(380,380,l),
(475,380,l),
(475,475,l)
);
},
{
closed = 1;
nodes = (
(475,475,l),
(475,380,l),
(570,380,l),
(570,475,l)
);
},
{
closed = 1;
nodes = (
(570,475,l),
(570,380,l),
(665,380,l),
(665,475,l)
);
},
{
closed = 1;
nodes = (
(665,475,l),
(665,380,l),
(760,380,l),
(760,475,l)
);
},
{
closed = 1;
nodes = (
(760,475,l),
(760,380,l),
(855,380,l),
(855,475,l)
);
},
{
closed = 1;
nodes = (
(855,475,l),
(855,380,l),
(950,380,l),
(950,475,l)
);
},
{
closed = 1;
nodes = (
(950,475,l),
(950,380,l),
(1045,380,l),
(1045,475,l)
);
},
{
closed = 1;
nodes = (
(1045,475,l),
(1045,380,l),
(1140,380,l),
(1140,475,l)
);
},
{
closed = 1;
nodes = (
(1140,475,l),
(1140,380,l),
(1235,380,l),
(1235,475,l)
);
},
{
closed = 1;
nodes = (
(285,570,l),
(285,475,l),
(380,475,l),
(380,570,l)
);
},
{
closed = 1;
nodes = (
(380,570,l),
(380,475,l),
(475,475,l),
(475,570,l)
);
},
{
closed = 1;
nodes = (
(475,570,l),
(475,475,l),
(570,475,l),
(570,570,l)
);
},
{
closed = 1;
nodes = (
(570,570,l),
(570,475,l),
(665,475,l),
(665,570,l)
);
},
{
closed = 1;
nodes = (
(665,570,l),
(665,475,l),
(760,475,l),
(760,570,l)
);
},
{
closed = 1;
nodes = (
(760,570,l),
(760,475,l),
(855,475,l),
(855,570,l)
);
},
{
closed = 1;
nodes = (
(855,570,l),
(855,475,l),
(950,475,l),
(950,570,l)
);
},
{
closed = 1;
nodes = (
(950,570,l),
(950,475,l),
(1045,475,l),
(1045,570,l)
);
},
{
closed = 1;
nodes = (
(1045,570,l),
(1045,475,l),
(1140,475,l),
(1140,570,l)
);
},
{
closed = 1;
nodes = (
(1140,570,l),
(1140,475,l),
(1235,475,l),
(1235,570,l)
);
},
{
closed = 1;
nodes = (
(285,665,l),
(285,570,l),
(380,570,l),
(380,665,l)
);
},
{
closed = 1;
nodes = (
(380,665,l),
(380,570,l),
(475,570,l),
(475,665,l)
);
},
{
closed = 1;
nodes = (
(475,665,l),
(475,570,l),
(570,570,l),
(570,665,l)
);
},
{
closed = 1;
nodes = (
(950,665,l),
(950,570,l),
(1045,570,l),
(1045,665,l)
);
},
{
closed = 1;
nodes = (
(1045,665,l),
(1045,570,l),
(1140,570,l),
(1140,665,l)
);
},
{
closed = 1;
nodes = (
(1140,665,l),
(1140,570,l),
(1235,570,l),
(1235,665,l)
);
},
{
closed = 1;
nodes = (
(380,760,l),
(380,665,l),
(475,665,l),
(475,760,l)
);
},
{
closed = 1;
nodes = (
(475,760,l),
(475,665,l),
(570,665,l),
(570,760,l)
);
},
{
closed = 1;
nodes = (
(950,760,l),
(950,665,l),
(1045,665,l),
(1045,760,l)
);
},
{
closed = 1;
nodes = (
(1045,760,l),
(1045,665,l),
(1140,665,l),
(1140,760,l)
);
},
{
closed = 1;
nodes = (
(380,855,l),
(380,760,l),
(475,760,l),
(475,855,l)
);
},
{
closed = 1;
nodes = (
(475,855,l),
(475,760,l),
(570,760,l),
(570,855,l)
);
},
{
closed = 1;
nodes = (
(570,855,l),
(570,760,l),
(665,760,l),
(665,855,l)
);
},
{
closed = 1;
nodes = (
(855,855,l),
(855,760,l),
(950,760,l),
(950,855,l)
);
},
{
closed = 1;
nodes = (
(950,855,l),
(950,760,l),
(1045,760,l),
(1045,855,l)
);
},
{
closed = 1;
nodes = (
(1045,855,l),
(1045,760,l),
(1140,760,l),
(1140,855,l)
);
},
{
closed = 1;
nodes = (
(475,950,l),
(475,855,l),
(570,855,l),
(570,950,l)
);
},
{
closed = 1;
nodes = (
(570,950,l),
(570,855,l),
(665,855,l),
(665,950,l)
);
},
{
closed = 1;
nodes = (
(855,950,l),
(855,855,l),
(950,855,l),
(950,950,l)
);
},
{
closed = 1;
nodes = (
(950,950,l),
(950,855,l),
(1045,855,l),
(1045,950,l)
);
},
{
closed = 1;
nodes = (
(1045,950,l),
(1045,855,l),
(1140,855,l),
(1140,950,l)
);
},
{
closed = 1;
nodes = (
(475,1045,l),
(475,950,l),
(570,950,l),
(570,1045,l)
);
},
{
closed = 1;
nodes = (
(570,1045,l),
(570,950,l),
(665,950,l),
(665,1045,l)
);
},
{
closed = 1;
nodes = (
(855,1045,l),
(855,950,l),
(950,950,l),
(950,1045,l)
);
},
{
closed = 1;
nodes = (
(950,1045,l),
(950,950,l),
(1045,950,l),
(1045,1045,l)
);
},
{
closed = 1;
nodes = (
(475,1140,l),
(475,1045,l),
(570,1045,l),
(570,1140,l)
);
},
{
closed = 1;
nodes = (
(570,1140,l),
(570,1045,l),
(665,1045,l),
(665,1140,l)
);
},
{
closed = 1;
nodes = (
(665,1140,l),
(665,1045,l),
(760,1045,l),
(760,1140,l)
);
},
{
closed = 1;
nodes = (
(760,1140,l),
(760,1045,l),
(855,1045,l),
(855,1140,l)
);
},
{
closed = 1;
nodes = (
(855,1140,l),
(855,1045,l),
(950,1045,l),
(950,1140,l)
);
},
{
closed = 1;
nodes = (
(950,1140,l),
(950,1045,l),
(1045,1045,l),
(1045,1140,l)
);
},
{
closed = 1;
nodes = (
(570,1235,l),
(570,1140,l),
(665,1140,l),
(665,1235,l)
);
},
{
closed = 1;
nodes = (
(665,1235,l),
(665,1140,l),
(760,1140,l),
(760,1235,l)
);
},
{
closed = 1;
nodes = (
(760,1235,l),
(760,1140,l),
(855,1140,l),
(855,1235,l)
);
},
{
closed = 1;
nodes = (
(855,1235,l),
(855,1140,l),
(950,1140,l),
(950,1235,l)
);
},
{
closed = 1;
nodes = (
(570,1330,l),
(570,1235,l),
(665,1235,l),
(665,1330,l)
);
},
{
closed = 1;
nodes = (
(665,1330,l),
(665,1235,l),
(760,1235,l),
(760,1330,l)
);
},
{
closed = 1;
nodes = (
(760,1330,l),
(760,1235,l),
(855,1235,l),
(855,1330,l)
);
},
{
closed = 1;
nodes = (
(855,1330,l),
(855,1235,l),
(950,1235,l),
(950,1330,l)
);
},
{
closed = 1;
nodes = (
(570,1425,l),
(570,1330,l),
(665,1330,l),
(665,1425,l)
);
},
{
closed = 1;
nodes = (
(665,1425,l),
(665,1330,l),
(760,1330,l),
(760,1425,l)
);
},
{
closed = 1;
nodes = (
(760,1425,l),
(760,1330,l),
(855,1330,l),
(855,1425,l)
);
},
{
closed = 1;
nodes = (
(855,1425,l),
(855,1330,l),
(950,1330,l),
(950,1425,l)
);
},
{
closed = 1;
nodes = (
(665,1520,l),
(665,1425,l),
(760,1425,l),
(760,1520,l)
);
},
{
closed = 1;
nodes = (
(760,1520,l),
(760,1425,l),
(855,1425,l),
(855,1520,l)
);
},
{
closed = 1;
nodes = (
(285,95,l),
(285,0,l),
(380,0,l),
(380,95,l)
);
}
);
width = 1520;
}
);
note = A;
unicode = 65;
}
{
glyphname = B;
layers = (
{
anchors = (
{
name = bottom;
pos = (713,0);
},
{
name = center;
pos = (404,380);
},
{
name = top;
pos = (713,1400);
}
);
layerId = m01;
shapes = (
{
closed = 1;
nodes = (
(190,95,l),
(190,0,l),
(285,0,l),
(285,95,l)
);
},
{
closed = 1;
nodes = (
(285,95,l),
(285,0,l),
(380,0,l),
(380,95,l)
);
},
{
closed = 1;
nodes = (
(380,95,l),
(380,0,l),
(475,0,l),
(475,95,l)
);
},
{
closed = 1;
nodes = (
(475,95,l),
(475,0,l),
(570,0,l),
(570,95,l)
);
},
{
closed = 1;
nodes = (
(570,95,l),
(570,0,l),
(665,0,l),
(665,95,l)
);
},
{
closed = 1;
nodes = (
(665,95,l),
(665,0,l),
(760,0,l),
(760,95,l)
);
},
{
closed = 1;
nodes = (
(760,95,l),
(760,0,l),
(855,0,l),
(855,95,l)
);
},
{
closed = 1;
nodes = (
(855,95,l),
(855,0,l),
(950,0,l),
(950,95,l)
);
},
{
closed = 1;
nodes = (
(95,190,l),
(95,95,l),
(190,95,l),
(190,190,l)
);
},
{
closed = 1;
nodes = (
(190,190,l),
(190,95,l),
(285,95,l),
(285,190,l)
);
},
{
closed = 1;
nodes = (
(285,190,l),
(285,95,l),
(380,95,l),
(380,190,l)
);
},
{
closed = 1;
nodes = (
(380,190,l),
(380,95,l),
(475,95,l),
(475,190,l)
);
},
{
closed = 1;
nodes = (
(475,190,l),
(475,95,l),
(570,95,l),
(570,190,l)
);
},
{
closed = 1;
nodes = (
(570,190,l),
(570,95,l),
(665,95,l),
(665,190,l)
);
},
{
closed = 1;
nodes = (
(665,190,l),
(665,95,l),
(760,95,l),
(760,190,l)
);
},
{
closed = 1;
nodes = (
(760,190,l),
(760,95,l),
(855,95,l),
(855,190,l)
);
},
{
closed = 1;
nodes = (
(855,190,l),
(855,95,l),
(950,95,l),
(950,190,l)
);
},
{
closed = 1;
nodes = (
(950,190,l),
(950,95,l),
(1045,95,l),
(1045,190,l)
);
},
{
closed = 1;
nodes = (
(1045,190,l),
(1045,95,l),
(1140,95,l),
(1140,190,l)
);
},
{
closed = 1;
nodes = (
(95,285,l),
(95,190,l),
(190,190,l),
(190,285,l)
);
},
{
closed = 1;
nodes = (
(190,285,l),
(190,190,l),
(285,190,l),
(285,285,l)
);
},
{
closed = 1;
nodes = (
(285,285,l),
(285,190,l),
(380,190,l),
(380,285,l)
);
},
{
closed = 1;
nodes = (
(950,285,l),
(950,190,l),
(1045,190,l),
(1045,285,l)
);
},
{
closed = 1;
nodes = (
(1045,285,l),
(1045,190,l),
(1140,190,l),
(1140,285,l)
);
},
{
closed = 1;
nodes = (
(1140,285,l),
(1140,190,l),
(1235,190,l),
(1235,285,l)
);
},
{
closed = 1;
nodes = (
(95,380,l),
(95,285,l),
(190,285,l),
(190,380,l)
);
},
{
closed = 1;
nodes = (
(190,380,l),
(190,285,l),
(285,285,l),
(285,380,l)
);
},
{
closed = 1;
nodes = (
(285,380,l),
(285,285,l),
(380,285,l),
(380,380,l)
);
},
{
closed = 1;
nodes = (
(950,380,l),
(950,285,l),
(1045,285,l),
(1045,380,l)
);
},
{
closed = 1;
nodes = (
(1045,380,l),
(1045,285,l),
(1140,285,l),
(1140,380,l)
);
},
{
closed = 1;
nodes = (
(1140,380,l),
(1140,285,l),
(1235,285,l),
(1235,380,l)
);
},
{
closed = 1;
nodes = (
(1235,380,l),
(1235,285,l),
(1330,285,l),
(1330,380,l)
);
},
{
closed = 1;
nodes = (
(95,475,l),
(95,380,l),
(190,380,l),
(190,475,l)
);
},
{
closed = 1;
nodes = (
(190,475,l),
(190,380,l),
(285,380,l),
(285,475,l)
);
},
{
closed = 1;
nodes = (
(285,475,l),
(285,380,l),
(380,380,l),
(380,475,l)
);
},
{
closed = 1;
nodes = (
(1045,475,l),
(1045,380,l),
(1140,380,l),
(1140,475,l)
);
},
{
closed = 1;
nodes = (
(1140,475,l),
(1140,380,l),
(1235,380,l),
(1235,475,l)
);
},
{
closed = 1;
nodes = (
(1235,475,l),
(1235,380,l),
(1330,380,l),
(1330,475,l)
);
},
{
closed = 1;
nodes = (
(95,571,l),
(95,475,l),
(190,475,l),
(190,571,l)
);
},
{
closed = 1;
nodes = (
(190,571,l),
(190,475,l),
(285,475,l),
(285,571,l)
);
},
{
closed = 1;
nodes = (
(285,571,l),
(285,475,l),
(380,475,l),
(380,571,l)
);
},
{
closed = 1;
nodes = (
(1045,571,l),
(1045,475,l),
(1140,475,l),
(1140,571,l)
);
},
{
closed = 1;
nodes = (
(1140,571,l),
(1140,475,l),
(1235,475,l),
(1235,571,l)
);
},
{
closed = 1;
nodes = (
(1235,571,l),
(1235,475,l),
(1330,475,l),
(1330,571,l)
);
},
{
closed = 1;
nodes = (
(95,666,l),
(95,571,l),
(190,571,l),
(190,666,l)
);
},
{
closed = 1;
nodes = (
(190,666,l),
(190,571,l),
(285,571,l),
(285,666,l)
);
},
{
closed = 1;
nodes = (
(285,666,l),
(285,571,l),
(380,571,l),
(380,666,l)
);
},
{
closed = 1;
nodes = (
(950,666,l),
(950,571,l),
(1045,571,l),
(1045,666,l)
);
},
{
closed = 1;
nodes = (
(1045,666,l),
(1045,571,l),
(1140,571,l),
(1140,666,l)
);
},
{
closed = 1;
nodes = (
(1140,666,l),
(1140,571,l),
(1235,571,l),
(1235,666,l)
);
},
{
closed = 1;
nodes = (
(95,761,l),
(95,666,l),
(190,666,l),
(190,761,l)
);
},
{
closed = 1;
nodes = (
(190,761,l),
(190,666,l),
(285,666,l),
(285,761,l)
);
},
{
closed = 1;
nodes = (
(285,761,l),
(285,666,l),
(380,666,l),
(380,761,l)
);
},
{
closed = 1;
nodes = (
(380,761,l),
(380,666,l),
(475,666,l),
(475,761,l)
);
},
{
closed = 1;
nodes = (
(475,761,l),
(475,666,l),
(570,666,l),
(570,761,l)
);
},
{
closed = 1;
nodes = (
(570,761,l),
(570,666,l),
(665,666,l),
(665,761,l)
);
},
{
closed = 1;
nodes = (
(665,761,l),
(665,666,l),
(760,666,l),
(760,761,l)
);
},
{
closed = 1;
nodes = (
(760,761,l),
(760,666,l),
(855,666,l),
(855,761,l)
);
},
{
closed = 1;
nodes = (
(855,761,l),
(855,666,l),
(950,666,l),
(950,761,l)
);
},
{
closed = 1;
nodes = (
(950,761,l),
(950,666,l),
(1045,666,l),
(1045,761,l)
);
},
{
closed = 1;
nodes = (
(95,761,l),
(190,761,l)
);
},
{
closed = 1;
nodes = (
(190,761,l),
(285,761,l)
);
},
{
closed = 1;
nodes = (
(285,761,l),
(380,761,l)
);
},
{
closed = 1;
nodes = (
(380,856,l),
(380,761,l),
(475,761,l),
(475,856,l)
);
},
{
closed = 1;
nodes = (
(475,856,l),
(475,761,l),
(570,761,l),
(570,856,l)
);
},
{
closed = 1;
nodes = (
(570,856,l),
(570,761,l),
(665,761,l),
(665,856,l)
);
},
{
closed = 1;
nodes = (
(665,856,l),
(665,761,l),
(760,761,l),
(760,856,l)
);
},
{
closed = 1;
nodes = (
(760,856,l),
(760,761,l),
(855,761,l),
(855,856,l)
);
},
{
closed = 1;
nodes = (
(855,856,l),
(855,761,l),
(950,761,l),
(950,856,l)
);
},
{
closed = 1;
nodes = (
(950,856,l),
(950,761,l),
(1045,761,l),
(1045,856,l)
);
},
{
closed = 1;
nodes = (
(95,950,l),
(95,856,l),
(190,856,l),
(190,950,l)
);
},
{
closed = 1;
nodes = (
(190,950,l),
(190,856,l),
(285,856,l),
(285,950,l)
);
},
{
closed = 1;
nodes = (
(285,950,l),
(285,856,l),
(380,856,l),
(380,950,l)
);
},
{
closed = 1;
nodes = (
(1045,950,l),
(1045,856,l),
(1140,856,l),
(1140,950,l)
);
},
{
closed = 1;
nodes = (
(1140,950,l),
(1140,855,l),
(1235,855,l),
(1235,950,l)
);
},
{
closed = 1;
nodes = (
(95,1045,l),
(95,950,l),
(190,950,l),
(190,1045,l)
);
},
{
closed = 1;
nodes = (
(190,1045,l),
(190,950,l),
(285,950,l),
(285,1045,l)
);
},
{
closed = 1;
nodes = (
(285,1045,l),
(285,950,l),
(380,950,l),
(380,1045,l)
);
},
{
closed = 1;
nodes = (
(1045,1045,l),
(1045,950,l),
(1140,950,l),
(1140,1045,l)
);
},
{
closed = 1;
nodes = (
(1140,1045,l),
(1140,950,l),
(1235,950,l),
(1235,1045,l)
);
},
{
closed = 1;
nodes = (
(95,1140,l),
(95,1045,l),
(190,1045,l),
(190,1140,l)
);
},
{
closed = 1;
nodes = (
(190,1140,l),
(190,1045,l),
(285,1045,l),
(285,1140,l)
);
},
{
closed = 1;
nodes = (
(285,1140,l),
(285,1045,l),
(380,1045,l),
(380,1140,l)
);
},
{
closed = 1;
nodes = (
(950,1140,l),
(950,1045,l),
(1045,1045,l),
(1045,1140,l)
);
},
{
closed = 1;
nodes = (
(1045,1140,l),
(1045,1045,l),
(1140,1045,l),
(1140,1140,l)
);
},
{
closed = 1;
nodes = (
(1140,1140,l),
(1140,1045,l),
(1235,1045,l),
(1235,1140,l)
);
},
{
closed = 1;
nodes = (
(95,1235,l),
(95,1140,l),
(190,1140,l),
(190,1235,l)
);
},
{
closed = 1;
nodes = (
(190,1235,l),
(190,1140,l),
(285,1140,l),
(285,1235,l)
);
},
{
closed = 1;
nodes = (
(285,1235,l),
(285,1140,l),
(380,1140,l),
(380,1235,l)
);
},
{
closed = 1;
nodes = (
(950,1235,l),
(950,1140,l),
(1045,1140,l),
(1045,1235,l)
);
},
{
closed = 1;
nodes = (
(1045,1235,l),
(1045,1140,l),
(1140,1140,l),
(1140,1235,l)
);
},
{
closed = 1;
nodes = (
(1140,1235,l),
(1140,1140,l),
(1235,1140,l),
(1235,1235,l)
);
},
{
closed = 1;
nodes = (
(95,1330,l),
(95,1235,l),
(190,1235,l),
(190,1330,l)
);
},
{
closed = 1;
nodes = (
(190,1330,l),
(190,1235,l),
(285,1235,l),
(285,1330,l)
);
},
{
closed = 1;
nodes = (
(285,1330,l),
(285,1235,l),
(380,1235,l),
(380,1330,l)
);
},
{
closed = 1;
nodes = (
(760,1330,l),
(760,1235,l),
(855,1235,l),
(855,1330,l)
);
},
{
closed = 1;
nodes = (
(855,1330,l),
(855,1235,l),
(950,1235,l),
(950,1330,l)
);
},
{
closed = 1;
nodes = (
(950,1330,l),
(950,1235,l),
(1045,1235,l),
(1045,1330,l)
);
},
{
closed = 1;
nodes = (
(1045,1330,l),
(1045,1235,l),
(1140,1235,l),
(1140,1330,l)
);
},
{
closed = 1;
nodes = (
(95,1425,l),
(95,1330,l),
(190,1330,l),
(190,1425,l)
);
},
{
closed = 1;
nodes = (
(190,1425,l),
(190,1330,l),
(285,1330,l),
(285,1425,l)
);
},
{
closed = 1;
nodes = (
(285,1425,l),
(285,1330,l),
(380,1330,l),
(380,1425,l)
);
},
{
closed = 1;
nodes = (
(380,1425,l),
(380,1330,l),
(475,1330,l),
(475,1425,l)
);
},
{
closed = 1;
nodes = (
(475,1425,l),
(475,1330,l),
(570,1330,l),
(570,1425,l)
);
},
{
closed = 1;
nodes = (
(570,1425,l),
(570,1330,l),
(665,1330,l),
(665,1425,l)
);
},
{
closed = 1;
nodes = (
(665,1425,l),
(665,1330,l),
(760,1330,l),
(760,1425,l)
);
},
{
closed = 1;
nodes = (
(760,1425,l),
(760,1330,l),
(855,1330,l),
(855,1425,l)
);
},
{
closed = 1;
nodes = (
(855,1425,l),
(855,1330,l),
(950,1330,l),
(950,1425,l)
);
},
{
closed = 1;
nodes = (
(950,1425,l),
(950,1330,l),
(1045,1330,l),
(1045,1425,l)
);
},
{
closed = 1;
nodes = (
(95,1520,l),
(95,1425,l),
(190,1425,l),
(190,1520,l)
);
},
{
closed = 1;
nodes = (
(190,1520,l),
(190,1425,l),
(285,1425,l),
(285,1520,l)
);
},
{
closed = 1;
nodes = (
(285,1520,l),
(285,1425,l),
(380,1425,l),
(380,1520,l)
);
},
{
closed = 1;
nodes = (
(380,1520,l),
(380,1425,l),
(475,1425,l),
(475,1520,l)
);
},
{
closed = 1;
nodes = (
(475,1520,l),
(475,1425,l),
(570,1425,l),
(570,1520,l)
);
},
{
closed = 1;
nodes = (
(570,1520,l),
(570,1425,l),
(665,1425,l),
(665,1520,l)
);
},
{
closed = 1;
nodes = (
(665,1520,l),
(665,1425,l),
(760,1425,l),
(760,1520,l)
);
},
{
closed = 1;
nodes = (
(760,1520,l),
(760,1425,l),
(855,1425,l),
(855,1520,l)
);
},
{
closed = 1;
nodes = (
(855,1520,l),
(855,1425,l),
(950,1425,l),
(950,1520,l)
);
},
{
closed = 1;
nodes = (
(190,95,l),
(190,0,l),
(285,0,l),
(285,95,l)
);
},
{
closed = 1;
nodes = (
(95,856,l),
(95,761,l),
(190,761,l),
(190,856,l)
);
},
{
closed = 1;
nodes = (
(190,856,l),
(190,761,l),
(285,761,l),
(285,856,l)
);
},
{
closed = 1;
nodes = (
(285,856,l),
(285,761,l),
(380,761,l),
(380,856,l)
);
},
{
closed = 1;
nodes = (
(1045,856,l),
(1045,761,l),
(1140,761,l),
(1140,856,l)
);
}
);
width = 1425;
}
);
note = B;
unicode = 66;
}
{
glyphname = J;
layers = (
{
anchors = (
{
name = bottom;
pos = (570,0);
},
{
name = top;
pos = (570,1400);
}
);
layerId = m01;
shapes = (
{
closed = 1;
nodes = (
(380,95,l),
(380,0,l),
(475,0,l),
(475,95,l)
);
},
{
closed = 1;
nodes = (
(475,95,l),
(475,0,l),
(570,0,l),
(570,95,l)
);
},
{
closed = 1;
nodes = (
(570,95,l),
(570,0,l),
(665,0,l),
(665,95,l)
);
},
{
closed = 1;
nodes = (
(665,95,l),
(665,0,l),
(760,0,l),
(760,95,l)
);
},
{
closed = 1;
nodes = (
(190,190,l),
(190,95,l),
(285,95,l),
(285,190,l)
);
},
{
closed = 1;
nodes = (
(285,190,l),
(285,95,l),
(380,95,l),
(380,190,l)
);
},
{
closed = 1;
nodes = (
(380,190,l),
(380,95,l),
(475,95,l),
(475,190,l)
);
},
{
closed = 1;
nodes = (
(475,190,l),
(475,95,l),
(570,95,l),
(570,190,l)
);
},
{
closed = 1;
nodes = (
(570,190,l),
(570,95,l),
(665,95,l),
(665,190,l)
);
},
{
closed = 1;
nodes = (
(665,190,l),
(665,95,l),
(760,95,l),
(760,190,l)
);
},
{
closed = 1;
nodes = (
(760,190,l),
(760,95,l),
(855,95,l),
(855,190,l)
);
},
{
closed = 1;
nodes = (
(855,190,l),
(855,95,l),
(950,95,l),
(950,190,l)
);
},
{
closed = 1;
nodes = (
(190,285,l),
(190,190,l),
(285,190,l),
(285,285,l)
);
},
{
closed = 1;
nodes = (
(285,285,l),
(285,190,l),
(380,190,l),
(380,285,l)
);
},
{
closed = 1;
nodes = (
(380,285,l),
(380,190,l),
(475,190,l),
(475,285,l)
);
},
{
closed = 1;
nodes = (
(665,285,l),
(665,190,l),
(760,190,l),
(760,285,l)
);
},
{
closed = 1;
nodes = (
(760,285,l),
(760,190,l),
(855,190,l),
(855,285,l)
);
},
{
closed = 1;
nodes = (
(855,285,l),
(855,190,l),
(950,190,l),
(950,285,l)
);
},
{
closed = 1;
nodes = (
(95,380,l),
(95,285,l),
(190,285,l),
(190,380,l)
);
},
{
closed = 1;
nodes = (
(190,380,l),
(190,285,l),
(285,285,l),
(285,380,l)
);
},
{
closed = 1;
nodes = (
(285,380,l),
(285,285,l),
(380,285,l),
(380,380,l)
);
},
{
closed = 1;
nodes = (
(760,380,l),
(760,285,l),
(855,285,l),
(855,380,l)
);
},
{
closed = 1;
nodes = (
(855,380,l),
(855,285,l),
(950,285,l),
(950,380,l)
);
},
{
closed = 1;
nodes = (
(950,380,l),
(950,285,l),
(1045,285,l),
(1045,380,l)
);
},
{
closed = 1;
nodes = (
(95,475,l),
(95,380,l),
(190,380,l),
(190,475,l)
);
},
{
closed = 1;
nodes = (
(190,475,l),
(190,380,l),
(285,380,l),
(285,475,l)
);
},
{
closed = 1;
nodes = (
(760,475,l),
(760,380,l),
(855,380,l),
(855,475,l)
);
},
{
closed = 1;
nodes = (
(855,475,l),
(855,380,l),
(950,380,l),
(950,475,l)
);
},
{
closed = 1;
nodes = (
(950,475,l),
(950,380,l),
(1045,380,l),
(1045,475,l)
);
},
{
closed = 1;
nodes = (
(760,665,l),
(760,475,l),
(855,475,l),
(855,665,l)
);
},
{
closed = 1;
nodes = (
(855,665,l),
(855,475,l),
(950,475,l),
(950,665,l)
);
},
{
closed = 1;
nodes = (
(950,665,l),
(950,475,l),
(1045,475,l),
(1045,665,l)
);
},
{
closed = 1;
nodes = (
(760,760,l),
(760,665,l),
(855,665,l),
(855,760,l)
);
},
{
closed = 1;
nodes = (
(855,760,l),
(855,665,l),
(950,665,l),
(950,760,l)
);
},
{
closed = 1;
nodes = (
(950,760,l),
(950,665,l),
(1045,665,l),
(1045,760,l)
);
},
{
closed = 1;
nodes = (
(760,855,l),
(760,760,l),
(855,760,l),
(855,855,l)
);
},
{
closed = 1;
nodes = (
(855,855,l),
(855,760,l),
(950,760,l),
(950,855,l)
);
},
{
closed = 1;
nodes = (
(950,855,l),
(950,760,l),
(1045,760,l),
(1045,855,l)
);
},
{
closed = 1;
nodes = (
(760,950,l),
(760,855,l),
(855,855,l),
(855,950,l)
);
},
{
closed = 1;
nodes = (
(855,950,l),
(855,855,l),
(950,855,l),
(950,950,l)
);
},
{
closed = 1;
nodes = (
(950,950,l),
(950,855,l),
(1045,855,l),
(1045,950,l)
);
},
{
closed = 1;
nodes = (
(760,1045,l),
(760,950,l),
(855,950,l),
(855,1045,l)
);
},
{
closed = 1;
nodes = (
(855,1045,l),
(855,950,l),
(950,950,l),
(950,1045,l)
);
},
{
closed = 1;
nodes = (
(950,1045,l),
(950,950,l),
(1045,950,l),
(1045,1045,l)
);
},
{
closed = 1;
nodes = (
(760,1140,l),
(760,1045,l),
(855,1045,l),
(855,1140,l)
);
},
{
closed = 1;
nodes = (
(855,1140,l),
(855,1045,l),
(950,1045,l),
(950,1140,l)
);
},
{
closed = 1;
nodes = (
(950,1140,l),
(950,1045,l),
(1045,1045,l),
(1045,1140,l)
);
},
{
closed = 1;
nodes = (
(760,1140,l),
(855,1140,l)
);
},
{
closed = 1;
nodes = (
(855,1140,l),
(950,1140,l)
);
},
{
closed = 1;
nodes = (
(950,1140,l),
(1045,1140,l)
);
},
{
closed = 1;
nodes = (
(760,1235,l),
(855,1235,l)
);
},
{
closed = 1;
nodes = (
(950,1235,l),
(1045,1235,l)
);
},
{
closed = 1;
nodes = (
(760,1235,l),
(760,1330,l)
);
},
{
closed = 1;
nodes = (
(760,1330,l),
(760,1235,l),
(855,1235,l),
(855,1330,l)
);
},
{
closed = 1;
nodes = (
(855,1330,l),
(950,1330,l)
);
},
{
closed = 1;
nodes = (
(950,1330,l),
(950,1235,l),
(1045,1235,l),
(1045,1330,l)
);
},
{
closed = 1;
nodes = (
(760,1330,l),
(760,1425,l)
);
},
{
closed = 1;
nodes = (
(760,1425,l),
(760,1330,l),
(855,1330,l),
(855,1425,l)
);
},
{
closed = 1;
nodes = (
(855,1425,l),
(855,1330,l),
(950,1330,l),
(950,1425,l)
);
},
{
closed = 1;
nodes = (
(950,1425,l),
(950,1330,l),
(1045,1330,l),
(1045,1425,l)
);
},
{
closed = 1;
nodes = (
(855,1520,l),
(855,1425,l),
(950,1425,l),
(950,1520,l)
);
},
{
closed = 1;
nodes = (
(855,1330,l),
(855,1235,l),
(950,1235,l),
(950,1330,l)
);
},
{
closed = 1;
nodes = (
(855,1235,l),
(855,1140,l),
(950,1140,l),
(950,1235,l)
);
},
{
closed = 1;
nodes = (
(950,1235,l),
(950,1140,l),
(1045,1140,l),
(1045,1235,l)
);
},
{
closed = 1;
nodes = (
(760,1235,l),
(760,1140,l),
(855,1140,l),
(855,1235,l)
);
},
{
closed = 1;
nodes = (
(950,1520,l),
(950,1425,l),
(1045,1425,l),
(1045,1520,l)
);
}
);
width = 1140;
}
);
note = J;
unicode = 74;
}
{
glyphname = O;
layers = (
{
anchors = (
{
name = bottom;
pos = (808,0);
},
{
name = center;
pos = (808,700);
},
{
name = ogonek;
pos = (1454,10);
},
{
name = top;
pos = (808,1400);
},
{
name = topleft;
pos = (20,1400);
},
{
name = topright;
pos = (1595,1400);
}
);
layerId = m01;
shapes = (
{
closed = 1;
nodes = (
(380,95,l),
(380,0,l),
(475,0,l),
(475,95,l)
);
},
{
closed = 1;
nodes = (
(475,95,l),
(475,0,l),
(570,0,l),
(570,95,l)
);
},
{
closed = 1;
nodes = (
(570,95,l),
(570,0,l),
(665,0,l),
(665,95,l)
);
},
{
closed = 1;
nodes = (
(665,95,l),
(665,0,l),
(760,0,l),
(760,95,l)
);
},
{
closed = 1;
nodes = (
(760,95,l),
(760,0,l),
(855,0,l),
(855,95,l)
);
},
{
closed = 1;
nodes = (
(855,95,l),
(855,0,l),
(950,0,l),
(950,95,l)
);
},
{
closed = 1;
nodes = (
(950,95,l),
(950,0,l),
(1045,0,l),
(1045,95,l)
);
},
{
closed = 1;
nodes = (
(1045,95,l),
(1045,0,l),
(1140,0,l),
(1140,95,l)
);
},
{
closed = 1;
nodes = (
(1140,95,l),
(1140,0,l),
(1235,0,l),
(1235,95,l)
);
},
{
closed = 1;
nodes = (
(285,190,l),
(285,95,l),
(380,95,l),
(380,190,l)
);
},
{
closed = 1;
nodes = (
(380,190,l),
(380,95,l),
(475,95,l),
(475,190,l)
);
},
{
closed = 1;
nodes = (
(475,190,l),
(475,95,l),
(570,95,l),
(570,190,l)
);
},
{
closed = 1;
nodes = (
(570,190,l),
(570,95,l),
(665,95,l),
(665,190,l)
);
},
{
closed = 1;
nodes = (
(665,190,l),
(665,95,l),
(760,95,l),
(760,190,l)
);
},
{
closed = 1;
nodes = (
(760,190,l),
(760,95,l),
(855,95,l),
(855,190,l)
);
},
{
closed = 1;
nodes = (
(855,190,l),
(855,95,l),
(950,95,l),
(950,190,l)
);
},
{
closed = 1;
nodes = (
(950,190,l),
(950,95,l),
(1045,95,l),
(1045,190,l)
);
},
{
closed = 1;
nodes = (
(1045,190,l),
(1045,95,l),
(1140,95,l),
(1140,190,l)
);
},
{
closed = 1;
nodes = (
(1140,190,l),
(1140,95,l),
(1235,95,l),
(1235,190,l)
);
},
{
closed = 1;
nodes = (
(1235,190,l),
(1235,95,l),
(1330,95,l),
(1330,190,l)
);
},
{
closed = 1;
nodes = (
(190,285,l),
(190,190,l),
(285,190,l),
(285,285,l)
);
},
{
closed = 1;
nodes = (
(285,285,l),
(285,190,l),
(380,190,l),
(380,285,l)
);
},
{
closed = 1;
nodes = (
(380,285,l),
(380,190,l),
(475,190,l),
(475,285,l)
);
},
{
closed = 1;
nodes = (
(1045,285,l),
(1045,190,l),
(1140,190,l),
(1140,285,l)
);
},
{
closed = 1;
nodes = (
(1140,285,l),
(1140,190,l),
(1235,190,l),
(1235,285,l)
);
},
{
closed = 1;
nodes = (
(1235,285,l),
(1235,190,l),
(1330,190,l),
(1330,285,l)
);
},
{
closed = 1;
nodes = (
(190,380,l),
(190,285,l),
(285,285,l),
(285,380,l)
);
},
{
closed = 1;
nodes = (
(285,380,l),
(285,285,l),
(380,285,l),
(380,380,l)
);
},
{
closed = 1;
nodes = (
(380,380,l),
(380,285,l),
(475,285,l),
(475,380,l)
);
},
{
closed = 1;
nodes = (
(1140,380,l),
(1140,285,l),
(1235,285,l),
(1235,380,l)
);
},
{
closed = 1;
nodes = (
(1235,380,l),
(1235,285,l),
(1330,285,l),
(1330,380,l)
);
},
{
closed = 1;
nodes = (
(1330,380,l),
(1330,285,l),
(1425,285,l),
(1425,380,l)
);
},
{
closed = 1;
nodes = (
(95,475,l),
(95,380,l),
(190,380,l),
(190,475,l)
);
},
{
closed = 1;
nodes = (
(190,475,l),
(190,380,l),
(285,380,l),
(285,475,l)
);
},
{
closed = 1;
nodes = (
(285,475,l),
(285,380,l),
(380,380,l),
(380,475,l)
);
},
{
closed = 1;
nodes = (
(1235,475,l),
(1235,380,l),
(1330,380,l),
(1330,475,l)
);
},
{
closed = 1;
nodes = (
(1330,475,l),
(1330,380,l),
(1425,380,l),
(1425,475,l)
);
},
{
closed = 1;
nodes = (
(1425,475,l),
(1425,380,l),
(1520,380,l),
(1520,475,l)
);
},
{
closed = 1;
nodes = (
(95,570,l),
(95,475,l),
(190,475,l),
(190,570,l)
);
},
{
closed = 1;
nodes = (
(190,570,l),
(190,475,l),
(285,475,l),
(285,570,l)
);
},
{
closed = 1;
nodes = (
(285,570,l),
(285,475,l),
(380,475,l),
(380,570,l)
);
},
{
closed = 1;
nodes = (
(1235,570,l),
(1235,475,l),
(1330,475,l),
(1330,570,l)
);
},
{
closed = 1;
nodes = (
(1330,570,l),
(1330,475,l),
(1425,475,l),
(1425,570,l)
);
},
{
closed = 1;
nodes = (
(1425,570,l),
(1425,475,l),
(1520,475,l),
(1520,570,l)
);
},
{
closed = 1;
nodes = (
(95,665,l),
(95,570,l),
(190,570,l),
(190,665,l)
);
},
{
closed = 1;
nodes = (
(190,665,l),
(190,570,l),
(285,570,l),
(285,665,l)
);
},
{
closed = 1;
nodes = (
(285,665,l),
(285,570,l),
(380,570,l),
(380,665,l)
);
},
{
closed = 1;
nodes = (
(1235,665,l),
(1235,570,l),
(1330,570,l),
(1330,665,l)
);
},
{
closed = 1;
nodes = (
(1330,665,l),
(1330,570,l),
(1425,570,l),
(1425,665,l)
);
},
{
closed = 1;
nodes = (
(1425,665,l),
(1425,570,l),
(1520,570,l),
(1520,665,l)
);
},
{
closed = 1;
nodes = (
(95,760,l),
(95,665,l),
(190,665,l),
(190,760,l)
);
},
{
closed = 1;
nodes = (
(190,760,l),
(190,665,l),
(285,665,l),
(285,760,l)
);
},
{
closed = 1;
nodes = (
(285,760,l),
(285,665,l),
(380,665,l),
(380,760,l)
);
},
{
closed = 1;
nodes = (
(1235,760,l),
(1235,665,l),
(1330,665,l),
(1330,760,l)
);
},
{
closed = 1;
nodes = (
(1330,760,l),
(1330,665,l),
(1425,665,l),
(1425,760,l)
);
},
{
closed = 1;
nodes = (
(1425,760,l),
(1425,665,l),
(1520,665,l),
(1520,760,l)
);
},
{
closed = 1;
nodes = (
(95,855,l),
(95,760,l),
(190,760,l),
(190,855,l)
);
},
{
closed = 1;
nodes = (
(190,855,l),
(190,760,l),
(285,760,l),
(285,855,l)
);
},
{
closed = 1;
nodes = (
(285,855,l),
(285,760,l),
(380,760,l),
(380,855,l)
);
},
{
closed = 1;
nodes = (
(1235,855,l),
(1235,760,l),
(1330,760,l),
(1330,855,l)
);
},
{
closed = 1;
nodes = (
(1330,855,l),
(1330,760,l),
(1425,760,l),
(1425,855,l)
);
},
{
closed = 1;
nodes = (
(1425,855,l),
(1425,760,l),
(1520,760,l),
(1520,855,l)
);
},
{
closed = 1;
nodes = (
(95,950,l),
(95,855,l),
(190,855,l),
(190,950,l)
);
},
{
closed = 1;
nodes = (
(190,950,l),
(190,855,l),
(285,855,l),
(285,950,l)
);
},
{
closed = 1;
nodes = (
(285,950,l),
(285,855,l),
(380,855,l),
(380,950,l)
);
},
{
closed = 1;
nodes = (
(1235,950,l),
(1235,855,l),
(1330,855,l),
(1330,950,l)
);
},
{
closed = 1;
nodes = (
(1330,950,l),
(1330,855,l),
(1425,855,l),
(1425,950,l)
);
},
{
closed = 1;
nodes = (
(1425,950,l),
(1425,855,l),
(1520,855,l),
(1520,950,l)
);
},
{
closed = 1;
nodes = (
(95,1045,l),
(95,950,l),
(190,950,l),
(190,1045,l)
);
},
{
closed = 1;
nodes = (
(190,1045,l),
(190,950,l),
(285,950,l),
(285,1045,l)
);
},
{
closed = 1;
nodes = (
(285,1045,l),
(285,950,l),
(380,950,l),
(380,1045,l)
);
},
{
closed = 1;
nodes = (
(1235,1045,l),
(1235,950,l),
(1330,950,l),
(1330,1045,l)
);
},
{
closed = 1;
nodes = (
(1330,1045,l),
(1330,950,l),
(1425,950,l),
(1425,1045,l)
);
},
{
closed = 1;
nodes = (
(1425,1045,l),
(1425,950,l),
(1520,950,l),
(1520,1045,l)
);
},
{
closed = 1;
nodes = (
(95,1140,l),
(95,1045,l),
(190,1045,l),
(190,1140,l)
);
},
{
closed = 1;
nodes = (
(190,1140,l),
(190,1045,l),
(285,1045,l),
(285,1140,l)
);
},
{
closed = 1;
nodes = (
(285,1140,l),
(285,1045,l),
(380,1045,l),
(380,1140,l)
);
},
{
closed = 1;
nodes = (
(1235,1140,l),
(1235,1045,l),
(1330,1045,l),
(1330,1140,l)
);
},
{
closed = 1;
nodes = (
(1330,1140,l),
(1330,1045,l),
(1425,1045,l),
(1425,1140,l)
);
},
{
closed = 1;
nodes = (
(1425,1140,l),
(1425,1045,l),
(1520,1045,l),
(1520,1140,l)
);
},
{
closed = 1;
nodes = (
(190,1235,l),
(190,1140,l),
(285,1140,l),
(285,1235,l)
);
},
{
closed = 1;
nodes = (
(285,1235,l),
(285,1140,l),
(380,1140,l),
(380,1235,l)
);
},
{
closed = 1;
nodes = (
(380,1235,l),
(380,1140,l),
(475,1140,l),
(475,1235,l)
);
},
{
closed = 1;
nodes = (
(1140,1235,l),
(1140,1140,l),
(1235,1140,l),
(1235,1235,l)
);
},
{
closed = 1;
nodes = (
(1235,1235,l),
(1235,1140,l),
(1330,1140,l),
(1330,1235,l)
);
},
{
closed = 1;
nodes = (
(1330,1235,l),
(1330,1140,l),
(1425,1140,l),
(1425,1235,l)
);
},
{
closed = 1;
nodes = (
(190,1330,l),
(190,1235,l),
(285,1235,l),
(285,1330,l)
);
},
{
closed = 1;
nodes = (
(285,1330,l),
(285,1235,l),
(380,1235,l),
(380,1330,l)
);
},
{
closed = 1;
nodes = (
(380,1330,l),
(380,1235,l),
(475,1235,l),
(475,1330,l)
);
},
{
closed = 1;
nodes = (
(475,1330,l),
(475,1235,l),
(570,1235,l),
(570,1330,l)
);
},
{
closed = 1;
nodes = (
(1140,1330,l),
(1140,1235,l),
(1235,1235,l),
(1235,1330,l)
);
},
{
closed = 1;
nodes = (
(1235,1330,l),
(1235,1235,l),
(1330,1235,l),
(1330,1330,l)
);
},
{
closed = 1;
nodes = (
(1330,1330,l),
(1330,1235,l),
(1425,1235,l),
(1425,1330,l)
);
},
{
closed = 1;
nodes = (
(285,1425,l),
(285,1330,l),
(380,1330,l),
(380,1425,l)
);
},
{
closed = 1;
nodes = (
(380,1425,l),
(380,1330,l),
(475,1330,l),
(475,1425,l)
);
},
{
closed = 1;
nodes = (
(475,1425,l),
(475,1330,l),
(570,1330,l),
(570,1425,l)
);
},
{
closed = 1;
nodes = (
(570,1425,l),
(570,1330,l),
(665,1330,l),
(665,1425,l)
);
},
{
closed = 1;
nodes = (
(665,1425,l),
(665,1330,l),
(760,1330,l),
(760,1425,l)
);
},
{
closed = 1;
nodes = (
(760,1425,l),
(760,1330,l),
(855,1330,l),
(855,1425,l)
);
},
{
closed = 1;
nodes = (
(855,1425,l),
(855,1330,l),
(950,1330,l),
(950,1425,l)
);
},
{
closed = 1;
nodes = (
(950,1425,l),
(950,1330,l),
(1045,1330,l),
(1045,1425,l)
);
},
{
closed = 1;
nodes = (
(1045,1425,l),
(1045,1330,l),
(1140,1330,l),
(1140,1425,l)
);
},
{
closed = 1;
nodes = (
(1140,1425,l),
(1140,1330,l),
(1235,1330,l),
(1235,1425,l)
);
},
{
closed = 1;
nodes = (
(1235,1425,l),
(1235,1330,l),
(1330,1330,l),
(1330,1425,l)
);
},
{
closed = 1;
nodes = (
(380,1520,l),
(380,1425,l),
(475,1425,l),
(475,1520,l)
);
},
{
closed = 1;
nodes = (
(475,1520,l),
(475,1425,l),
(570,1425,l),
(570,1520,l)
);
},
{
closed = 1;
nodes = (
(570,1520,l),
(570,1425,l),
(665,1425,l),
(665,1520,l)
);
},
{
closed = 1;
nodes = (
(665,1520,l),
(665,1425,l),
(760,1425,l),
(760,1520,l)
);
},
{
closed = 1;
nodes = (
(760,1520,l),
(760,1425,l),
(855,1425,l),
(855,1520,l)
);
},
{
closed = 1;
nodes = (
(855,1520,l),
(855,1425,l),
(950,1425,l),
(950,1520,l)
);
},
{
closed = 1;
nodes = (
(950,1520,l),
(950,1425,l),
(1045,1425,l),
(1045,1520,l)
);
},
{
closed = 1;
nodes = (
(1045,1520,l),
(1045,1425,l),
(1140,1425,l),
(1140,1520,l)
);
},
{
closed = 1;
nodes = (
(1140,1520,l),
(1140,1425,l),
(1235,1425,l),
(1235,1520,l)
);
}
);
width = 1615;
}
);
note = O;
unicode = 79;
}
{
glyphname = Q;
layers = (
{
anchors = (
{
name = bottom;
pos = (813,0);
},
{
name = top;
pos = (813,1400);
}
);
layerId = m01;
shapes = (
{
closed = 1;
nodes = (
(385,95,l),
(385,0,l),
(480,0,l),
(480,95,l)
);
},
{
closed = 1;
nodes = (
(480,95,l),
(480,0,l),
(575,0,l),
(575,95,l)
);
},
{
closed = 1;
nodes = (
(575,95,l),
(575,0,l),
(670,0,l),
(670,95,l)
);
},
{
closed = 1;
nodes = (
(670,95,l),
(670,0,l),
(765,0,l),
(765,95,l)
);
},
{
closed = 1;
nodes = (
(765,95,l),
(765,0,l),
(860,0,l),
(860,95,l)
);
},
{
closed = 1;
nodes = (
(860,95,l),
(860,0,l),
(955,0,l),
(955,95,l)
);
},
{
closed = 1;
nodes = (
(955,95,l),
(955,0,l),
(1050,0,l),
(1050,95,l)
);
},
{
closed = 1;
nodes = (
(1050,95,l),
(1050,0,l),
(1145,0,l),
(1145,95,l)
);
},
{
closed = 1;
nodes = (
(1145,95,l),
(1145,0,l),
(1240,0,l),
(1240,95,l)
);
},
{
closed = 1;
nodes = (
(290,190,l),
(290,95,l),
(385,95,l),
(385,190,l)
);
},
{
closed = 1;
nodes = (
(385,190,l),
(385,95,l),
(480,95,l),
(480,190,l)
);
},
{
closed = 1;
nodes = (
(480,190,l),
(480,95,l),
(575,95,l),
(575,190,l)
);
},
{
closed = 1;
nodes = (
(575,190,l),
(575,95,l),
(670,95,l),
(670,190,l)
);
},
{
closed = 1;
nodes = (
(670,190,l),
(670,95,l),
(765,95,l),
(765,190,l)
);
},
{
closed = 1;
nodes = (
(765,190,l),
(765,95,l),
(860,95,l),
(860,190,l)
);
},
{
closed = 1;
nodes = (
(860,190,l),
(860,95,l),
(955,95,l),
(955,190,l)
);
},
{
closed = 1;
nodes = (
(955,190,l),
(955,95,l),
(1050,95,l),
(1050,190,l)
);
},
{
closed = 1;
nodes = (
(1050,190,l),
(1050,95,l),
(1145,95,l),
(1145,190,l)
);
},
{
closed = 1;
nodes = (
(1145,190,l),
(1145,95,l),
(1240,95,l),
(1240,190,l)
);
},
{
closed = 1;
nodes = (
(1240,190,l),
(1240,95,l),
(1335,95,l),
(1335,190,l)
);
},
{
closed = 1;
nodes = (
(195,285,l),
(195,190,l),
(290,190,l),
(290,285,l)
);
},
{
closed = 1;
nodes = (
(290,285,l),
(290,190,l),
(385,190,l),
(385,285,l)
);
},
{
closed = 1;
nodes = (
(385,285,l),
(385,190,l),
(480,190,l),
(480,285,l)
);
},
{
closed = 1;
nodes = (
(1050,285,l),
(1050,190,l),
(1145,190,l),
(1145,285,l)
);
},
{
closed = 1;
nodes = (
(1145,285,l),
(1145,190,l),
(1240,190,l),
(1240,285,l)
);
},
{
closed = 1;
nodes = (
(1240,285,l),
(1240,190,l),
(1335,190,l),
(1335,285,l)
);
},
{
closed = 1;
nodes = (
(195,380,l),
(195,285,l),
(290,285,l),
(290,380,l)
);
},
{
closed = 1;
nodes = (
(290,380,l),
(290,285,l),
(385,285,l),
(385,380,l)
);
},
{
closed = 1;
nodes = (
(385,380,l),
(385,285,l),
(480,285,l),
(480,380,l)
);
},
{
closed = 1;
nodes = (
(1145,380,l),
(1145,285,l),
(1240,285,l),
(1240,380,l)
);
},
{
closed = 1;
nodes = (
(1240,380,l),
(1240,285,l),
(1335,285,l),
(1335,380,l)
);
},
{
closed = 1;
nodes = (
(1335,380,l),
(1335,285,l),
(1430,285,l),
(1430,380,l)
);
},
{
closed = 1;
nodes = (
(100,475,l),
(100,380,l),
(195,380,l),
(195,475,l)
);
},
{
closed = 1;
nodes = (
(195,475,l),
(195,380,l),
(290,380,l),
(290,475,l)
);
},
{
closed = 1;
nodes = (
(290,475,l),
(290,380,l),
(385,380,l),
(385,475,l)
);
},
{
closed = 1;
nodes = (
(1240,475,l),
(1240,380,l),
(1335,380,l),
(1335,475,l)
);
},
{
closed = 1;
nodes = (
(1335,475,l),
(1335,380,l),
(1430,380,l),
(1430,475,l)
);
},
{
closed = 1;
nodes = (
(1430,475,l),
(1430,380,l),
(1525,380,l),
(1525,475,l)
);
},
{
closed = 1;
nodes = (
(100,570,l),
(100,475,l),
(195,475,l),
(195,570,l)
);
},
{
closed = 1;
nodes = (
(195,570,l),
(195,475,l),
(290,475,l),
(290,570,l)
);
},
{
closed = 1;
nodes = (
(290,570,l),
(290,475,l),
(385,475,l),
(385,570,l)
);
},
{
closed = 1;
nodes = (
(1240,570,l),
(1240,475,l),
(1335,475,l),
(1335,570,l)
);
},
{
closed = 1;
nodes = (
(1335,570,l),
(1335,475,l),
(1430,475,l),
(1430,570,l)
);
},
{
closed = 1;
nodes = (
(1430,570,l),
(1430,475,l),
(1525,475,l),
(1525,570,l)
);
},
{
closed = 1;
nodes = (
(100,665,l),
(100,570,l),
(195,570,l),
(195,665,l)
);
},
{
closed = 1;
nodes = (
(195,665,l),
(195,570,l),
(290,570,l),
(290,665,l)
);
},
{
closed = 1;
nodes = (
(290,665,l),
(290,570,l),
(385,570,l),
(385,665,l)
);
},
{
closed = 1;
nodes = (
(1240,665,l),
(1240,570,l),
(1335,570,l),
(1335,665,l)
);
},
{
closed = 1;
nodes = (
(1335,665,l),
(1335,570,l),
(1430,570,l),
(1430,665,l)
);
},
{
closed = 1;
nodes = (
(1430,665,l),
(1430,570,l),
(1525,570,l),
(1525,665,l)
);
},
{
closed = 1;
nodes = (
(100,760,l),
(100,665,l),
(195,665,l),
(195,760,l)
);
},
{
closed = 1;
nodes = (
(195,760,l),
(195,665,l),
(290,665,l),
(290,760,l)
);
},
{
closed = 1;
nodes = (
(290,760,l),
(290,665,l),
(385,665,l),
(385,760,l)
);
},
{
closed = 1;
nodes = (
(1240,760,l),
(1240,665,l),
(1335,665,l),
(1335,760,l)
);
},
{
closed = 1;
nodes = (
(1335,760,l),
(1335,665,l),
(1430,665,l),
(1430,760,l)
);
},
{
closed = 1;
nodes = (
(1430,760,l),
(1430,665,l),
(1525,665,l),
(1525,760,l)
);
},
{
closed = 1;
nodes = (
(100,855,l),
(100,760,l),
(195,760,l),
(195,855,l)
);
},
{
closed = 1;
nodes = (
(195,855,l),
(195,760,l),
(290,760,l),
(290,855,l)
);
},
{
closed = 1;
nodes = (
(290,855,l),
(290,760,l),
(385,760,l),
(385,855,l)
);
},
{
closed = 1;
nodes = (
(1240,855,l),
(1240,760,l),
(1335,760,l),
(1335,855,l)
);
},
{
closed = 1;
nodes = (
(1335,855,l),
(1335,760,l),
(1430,760,l),
(1430,855,l)
);
},
{
closed = 1;
nodes = (
(1430,855,l),
(1430,760,l),
(1525,760,l),
(1525,855,l)
);
},
{
closed = 1;
nodes = (
(100,950,l),
(100,855,l),
(195,855,l),
(195,950,l)
);
},
{
closed = 1;
nodes = (
(195,950,l),
(195,855,l),
(290,855,l),
(290,950,l)
);
},
{
closed = 1;
nodes = (
(290,950,l),
(290,855,l),
(385,855,l),
(385,950,l)
);
},
{
closed = 1;
nodes = (
(1240,950,l),
(1240,855,l),
(1335,855,l),
(1335,950,l)
);
},
{
closed = 1;
nodes = (
(1335,950,l),
(1335,855,l),
(1430,855,l),
(1430,950,l)
);
},
{
closed = 1;
nodes = (
(1430,950,l),
(1430,855,l),
(1525,855,l),
(1525,950,l)
);
},
{
closed = 1;
nodes = (
(100,1045,l),
(100,950,l),
(195,950,l),
(195,1045,l)
);
},
{
closed = 1;
nodes = (
(195,1045,l),
(195,950,l),
(290,950,l),
(290,1045,l)
);
},
{
closed = 1;
nodes = (
(290,1045,l),
(290,950,l),
(385,950,l),
(385,1045,l)
);
},
{
closed = 1;
nodes = (
(1240,1045,l),
(1240,950,l),
(1335,950,l),
(1335,1045,l)
);
},
{
closed = 1;
nodes = (
(1335,1045,l),
(1335,950,l),
(1430,950,l),
(1430,1045,l)
);
},
{
closed = 1;
nodes = (
(1430,1045,l),
(1430,950,l),
(1525,950,l),
(1525,1045,l)
);
},
{
closed = 1;
nodes = (
(100,1140,l),
(100,1045,l),
(195,1045,l),
(195,1140,l)
);
},
{
closed = 1;
nodes = (
(195,1140,l),
(195,1045,l),
(290,1045,l),
(290,1140,l)
);
},
{
closed = 1;
nodes = (
(290,1140,l),
(290,1045,l),
(385,1045,l),
(385,1140,l)
);
},
{
closed = 1;
nodes = (
(1240,1140,l),
(1240,1045,l),
(1335,1045,l),
(1335,1140,l)
);
},
{
closed = 1;
nodes = (
(1335,1140,l),
(1335,1045,l),
(1430,1045,l),
(1430,1140,l)
);
},
{
closed = 1;
nodes = (
(1430,1140,l),
(1430,1045,l),
(1525,1045,l),
(1525,1140,l)
);
},
{
closed = 1;
nodes = (
(195,1235,l),
(195,1140,l),
(290,1140,l),
(290,1235,l)
);
},
{
closed = 1;
nodes = (
(290,1235,l),
(290,1140,l),
(385,1140,l),
(385,1235,l)
);
},
{
closed = 1;
nodes = (
(385,1235,l),
(385,1140,l),
(480,1140,l),
(480,1235,l)
);
},
{
closed = 1;
nodes = (
(1145,1235,l),
(1145,1140,l),
(1240,1140,l),
(1240,1235,l)
);
},
{
closed = 1;
nodes = (
(1240,1235,l),
(1240,1140,l),
(1335,1140,l),
(1335,1235,l)
);
},
{
closed = 1;
nodes = (
(1335,1235,l),
(1335,1140,l),
(1430,1140,l),
(1430,1235,l)
);
},
{
closed = 1;
nodes = (
(195,1330,l),
(195,1235,l),
(290,1235,l),
(290,1330,l)
);
},
{
closed = 1;
nodes = (
(290,1330,l),
(290,1235,l),
(385,1235,l),
(385,1330,l)
);
},
{
closed = 1;
nodes = (
(385,1330,l),
(385,1235,l),
(480,1235,l),
(480,1330,l)
);
},
{
closed = 1;
nodes = (
(480,1330,l),
(480,1235,l),
(575,1235,l),
(575,1330,l)
);
},
{
closed = 1;
nodes = (
(1145,1330,l),
(1145,1235,l),
(1240,1235,l),
(1240,1330,l)
);
},
{
closed = 1;
nodes = (
(1240,1330,l),
(1240,1235,l),
(1335,1235,l),
(1335,1330,l)
);
},
{
closed = 1;
nodes = (
(1335,1330,l),
(1335,1235,l),
(1430,1235,l),
(1430,1330,l)
);
},
{
closed = 1;
nodes = (
(290,1425,l),
(290,1330,l),
(385,1330,l),
(385,1425,l)
);
},
{
closed = 1;
nodes = (
(385,1425,l),
(385,1330,l),
(480,1330,l),
(480,1425,l)
);
},
{
closed = 1;
nodes = (
(480,1425,l),
(480,1330,l),
(575,1330,l),
(575,1425,l)
);
},
{
closed = 1;
nodes = (
(575,1425,l),
(575,1330,l),
(670,1330,l),
(670,1425,l)
);
},
{
closed = 1;
nodes = (
(670,1425,l),
(670,1330,l),
(765,1330,l),
(765,1425,l)
);
},
{
closed = 1;
nodes = (
(765,1425,l),
(765,1330,l),
(860,1330,l),
(860,1425,l)
);
},
{
closed = 1;
nodes = (
(860,1425,l),
(860,1330,l),
(955,1330,l),
(955,1425,l)
);
},
{
closed = 1;
nodes = (
(955,1425,l),
(955,1330,l),
(1050,1330,l),
(1050,1425,l)
);
},
{
closed = 1;
nodes = (
(1050,1425,l),
(1050,1330,l),
(1145,1330,l),
(1145,1425,l)
);
},
{
closed = 1;
nodes = (
(1145,1425,l),
(1145,1330,l),
(1240,1330,l),
(1240,1425,l)
);
},
{
closed = 1;
nodes = (
(1240,1425,l),
(1240,1330,l),
(1335,1330,l),
(1335,1425,l)
);
},
{
closed = 1;
nodes = (
(385,1520,l),
(385,1425,l),
(480,1425,l),
(480,1520,l)
);
},
{
closed = 1;
nodes = (
(480,1520,l),
(480,1425,l),
(575,1425,l),
(575,1520,l)
);
},
{
closed = 1;
nodes = (
(575,1520,l),
(575,1425,l),
(670,1425,l),
(670,1520,l)
);
},
{
closed = 1;
nodes = (
(670,1520,l),
(670,1425,l),
(765,1425,l),
(765,1520,l)
);
},
{
closed = 1;
nodes = (
(765,1520,l),
(765,1425,l),
(860,1425,l),
(860,1520,l)
);
},
{
closed = 1;
nodes = (
(860,1520,l),
(860,1425,l),
(955,1425,l),
(955,1520,l)
);
},
{
closed = 1;
nodes = (
(955,1520,l),
(955,1425,l),
(1050,1425,l),
(1050,1520,l)
);
},
{
closed = 1;
nodes = (
(1050,1520,l),
(1050,1425,l),
(1145,1425,l),
(1145,1520,l)
);
},
{
closed = 1;
nodes = (
(1145,1520,l),
(1145,1425,l),
(1240,1425,l),
(1240,1520,l)
);
},
{
closed = 1;
nodes = (
(765,0,l),
(765,-285,l),
(860,-285,l),
(860,0,l)
);
},
{
closed = 1;
nodes = (
(860,0,l),
(860,-285,l),
(955,-285,l),
(955,0,l)
);
},
{
closed = 1;
nodes = (
(765,190,l),
(765,95,l),
(765,0,l),
(765,95,l),
(765,190,l),
(765,285,l)
);
},
{
closed = 1;
nodes = (
(765,95,l),
(765,0,l),
(955,0,l),
(955,95,l)
);
},
{
closed = 1;
nodes = (
(765,190,l),
(765,95,l),
(955,95,l),
(955,190,l)
);
},
{
closed = 1;
nodes = (
(765,285,l),
(765,190,l),
(860,190,l),
(860,285,l)
);
},
{
closed = 1;
nodes = (
(860,285,l),
(860,190,l),
(955,190,l),
(955,285,l)
);
},
{
closed = 1;
nodes = (
(765,380,l),
(765,285,l),
(860,285,l),
(860,380,l)
);
},
{
closed = 1;
nodes = (
(860,380,l),
(860,285,l),
(955,285,l),
(955,380,l)
);
},
{
closed = 1;
nodes = (
(765,475,l),
(765,380,l),
(860,380,l),
(860,475,l)
);
},
{
closed = 1;
nodes = (
(860,475,l),
(860,380,l),
(955,380,l),
(955,475,l)
);
},
{
closed = 1;
nodes = (
(860,570,l),
(860,475,l),
(955,475,l),
(955,570,l)
);
}
);
width = 1625;
}
);
note = Q;
unicode = 81;
}
{
glyphname = T;
layers = (
{
anchors = (
{
name = bottom;
pos = (713,0);
},
{
name = center;
pos = (713,700);
},
{
name = top;
pos = (713,1400);
}
);
layerId = m01;
shapes = (
{
closed = 1;
nodes = (
(570,95,l),
(570,0,l),
(665,0,l),
(665,95,l)
);
},
{
closed = 1;
nodes = (
(665,95,l),
(665,0,l),
(760,0,l),
(760,95,l)
);
},
{
closed = 1;
nodes = (
(760,95,l),
(760,0,l),
(855,0,l),
(855,95,l)
);
},
{
closed = 1;
nodes = (
(570,190,l),
(570,95,l),
(665,95,l),
(665,190,l)
);
},
{
closed = 1;
nodes = (
(665,190,l),
(665,95,l),
(760,95,l),
(760,190,l)
);
},
{
closed = 1;
nodes = (
(760,190,l),
(760,95,l),
(855,95,l),
(855,190,l)
);
},
{
closed = 1;
nodes = (
(570,285,l),
(570,190,l),
(665,190,l),
(665,285,l)
);
},
{
closed = 1;
nodes = (
(665,285,l),
(665,190,l),
(760,190,l),
(760,285,l)
);
},
{
closed = 1;
nodes = (
(760,285,l),
(760,190,l),
(855,190,l),
(855,285,l)
);
},
{
closed = 1;
nodes = (
(570,380,l),
(570,285,l),
(665,285,l),
(665,380,l)
);
},
{
closed = 1;
nodes = (
(665,380,l),
(665,285,l),
(760,285,l),
(760,380,l)
);
},
{
closed = 1;
nodes = (
(760,380,l),
(760,285,l),
(855,285,l),
(855,380,l)
);
},
{
closed = 1;
nodes = (
(570,475,l),
(570,380,l),
(665,380,l),
(665,475,l)
);
},
{
closed = 1;
nodes = (
(665,475,l),
(665,380,l),
(760,380,l),
(760,475,l)
);
},
{
closed = 1;
nodes = (
(760,475,l),
(760,380,l),
(855,380,l),
(855,475,l)
);
},
{
closed = 1;
nodes = (
(570,570,l),
(570,475,l),
(665,475,l),
(665,570,l)
);
},
{
closed = 1;
nodes = (
(665,570,l),
(665,475,l),
(760,475,l),
(760,570,l)
);
},
{
closed = 1;
nodes = (
(760,570,l),
(760,475,l),
(855,475,l),
(855,570,l)
);
},
{
closed = 1;
nodes = (
(570,665,l),
(570,570,l),
(665,570,l),
(665,665,l)
);
},
{
closed = 1;
nodes = (
(665,665,l),
(665,570,l),
(760,570,l),
(760,665,l)
);
},
{
closed = 1;
nodes = (
(760,665,l),
(760,570,l),
(855,570,l),
(855,665,l)
);
},
{
closed = 1;
nodes = (
(570,760,l),
(570,665,l),
(665,665,l),
(665,760,l)
);
},
{
closed = 1;
nodes = (
(665,760,l),
(665,665,l),
(760,665,l),
(760,760,l)
);
},
{
closed = 1;
nodes = (
(760,760,l),
(760,665,l),
(855,665,l),
(855,760,l)
);
},
{
closed = 1;
nodes = (
(570,855,l),
(570,760,l),
(665,760,l),
(665,855,l)
);
},
{
closed = 1;
nodes = (
(665,855,l),
(665,760,l),
(760,760,l),
(760,855,l)
);
},
{
closed = 1;
nodes = (
(760,855,l),
(760,760,l),
(855,760,l),
(855,855,l)
);
},
{
closed = 1;
nodes = (
(570,950,l),
(570,855,l),
(665,855,l),
(665,950,l)
);
},
{
closed = 1;
nodes = (
(665,950,l),
(665,855,l),
(760,855,l),
(760,950,l)
);
},
{
closed = 1;
nodes = (
(760,950,l),
(760,855,l),
(855,855,l),
(855,950,l)
);
},
{
closed = 1;
nodes = (
(570,1045,l),
(570,950,l),
(665,950,l),
(665,1045,l)
);
},
{
closed = 1;
nodes = (
(665,1045,l),
(665,950,l),
(760,950,l),
(760,1045,l)
);
},
{
closed = 1;
nodes = (
(760,1045,l),
(760,950,l),
(855,950,l),
(855,1045,l)
);
},
{
closed = 1;
nodes = (
(570,1140,l),
(570,1045,l),
(665,1045,l),
(665,1140,l)
);
},
{
closed = 1;
nodes = (
(665,1140,l),
(665,1045,l),
(760,1045,l),
(760,1140,l)
);
},
{
closed = 1;
nodes = (
(760,1140,l),
(760,1045,l),
(855,1045,l),
(855,1140,l)
);
},
{
closed = 1;
nodes = (
(95,1235,l),
(95,1140,l),
(190,1140,l),
(190,1235,l)
);
},
{
closed = 1;
nodes = (
(570,1235,l),
(570,1140,l),
(665,1140,l),
(665,1235,l)
);
},
{
closed = 1;
nodes = (
(665,1235,l),
(665,1140,l),
(760,1140,l),
(760,1235,l)
);
},
{
closed = 1;
nodes = (
(760,1235,l),
(760,1140,l),
(855,1140,l),
(855,1235,l)
);
},
{
closed = 1;
nodes = (
(1235,1235,l),
(1235,1140,l),
(1330,1140,l),
(1330,1235,l)
);
},
{
closed = 1;
nodes = (
(95,1330,l),
(95,1235,l),
(190,1235,l),
(190,1330,l)
);
},
{
closed = 1;
nodes = (
(190,1330,l),
(190,1235,l),
(285,1235,l),
(285,1330,l)
);
},
{
closed = 1;
nodes = (
(285,1330,l),
(285,1235,l),
(475,1235,l),
(475,1330,l)
);
},
{
closed = 1;
nodes = (
(475,1330,l),
(475,1235,l),
(570,1235,l),
(570,1330,l)
);
},
{
closed = 1;
nodes = (
(570,1330,l),
(570,1235,l),
(665,1235,l),
(665,1330,l)
);
},
{
closed = 1;
nodes = (
(665,1330,l),
(665,1235,l),
(760,1235,l),
(760,1330,l)
);
},
{
closed = 1;
nodes = (
(760,1330,l),
(760,1235,l),
(855,1235,l),
(855,1330,l)
);
},
{
closed = 1;
nodes = (
(855,1330,l),
(855,1235,l),
(950,1235,l),
(950,1330,l)
);
},
{
closed = 1;
nodes = (
(950,1330,l),
(950,1235,l),
(1140,1235,l),
(1140,1330,l)
);
},
{
closed = 1;
nodes = (
(1140,1330,l),
(1140,1235,l),
(1235,1235,l),
(1235,1330,l)
);
},
{
closed = 1;
nodes = (
(1235,1330,l),
(1235,1235,l),
(1330,1235,l),
(1330,1330,l)
);
},
{
closed = 1;
nodes = (
(95,1425,l),
(95,1330,l),
(190,1330,l),
(190,1425,l)
);
},
{
closed = 1;
nodes = (
(190,1425,l),
(190,1330,l),
(285,1330,l),
(285,1425,l)
);
},
{
closed = 1;
nodes = (
(285,1425,l),
(285,1330,l),
(475,1330,l),
(475,1425,l)
);
},
{
closed = 1;
nodes = (
(475,1425,l),
(475,1330,l),
(570,1330,l),
(570,1425,l)
);
},
{
closed = 1;
nodes = (
(570,1425,l),
(570,1330,l),
(665,1330,l),
(665,1425,l)
);
},
{
closed = 1;
nodes = (
(665,1425,l),
(665,1330,l),
(760,1330,l),
(760,1425,l)
);
},
{
closed = 1;
nodes = (
(760,1425,l),
(760,1330,l),
(855,1330,l),
(855,1425,l)
);
},
{
closed = 1;
nodes = (
(855,1425,l),
(855,1330,l),
(950,1330,l),
(950,1425,l)
);
},
{
closed = 1;
nodes = (
(950,1425,l),
(950,1330,l),
(1140,1330,l),
(1140,1425,l)
);
},
{
closed = 1;
nodes = (
(1140,1425,l),
(1140,1330,l),
(1235,1330,l),
(1235,1425,l)
);
},
{
closed = 1;
nodes = (
(1235,1425,l),
(1235,1330,l),
(1330,1330,l),
(1330,1425,l)
);
},
{
closed = 1;
nodes = (
(190,1520,l),
(190,1425,l),
(285,1425,l),
(285,1520,l)
);
},
{
closed = 1;
nodes = (
(285,1520,l),
(285,1425,l),
(475,1425,l),
(475,1520,l)
);
},
{
closed = 1;
nodes = (
(475,1520,l),
(475,1425,l),
(570,1425,l),
(570,1520,l)
);
},
{
closed = 1;
nodes = (
(855,1520,l),
(855,1425,l),
(950,1425,l),
(950,1520,l)
);
},
{
closed = 1;
nodes = (
(950,1520,l),
(950,1425,l),
(1140,1425,l),
(1140,1520,l)
);
},
{
closed = 1;
nodes = (
(1140,1520,l),
(1140,1425,l),
(1235,1425,l),
(1235,1520,l)
);
}
);
width = 1425;
}
);
note = T;
unicode = 84;
}
{
glyphname = W;
layers = (
{
anchors = (
{
name = bottom;
pos = (1188,0);
},
{
name = top;
pos = (1188,1400);
}
);
layerId = m01;
shapes = (
{
closed = 1;
nodes = (
(570,95,l),
(570,0,l),
(665,0,l),
(665,95,l)
);
},
{
closed = 1;
nodes = (
(665,95,l),
(665,0,l),
(760,0,l),
(760,95,l)
);
},
{
closed = 1;
nodes = (
(760,95,l),
(760,0,l),
(855,0,l),
(855,95,l)
);
},
{
closed = 1;
nodes = (
(1425,95,l),
(1425,0,l),
(1520,0,l),
(1520,95,l)
);
},
{
closed = 1;
nodes = (
(1520,95,l),
(1520,0,l),
(1615,0,l),
(1615,95,l)
);
},
{
closed = 1;
nodes = (
(1615,95,l),
(1615,0,l),
(1710,0,l),
(1710,95,l)
);
},
{
closed = 1;
nodes = (
(475,190,l),
(475,95,l),
(570,95,l),
(570,190,l)
);
},
{
closed = 1;
nodes = (
(570,190,l),
(570,95,l),
(665,95,l),
(665,190,l)
);
},
{
closed = 1;
nodes = (
(665,190,l),
(665,95,l),
(760,95,l),
(760,190,l)
);
},
{
closed = 1;
nodes = (
(760,190,l),
(760,95,l),
(855,95,l),
(855,190,l)
);
},
{
closed = 1;
nodes = (
(1425,190,l),
(1425,95,l),
(1520,95,l),
(1520,190,l)
);
},
{
closed = 1;
nodes = (
(1520,190,l),
(1520,95,l),
(1615,95,l),
(1615,190,l)
);
},
{
closed = 1;
nodes = (
(1615,190,l),
(1615,95,l),
(1710,95,l),
(1710,190,l)
);
},
{
closed = 1;
nodes = (
(1710,190,l),
(1710,95,l),
(1805,95,l),
(1805,190,l)
);
},
{
closed = 1;
nodes = (
(475,285,l),
(475,190,l),
(570,190,l),
(570,285,l)
);
},
{
closed = 1;
nodes = (
(570,285,l),
(570,190,l),
(665,190,l),
(665,285,l)
);
},
{
closed = 1;
nodes = (
(665,285,l),
(665,190,l),
(760,190,l),
(760,285,l)
);
},
{
closed = 1;
nodes = (
(760,285,l),
(760,190,l),
(855,190,l),
(855,285,l)
);
},
{
closed = 1;
nodes = (
(1425,285,l),
(1425,190,l),
(1520,190,l),
(1520,285,l)
);
},
{
closed = 1;
nodes = (
(1520,285,l),
(1520,190,l),
(1615,190,l),
(1615,285,l)
);
},
{
closed = 1;
nodes = (
(1615,285,l),
(1615,190,l),
(1710,190,l),
(1710,285,l)
);
},
{
closed = 1;
nodes = (
(1710,285,l),
(1710,190,l),
(1805,190,l),
(1805,285,l)
);
},
{
closed = 1;
nodes = (
(475,380,l),
(475,285,l),
(570,285,l),
(570,380,l)
);
},
{
closed = 1;
nodes = (
(570,380,l),
(570,285,l),
(665,285,l),
(665,380,l)
);
},
{
closed = 1;
nodes = (
(665,380,l),
(665,285,l),
(760,285,l),
(760,380,l)
);
},
{
closed = 1;
nodes = (
(760,380,l),
(760,285,l),
(855,285,l),
(855,380,l)
);
},
{
closed = 1;
nodes = (
(855,380,l),
(855,285,l),
(950,285,l),
(950,380,l)
);
},
{
closed = 1;
nodes = (
(1330,380,l),
(1330,285,l),
(1425,285,l),
(1425,380,l)
);
},
{
closed = 1;
nodes = (
(1425,380,l),
(1425,285,l),
(1520,285,l),
(1520,380,l)
);
},
{
closed = 1;
nodes = (
(1520,380,l),
(1520,285,l),
(1615,285,l),
(1615,380,l)
);
},
{
closed = 1;
nodes = (
(1615,380,l),
(1615,285,l),
(1710,285,l),
(1710,380,l)
);
},
{
closed = 1;
nodes = (
(1710,380,l),
(1710,285,l),
(1805,285,l),
(1805,380,l)
);
},
{
closed = 1;
nodes = (
(380,475,l),
(380,380,l),
(475,380,l),
(475,475,l)
);
},
{
closed = 1;
nodes = (
(475,475,l),
(475,380,l),
(570,380,l),
(570,475,l)
);
},
{
closed = 1;
nodes = (
(570,475,l),
(570,380,l),
(665,380,l),
(665,475,l)
);
},
{
closed = 1;
nodes = (
(665,475,l),
(665,380,l),
(760,380,l),
(760,475,l)
);
},
{
closed = 1;
nodes = (
(760,475,l),
(760,380,l),
(855,380,l),
(855,475,l)
);
},
{
closed = 1;
nodes = (
(855,475,l),
(855,380,l),
(950,380,l),
(950,475,l)
);
},
{
closed = 1;
nodes = (
(1330,475,l),
(1330,380,l),
(1425,380,l),
(1425,475,l)
);
},
{
closed = 1;
nodes = (
(1425,475,l),
(1425,380,l),
(1520,380,l),
(1520,475,l)
);
},
{
closed = 1;
nodes = (
(1520,475,l),
(1520,380,l),
(1615,380,l),
(1615,475,l)
);
},
{
closed = 1;
nodes = (
(1615,475,l),
(1615,380,l),
(1710,380,l),
(1710,475,l)
);
},
{
closed = 1;
nodes = (
(1710,475,l),
(1710,380,l),
(1805,380,l),
(1805,475,l)
);
},
{
closed = 1;
nodes = (
(1805,475,l),
(1805,380,l),
(1900,380,l),
(1900,475,l)
);
},
{
closed = 1;
nodes = (
(380,570,l),
(380,475,l),
(475,475,l),
(475,570,l)
);
},
{
closed = 1;
nodes = (
(475,570,l),
(475,475,l),
(570,475,l),
(570,570,l)
);
},
{
closed = 1;
nodes = (
(570,570,l),
(570,475,l),
(665,475,l),
(665,570,l)
);
},
{
closed = 1;
nodes = (
(760,570,l),
(760,475,l),
(855,475,l),
(855,570,l)
);
},
{
closed = 1;
nodes = (
(855,570,l),
(855,475,l),
(950,475,l),
(950,570,l)
);
},
{
closed = 1;
nodes = (
(1330,570,l),
(1330,475,l),
(1425,475,l),
(1425,570,l)
);
},
{
closed = 1;
nodes = (
(1425,570,l),
(1425,475,l),
(1520,475,l),
(1520,570,l)
);
},
{
closed = 1;
nodes = (
(1615,570,l),
(1615,475,l),
(1710,475,l),
(1710,570,l)
);
},
{
closed = 1;
nodes = (
(1710,570,l),
(1710,475,l),
(1805,475,l),
(1805,570,l)
);
},
{
closed = 1;
nodes = (
(1805,570,l),
(1805,475,l),
(1900,475,l),
(1900,570,l)
);
},
{
closed = 1;
nodes = (
(380,665,l),
(380,570,l),
(475,570,l),
(475,665,l)
);
},
{
closed = 1;
nodes = (
(475,665,l),
(475,570,l),
(570,570,l),
(570,665,l)
);
},
{
closed = 1;
nodes = (
(760,665,l),
(760,570,l),
(855,570,l),
(855,665,l)
);
},
{
closed = 1;
nodes = (
(855,665,l),
(855,570,l),
(950,570,l),
(950,665,l)
);
},
{
closed = 1;
nodes = (
(950,665,l),
(950,570,l),
(1045,570,l),
(1045,665,l)
);
},
{
closed = 1;
nodes = (
(1235,665,l),
(1235,570,l),
(1330,570,l),
(1330,665,l)
);
},
{
closed = 1;
nodes = (
(1330,665,l),
(1330,570,l),
(1425,570,l),
(1425,665,l)
);
},
{
closed = 1;
nodes = (
(1425,665,l),
(1425,570,l),
(1520,570,l),
(1520,665,l)
);
},
{
closed = 1;
nodes = (
(1710,665,l),
(1710,570,l),
(1805,570,l),
(1805,665,l)
);
},
{
closed = 1;
nodes = (
(1805,665,l),
(1805,570,l),
(1900,570,l),
(1900,665,l)
);
},
{
closed = 1;
nodes = (
(285,760,l),
(285,665,l),
(380,665,l),
(380,760,l)
);
},
{
closed = 1;
nodes = (
(380,760,l),
(380,665,l),
(475,665,l),
(475,760,l)
);
},
{
closed = 1;
nodes = (
(475,760,l),
(475,665,l),
(570,665,l),
(570,760,l)
);
},
{
closed = 1;
nodes = (
(760,760,l),
(760,665,l),
(855,665,l),
(855,760,l)
);
},
{
closed = 1;
nodes = (
(855,760,l),
(855,665,l),
(950,665,l),
(950,760,l)
);
},
{
closed = 1;
nodes = (
(950,760,l),
(950,665,l),
(1045,665,l),
(1045,760,l)
);
},
{
closed = 1;
nodes = (
(1235,760,l),
(1235,665,l),
(1330,665,l),
(1330,760,l)
);
},
{
closed = 1;
nodes = (
(1330,760,l),
(1330,665,l),
(1425,665,l),
(1425,760,l)
);
},
{
closed = 1;
nodes = (
(1425,760,l),
(1425,665,l),
(1520,665,l),
(1520,760,l)
);
},
{
closed = 1;
nodes = (
(1710,760,l),
(1710,665,l),
(1805,665,l),
(1805,760,l)
);
},
{
closed = 1;
nodes = (
(1805,760,l),
(1805,665,l),
(1900,665,l),
(1900,760,l)
);
},
{
closed = 1;
nodes = (
(1900,760,l),
(1900,665,l),
(1995,665,l),
(1995,760,l)
);
},
{
closed = 1;
nodes = (
(285,855,l),
(285,760,l),
(380,760,l),
(380,855,l)
);
},
{
closed = 1;
nodes = (
(380,855,l),
(380,760,l),
(475,760,l),
(475,855,l)
);
},
{
closed = 1;
nodes = (
(475,855,l),
(475,760,l),
(570,760,l),
(570,855,l)
);
},
{
closed = 1;
nodes = (
(855,855,l),
(855,760,l),
(950,760,l),
(950,855,l)
);
},
{
closed = 1;
nodes = (
(950,855,l),
(950,760,l),
(1045,760,l),
(1045,855,l)
);
},
{
closed = 1;
nodes = (
(1235,855,l),
(1235,760,l),
(1330,760,l),
(1330,855,l)
);
},
{
closed = 1;
nodes = (
(1330,855,l),
(1330,760,l),
(1425,760,l),
(1425,855,l)
);
},
{
closed = 1;
nodes = (
(1710,855,l),
(1710,760,l),
(1805,760,l),
(1805,855,l)
);
},
{
closed = 1;
nodes = (
(1805,855,l),
(1805,760,l),
(1900,760,l),
(1900,855,l)
);
},
{
closed = 1;
nodes = (
(1900,855,l),
(1900,760,l),
(1995,760,l),
(1995,855,l)
);
},
{
closed = 1;
nodes = (
(190,950,l),
(190,855,l),
(285,855,l),
(285,950,l)
);
},
{
closed = 1;
nodes = (
(285,950,l),
(285,855,l),
(380,855,l),
(380,950,l)
);
},
{
closed = 1;
nodes = (
(380,950,l),
(380,855,l),
(475,855,l),
(475,950,l)
);
},
{
closed = 1;
nodes = (
(855,950,l),
(855,855,l),
(950,855,l),
(950,950,l)
);
},
{
closed = 1;
nodes = (
(950,950,l),
(950,855,l),
(1045,855,l),
(1045,950,l)
);
},
{
closed = 1;
nodes = (
(1045,950,l),
(1045,855,l),
(1140,855,l),
(1140,950,l)
);
},
{
closed = 1;
nodes = (
(1140,950,l),
(1140,855,l),
(1235,855,l),
(1235,950,l)
);
},
{
closed = 1;
nodes = (
(1235,950,l),
(1235,855,l),
(1330,855,l),
(1330,950,l)
);
},
{
closed = 1;
nodes = (
(1330,950,l),
(1330,855,l),
(1425,855,l),
(1425,950,l)
);
},
{
closed = 1;
nodes = (
(1805,950,l),
(1805,855,l),
(1900,855,l),
(1900,950,l)
);
},
{
closed = 1;
nodes = (
(1900,950,l),
(1900,855,l),
(1995,855,l),
(1995,950,l)
);
},
{
closed = 1;
nodes = (
(1995,950,l),
(1995,855,l),
(2090,855,l),
(2090,950,l)
);
},
{
closed = 1;
nodes = (
(190,1045,l),
(190,950,l),
(285,950,l),
(285,1045,l)
);
},
{
closed = 1;
nodes = (
(285,1045,l),
(285,950,l),
(380,950,l),
(380,1045,l)
);
},
{
closed = 1;
nodes = (
(380,1045,l),
(380,950,l),
(475,950,l),
(475,1045,l)
);
},
{
closed = 1;
nodes = (
(855,1045,l),
(855,950,l),
(950,950,l),
(950,1045,l)
);
},
{
closed = 1;
nodes = (
(950,1045,l),
(950,950,l),
(1045,950,l),
(1045,1045,l)
);
},
{
closed = 1;
nodes = (
(1045,1045,l),
(1045,950,l),
(1140,950,l),
(1140,1045,l)
);
},
{
closed = 1;
nodes = (
(1140,1045,l),
(1140,950,l),
(1235,950,l),
(1235,1045,l)
);
},
{
closed = 1;
nodes = (
(1235,1045,l),
(1235,950,l),
(1330,950,l),
(1330,1045,l)
);
},
{
closed = 1;
nodes = (
(1330,1045,l),
(1330,950,l),
(1425,950,l),
(1425,1045,l)
);
},
{
closed = 1;
nodes = (
(1805,1045,l),
(1805,950,l),
(1900,950,l),
(1900,1045,l)
);
},
{
closed = 1;
nodes = (
(1900,1045,l),
(1900,950,l),
(1995,950,l),
(1995,1045,l)
);
},
{
closed = 1;
nodes = (
(1995,1045,l),
(1995,950,l),
(2090,950,l),
(2090,1045,l)
);
},
{
closed = 1;
nodes = (
(190,1140,l),
(190,1045,l),
(285,1045,l),
(285,1140,l)
);
},
{
closed = 1;
nodes = (
(285,1140,l),
(285,1045,l),
(380,1045,l),
(380,1140,l)
);
},
{
closed = 1;
nodes = (
(380,1140,l),
(380,1045,l),
(475,1045,l),
(475,1140,l)
);
},
{
closed = 1;
nodes = (
(855,1140,l),
(855,1045,l),
(950,1045,l),
(950,1140,l)
);
},
{
closed = 1;
nodes = (
(950,1140,l),
(950,1045,l),
(1045,1045,l),
(1045,1140,l)
);
},
{
closed = 1;
nodes = (
(1045,1140,l),
(1045,1045,l),
(1140,1045,l),
(1140,1140,l)
);
},
{
closed = 1;
nodes = (
(1140,1140,l),
(1140,1045,l),
(1235,1045,l),
(1235,1140,l)
);
},
{
closed = 1;
nodes = (
(1235,1140,l),
(1235,1045,l),
(1330,1045,l),
(1330,1140,l)
);
},
{
closed = 1;
nodes = (
(1330,1140,l),
(1330,1045,l),
(1425,1045,l),
(1425,1140,l)
);
},
{
closed = 1;
nodes = (
(1805,1140,l),
(1805,1045,l),
(1900,1045,l),
(1900,1140,l)
);
},
{
closed = 1;
nodes = (
(1900,1140,l),
(1900,1045,l),
(1995,1045,l),
(1995,1140,l)
);
},
{
closed = 1;
nodes = (
(1995,1140,l),
(1995,1045,l),
(2090,1045,l),
(2090,1140,l)
);
},
{
closed = 1;
nodes = (
(95,1235,l),
(95,1140,l),
(190,1140,l),
(190,1235,l)
);
},
{
closed = 1;
nodes = (
(190,1235,l),
(190,1140,l),
(285,1140,l),
(285,1235,l)
);
},
{
closed = 1;
nodes = (
(285,1235,l),
(285,1140,l),
(380,1140,l),
(380,1235,l)
);
},
{
closed = 1;
nodes = (
(950,1235,l),
(950,1140,l),
(1045,1140,l),
(1045,1235,l)
);
},
{
closed = 1;
nodes = (
(1045,1235,l),
(1045,1140,l),
(1140,1140,l),
(1140,1235,l)
);
},
{
closed = 1;
nodes = (
(1140,1235,l),
(1140,1140,l),
(1235,1140,l),
(1235,1235,l)
);
},
{
closed = 1;
nodes = (
(1235,1235,l),
(1235,1140,l),
(1330,1140,l),
(1330,1235,l)
);
},
{
closed = 1;
nodes = (
(1900,1235,l),
(1900,1140,l),
(1995,1140,l),
(1995,1235,l)
);
},
{
closed = 1;
nodes = (
(1995,1235,l),
(1995,1140,l),
(2090,1140,l),
(2090,1235,l)
);
},
{
closed = 1;
nodes = (
(2090,1235,l),
(2090,1140,l),
(2185,1140,l),
(2185,1235,l)
);
},
{
closed = 1;
nodes = (
(95,1330,l),
(95,1235,l),
(190,1235,l),
(190,1330,l)
);
},
{
closed = 1;
nodes = (
(190,1330,l),
(190,1235,l),
(285,1235,l),
(285,1330,l)
);
},
{
closed = 1;
nodes = (
(285,1330,l),
(285,1235,l),
(380,1235,l),
(380,1330,l)
);
},
{
closed = 1;
nodes = (
(950,1330,l),
(950,1235,l),
(1045,1235,l),
(1045,1330,l)
);
},
{
closed = 1;
nodes = (
(1045,1330,l),
(1045,1235,l),
(1140,1235,l),
(1140,1330,l)
);
},
{
closed = 1;
nodes = (
(1140,1330,l),
(1140,1235,l),
(1235,1235,l),
(1235,1330,l)
);
},
{
closed = 1;
nodes = (
(1235,1330,l),
(1235,1235,l),
(1330,1235,l),
(1330,1330,l)
);
},
{
closed = 1;
nodes = (
(1900,1330,l),
(1900,1235,l),
(1995,1235,l),
(1995,1330,l)
);
},
{
closed = 1;
nodes = (
(1995,1330,l),
(1995,1235,l),
(2090,1235,l),
(2090,1330,l)
);
},
{
closed = 1;
nodes = (
(2090,1330,l),
(2090,1235,l),
(2185,1235,l),
(2185,1330,l)
);
},
{
closed = 1;
nodes = (
(95,1425,l),
(95,1330,l),
(190,1330,l),
(190,1425,l)
);
},
{
closed = 1;
nodes = (
(190,1425,l),
(190,1330,l),
(285,1330,l),
(285,1425,l)
);
},
{
closed = 1;
nodes = (
(285,1425,l),
(285,1330,l),
(380,1330,l),
(380,1425,l)
);
},
{
closed = 1;
nodes = (
(1045,1425,l),
(1045,1330,l),
(1140,1330,l),
(1140,1425,l)
);
},
{
closed = 1;
nodes = (
(1140,1425,l),
(1140,1330,l),
(1235,1330,l),
(1235,1425,l)
);
},
{
closed = 1;
nodes = (
(1900,1425,l),
(1900,1330,l),
(1995,1330,l),
(1995,1425,l)
);
},
{
closed = 1;
nodes = (
(1995,1425,l),
(1995,1330,l),
(2090,1330,l),
(2090,1425,l)
);
},
{
closed = 1;
nodes = (
(2090,1425,l),
(2090,1330,l),
(2185,1330,l),
(2185,1425,l)
);
},
{
closed = 1;
nodes = (
(0,1520,l),
(0,1425,l),
(95,1425,l),
(95,1520,l)
);
},
{
closed = 1;
nodes = (
(95,1520,l),
(95,1425,l),
(190,1425,l),
(190,1520,l)
);
},
{
closed = 1;
nodes = (
(190,1520,l),
(190,1425,l),
(285,1425,l),
(285,1520,l)
);
},
{
closed = 1;
nodes = (
(1995,1520,l),
(1995,1425,l),
(2090,1425,l),
(2090,1520,l)
);
},
{
closed = 1;
nodes = (
(2090,1520,l),
(2090,1425,l),
(2185,1425,l),
(2185,1520,l)
);
},
{
closed = 1;
nodes = (
(2185,1520,l),
(2185,1425,l),
(2280,1425,l),
(2280,1520,l)
);
}
);
width = 2375;
}
);
note = W;
unicode = 87;
}
{
glyphname = X;
layers = (
{
anchors = (
{
name = bottom;
pos = (760,0);
},
{
name = top;
pos = (760,1400);
}
);
layerId = m01;
shapes = (
{
closed = 1;
nodes = (
(95,95,l),
(95,0,l),
(190,0,l),
(190,95,l)
);
},
{
closed = 1;
nodes = (
(190,95,l),
(190,0,l),
(285,0,l),
(285,95,l)
);
},
{
closed = 1;
nodes = (
(285,95,l),
(285,0,l),
(380,0,l),
(380,95,l)
);
},
{
closed = 1;
nodes = (
(380,95,l),
(380,0,l),
(475,0,l),
(475,95,l)
);
},
{
closed = 1;
nodes = (
(1045,95,l),
(1045,0,l),
(1140,0,l),
(1140,95,l)
);
},
{
closed = 1;
nodes = (
(1140,95,l),
(1140,0,l),
(1235,0,l),
(1235,95,l)
);
},
{
closed = 1;
nodes = (
(1235,95,l),
(1235,0,l),
(1330,0,l),
(1330,95,l)
);
},
{
closed = 1;
nodes = (
(1330,95,l),
(1330,0,l),
(1425,0,l),
(1425,95,l)
);
},
{
closed = 1;
nodes = (
(190,190,l),
(190,95,l),
(285,95,l),
(285,190,l)
);
},
{
closed = 1;
nodes = (
(285,190,l),
(285,95,l),
(380,95,l),
(380,190,l)
);
},
{
closed = 1;
nodes = (
(380,190,l),
(380,95,l),
(475,95,l),
(475,190,l)
);
},
{
closed = 1;
nodes = (
(1045,190,l),
(1045,95,l),
(1140,95,l),
(1140,190,l)
);
},
{
closed = 1;
nodes = (
(1140,190,l),
(1140,95,l),
(1235,95,l),
(1235,190,l)
);
},
{
closed = 1;
nodes = (
(1235,190,l),
(1235,95,l),
(1330,95,l),
(1330,190,l)
);
},
{
closed = 1;
nodes = (
(285,285,l),
(285,190,l),
(380,190,l),
(380,285,l)
);
},
{
closed = 1;
nodes = (
(380,285,l),
(380,190,l),
(475,190,l),
(475,285,l)
);
},
{
closed = 1;
nodes = (
(475,285,l),
(475,190,l),
(570,190,l),
(570,285,l)
);
},
{
closed = 1;
nodes = (
(950,285,l),
(950,190,l),
(1045,190,l),
(1045,285,l)
);
},
{
closed = 1;
nodes = (
(1045,285,l),
(1045,190,l),
(1140,190,l),
(1140,285,l)
);
},
{
closed = 1;
nodes = (
(1140,285,l),
(1140,190,l),
(1235,190,l),
(1235,285,l)
);
},
{
closed = 1;
nodes = (
(285,380,l),
(285,285,l),
(380,285,l),
(380,380,l)
);
},
{
closed = 1;
nodes = (
(380,380,l),
(380,285,l),
(475,285,l),
(475,380,l)
);
},
{
closed = 1;
nodes = (
(475,380,l),
(475,285,l),
(570,285,l),
(570,380,l)
);
},
{
closed = 1;
nodes = (
(950,380,l),
(950,285,l),
(1045,285,l),
(1045,380,l)
);
},
{
closed = 1;
nodes = (
(1045,380,l),
(1045,285,l),
(1140,285,l),
(1140,380,l)
);
},
{
closed = 1;
nodes = (
(1140,380,l),
(1140,285,l),
(1235,285,l),
(1235,380,l)
);
},
{
closed = 1;
nodes = (
(380,475,l),
(380,380,l),
(475,380,l),
(475,475,l)
);
},
{
closed = 1;
nodes = (
(475,475,l),
(475,380,l),
(570,380,l),
(570,475,l)
);
},
{
closed = 1;
nodes = (
(570,475,l),
(570,380,l),
(665,380,l),
(665,475,l)
);
},
{
closed = 1;
nodes = (
(855,475,l),
(855,380,l),
(950,380,l),
(950,475,l)
);
},
{
closed = 1;
nodes = (
(950,475,l),
(950,380,l),
(1045,380,l),
(1045,475,l)
);
},
{
closed = 1;
nodes = (
(1045,475,l),
(1045,380,l),
(1140,380,l),
(1140,475,l)
);
},
{
closed = 1;
nodes = (
(475,570,l),
(475,475,l),
(570,475,l),
(570,570,l)
);
},
{
closed = 1;
nodes = (
(570,570,l),
(570,475,l),
(665,475,l),
(665,570,l)
);
},
{
closed = 1;
nodes = (
(665,570,l),
(665,475,l),
(760,475,l),
(760,570,l)
);
},
{
closed = 1;
nodes = (
(760,570,l),
(760,475,l),
(855,475,l),
(855,570,l)
);
},
{
closed = 1;
nodes = (
(855,570,l),
(855,475,l),
(950,475,l),
(950,570,l)
);
},
{
closed = 1;
nodes = (
(950,570,l),
(950,475,l),
(1045,475,l),
(1045,570,l)
);
},
{
closed = 1;
nodes = (
(475,665,l),
(475,570,l),
(570,570,l),
(570,665,l)
);
},
{
closed = 1;
nodes = (
(570,665,l),
(570,570,l),
(665,570,l),
(665,665,l)
);
},
{
closed = 1;
nodes = (
(665,665,l),
(665,570,l),
(760,570,l),
(760,665,l)
);
},
{
closed = 1;
nodes = (
(760,665,l),
(760,570,l),
(855,570,l),
(855,665,l)
);
},
{
closed = 1;
nodes = (
(855,665,l),
(855,570,l),
(950,570,l),
(950,665,l)
);
},
{
closed = 1;
nodes = (
(950,665,l),
(950,570,l),
(1045,570,l),
(1045,665,l)
);
},
{
closed = 1;
nodes = (
(570,760,l),
(570,665,l),
(665,665,l),
(665,760,l)
);
},
{
closed = 1;
nodes = (
(665,760,l),
(665,665,l),
(760,665,l),
(760,760,l)
);
},
{
closed = 1;
nodes = (
(760,760,l),
(760,665,l),
(855,665,l),
(855,760,l)
);
},
{
closed = 1;
nodes = (
(855,760,l),
(855,665,l),
(950,665,l),
(950,760,l)
);
},
{
closed = 1;
nodes = (
(570,855,l),
(570,760,l),
(665,760,l),
(665,855,l)
);
},
{
closed = 1;
nodes = (
(665,855,l),
(665,760,l),
(760,760,l),
(760,855,l)
);
},
{
closed = 1;
nodes = (
(760,855,l),
(760,760,l),
(855,760,l),
(855,855,l)
);
},
{
closed = 1;
nodes = (
(855,855,l),
(855,760,l),
(950,760,l),
(950,855,l)
);
},
{
closed = 1;
nodes = (
(475,950,l),
(475,855,l),
(570,855,l),
(570,950,l)
);
},
{
closed = 1;
nodes = (
(570,950,l),
(570,855,l),
(665,855,l),
(665,950,l)
);
},
{
closed = 1;
nodes = (
(665,950,l),
(665,855,l),
(760,855,l),
(760,950,l)
);
},
{
closed = 1;
nodes = (
(760,950,l),
(760,855,l),
(855,855,l),
(855,950,l)
);
},
{
closed = 1;
nodes = (
(855,950,l),
(855,855,l),
(950,855,l),
(950,950,l)
);
},
{
closed = 1;
nodes = (
(950,950,l),
(950,855,l),
(1045,855,l),
(1045,950,l)
);
},
{
closed = 1;
nodes = (
(475,1045,l),
(475,950,l),
(570,950,l),
(570,1045,l)
);
},
{
closed = 1;
nodes = (
(570,1045,l),
(570,950,l),
(665,950,l),
(665,1045,l)
);
},
{
closed = 1;
nodes = (
(665,1045,l),
(665,950,l),
(760,950,l),
(760,1045,l)
);
},
{
closed = 1;
nodes = (
(760,1045,l),
(760,950,l),
(855,950,l),
(855,1045,l)
);
},
{
closed = 1;
nodes = (
(855,1045,l),
(855,950,l),
(950,950,l),
(950,1045,l)
);
},
{
closed = 1;
nodes = (
(950,1045,l),
(950,950,l),
(1045,950,l),
(1045,1045,l)
);
},
{
closed = 1;
nodes = (
(380,1140,l),
(380,1045,l),
(475,1045,l),
(475,1140,l)
);
},
{
closed = 1;
nodes = (
(475,1140,l),
(475,1045,l),
(570,1045,l),
(570,1140,l)
);
},
{
closed = 1;
nodes = (
(570,1140,l),
(570,1045,l),
(665,1045,l),
(665,1140,l)
);
},
{
closed = 1;
nodes = (
(855,1140,l),
(855,1045,l),
(950,1045,l),
(950,1140,l)
);
},
{
closed = 1;
nodes = (
(950,1140,l),
(950,1045,l),
(1045,1045,l),
(1045,1140,l)
);
},
{
closed = 1;
nodes = (
(1045,1140,l),
(1045,1045,l),
(1140,1045,l),
(1140,1140,l)
);
},
{
closed = 1;
nodes = (
(285,1235,l),
(285,1140,l),
(380,1140,l),
(380,1235,l)
);
},
{
closed = 1;
nodes = (
(380,1235,l),
(380,1140,l),
(475,1140,l),
(475,1235,l)
);
},
{
closed = 1;
nodes = (
(475,1235,l),
(475,1140,l),
(570,1140,l),
(570,1235,l)
);
},
{
closed = 1;
nodes = (
(950,1235,l),
(950,1140,l),
(1045,1140,l),
(1045,1235,l)
);
},
{
closed = 1;
nodes = (
(1045,1235,l),
(1045,1140,l),
(1140,1140,l),
(1140,1235,l)
);
},
{
closed = 1;
nodes = (
(1140,1235,l),
(1140,1140,l),
(1235,1140,l),
(1235,1235,l)
);
},
{
closed = 1;
nodes = (
(285,1330,l),
(285,1235,l),
(380,1235,l),
(380,1330,l)
);
},
{
closed = 1;
nodes = (
(380,1330,l),
(380,1235,l),
(475,1235,l),
(475,1330,l)
);
},
{
closed = 1;
nodes = (
(475,1330,l),
(475,1235,l),
(570,1235,l),
(570,1330,l)
);
},
{
closed = 1;
nodes = (
(950,1330,l),
(950,1235,l),
(1045,1235,l),
(1045,1330,l)
);
},
{
closed = 1;
nodes = (
(1045,1330,l),
(1045,1235,l),
(1140,1235,l),
(1140,1330,l)
);
},
{
closed = 1;
nodes = (
(1140,1330,l),
(1140,1235,l),
(1235,1235,l),
(1235,1330,l)
);
},
{
closed = 1;
nodes = (
(190,1425,l),
(190,1330,l),
(285,1330,l),
(285,1425,l)
);
},
{
closed = 1;
nodes = (
(285,1425,l),
(285,1330,l),
(380,1330,l),
(380,1425,l)
);
},
{
closed = 1;
nodes = (
(380,1425,l),
(380,1330,l),
(475,1330,l),
(475,1425,l)
);
},
{
closed = 1;
nodes = (
(1045,1425,l),
(1045,1330,l),
(1140,1330,l),
(1140,1425,l)
);
},
{
closed = 1;
nodes = (
(1140,1425,l),
(1140,1330,l),
(1235,1330,l),
(1235,1425,l)
);
},
{
closed = 1;
nodes = (
(1235,1425,l),
(1235,1330,l),
(1330,1330,l),
(1330,1425,l)
);
},
{
closed = 1;
nodes = (
(95,1520,l),
(95,1425,l),
(190,1425,l),
(190,1520,l)
);
},
{
closed = 1;
nodes = (
(190,1520,l),
(190,1425,l),
(285,1425,l),
(285,1520,l)
);
},
{
closed = 1;
nodes = (
(285,1520,l),
(285,1425,l),
(380,1425,l),
(380,1520,l)
);
},
{
closed = 1;
nodes = (
(380,1520,l),
(380,1425,l),
(475,1425,l),
(475,1520,l)
);
},
{
closed = 1;
nodes = (
(1045,1520,l),
(1045,1425,l),
(1140,1425,l),
(1140,1520,l)
);
},
{
closed = 1;
nodes = (
(1140,1520,l),
(1140,1425,l),
(1235,1425,l),
(1235,1520,l)
);
},
{
closed = 1;
nodes = (
(1235,1520,l),
(1235,1425,l),
(1330,1425,l),
(1330,1520,l)
);
},
{
closed = 1;
nodes = (
(1330,1520,l),
(1330,1425,l),
(1425,1425,l),
(1425,1520,l)
);
}
);
width = 1520;
}
);
note = X;
unicode = 88;
}
{
glyphname = Y;
layers = (
{
anchors = (
{
name = bottom;
pos = (808,0);
},
{
name = top;
pos = (808,1400);
},
{
name = topleft;
pos = (20,1400);
}
);
layerId = m01;
shapes = (
{
closed = 1;
nodes = (
(665,0,l),
(665,-95,l),
(760,-95,l),
(760,0,l)
);
},
{
closed = 1;
nodes = (
(760,0,l),
(760,-95,l),
(855,-95,l),
(855,0,l)
);
},
{
closed = 1;
nodes = (
(855,0,l),
(855,-95,l),
(950,-95,l),
(950,0,l)
);
},
{
closed = 1;
nodes = (
(665,95,l),
(665,0,l),
(760,0,l),
(760,95,l)
);
},
{
closed = 1;
nodes = (
(760,95,l),
(760,0,l),
(855,0,l),
(855,95,l)
);
},
{
closed = 1;
nodes = (
(855,95,l),
(855,0,l),
(950,0,l),
(950,95,l)
);
},
{
closed = 1;
nodes = (
(665,190,l),
(665,95,l),
(760,95,l),
(760,190,l)
);
},
{
closed = 1;
nodes = (
(760,190,l),
(760,95,l),
(855,95,l),
(855,190,l)
);
},
{
closed = 1;
nodes = (
(855,190,l),
(855,95,l),
(950,95,l),
(950,190,l)
);
},
{
closed = 1;
nodes = (
(665,285,l),
(665,190,l),
(760,190,l),
(760,285,l)
);
},
{
closed = 1;
nodes = (
(760,285,l),
(760,190,l),
(855,190,l),
(855,285,l)
);
},
{
closed = 1;
nodes = (
(855,285,l),
(855,190,l),
(950,190,l),
(950,285,l)
);
},
{
closed = 1;
nodes = (
(665,380,l),
(665,285,l),
(760,285,l),
(760,380,l)
);
},
{
closed = 1;
nodes = (
(760,380,l),
(760,285,l),
(855,285,l),
(855,380,l)
);
},
{
closed = 1;
nodes = (
(855,380,l),
(855,285,l),
(950,285,l),
(950,380,l)
);
},
{
closed = 1;
nodes = (
(665,475,l),
(665,380,l),
(760,380,l),
(760,475,l)
);
},
{
closed = 1;
nodes = (
(760,475,l),
(760,380,l),
(855,380,l),
(855,475,l)
);
},
{
closed = 1;
nodes = (
(855,475,l),
(855,380,l),
(950,380,l),
(950,475,l)
);
},
{
closed = 1;
nodes = (
(665,570,l),
(665,475,l),
(760,475,l),
(760,570,l)
);
},
{
closed = 1;
nodes = (
(760,570,l),
(760,475,l),
(855,475,l),
(855,570,l)
);
},
{
closed = 1;
nodes = (
(855,570,l),
(855,475,l),
(950,475,l),
(950,570,l)
);
},
{
closed = 1;
nodes = (
(570,665,l),
(570,570,l),
(665,570,l),
(665,665,l)
);
},
{
closed = 1;
nodes = (
(665,665,l),
(665,570,l),
(760,570,l),
(760,665,l)
);
},
{
closed = 1;
nodes = (
(760,665,l),
(760,570,l),
(855,570,l),
(855,665,l)
);
},
{
closed = 1;
nodes = (
(855,665,l),
(855,570,l),
(950,570,l),
(950,665,l)
);
},
{
closed = 1;
nodes = (
(950,665,l),
(950,570,l),
(1045,570,l),
(1045,665,l)
);
},
{
closed = 1;
nodes = (
(570,760,l),
(570,665,l),
(665,665,l),
(665,760,l)
);
},
{
closed = 1;
nodes = (
(665,760,l),
(665,665,l),
(760,665,l),
(760,760,l)
);
},
{
closed = 1;
nodes = (
(760,760,l),
(760,665,l),
(855,665,l),
(855,760,l)
);
},
{
closed = 1;
nodes = (
(855,760,l),
(855,665,l),
(950,665,l),
(950,760,l)
);
},
{
closed = 1;
nodes = (
(950,760,l),
(950,665,l),
(1045,665,l),
(1045,760,l)
);
},
{
closed = 1;
nodes = (
(570,855,l),
(570,760,l),
(665,760,l),
(665,855,l)
);
},
{
closed = 1;
nodes = (
(665,855,l),
(665,760,l),
(760,760,l),
(760,855,l)
);
},
{
closed = 1;
nodes = (
(760,855,l),
(760,760,l),
(855,760,l),
(855,855,l)
);
},
{
closed = 1;
nodes = (
(855,855,l),
(855,760,l),
(950,760,l),
(950,855,l)
);
},
{
closed = 1;
nodes = (
(950,855,l),
(950,760,l),
(1045,760,l),
(1045,855,l)
);
},
{
closed = 1;
nodes = (
(475,950,l),
(475,855,l),
(570,855,l),
(570,950,l)
);
},
{
closed = 1;
nodes = (
(570,950,l),
(570,855,l),
(665,855,l),
(665,950,l)
);
},
{
closed = 1;
nodes = (
(665,950,l),
(665,855,l),
(760,855,l),
(760,950,l)
);
},
{
closed = 1;
nodes = (
(855,950,l),
(855,855,l),
(950,855,l),
(950,950,l)
);
},
{
closed = 1;
nodes = (
(950,950,l),
(950,855,l),
(1045,855,l),
(1045,950,l)
);
},
{
closed = 1;
nodes = (
(1045,950,l),
(1045,855,l),
(1140,855,l),
(1140,950,l)
);
},
{
closed = 1;
nodes = (
(380,1045,l),
(380,950,l),
(475,950,l),
(475,1045,l)
);
},
{
closed = 1;
nodes = (
(475,1045,l),
(475,950,l),
(570,950,l),
(570,1045,l)
);
},
{
closed = 1;
nodes = (
(570,1045,l),
(570,950,l),
(665,950,l),
(665,1045,l)
);
},
{
closed = 1;
nodes = (
(950,1045,l),
(950,950,l),
(1045,950,l),
(1045,1045,l)
);
},
{
closed = 1;
nodes = (
(1045,1045,l),
(1045,950,l),
(1140,950,l),
(1140,1045,l)
);
},
{
closed = 1;
nodes = (
(1140,1045,l),
(1140,950,l),
(1235,950,l),
(1235,1045,l)
);
},
{
closed = 1;
nodes = (
(380,1140,l),
(380,1045,l),
(475,1045,l),
(475,1140,l)
);
},
{
closed = 1;
nodes = (
(475,1140,l),
(475,1045,l),
(570,1045,l),
(570,1140,l)
);
},
{
closed = 1;
nodes = (
(570,1140,l),
(570,1045,l),
(665,1045,l),
(665,1140,l)
);
},
{
closed = 1;
nodes = (
(950,1140,l),
(950,1045,l),
(1045,1045,l),
(1045,1140,l)
);
},
{
closed = 1;
nodes = (
(1045,1140,l),
(1045,1045,l),
(1140,1045,l),
(1140,1140,l)
);
},
{
closed = 1;
nodes = (
(1140,1140,l),
(1140,1045,l),
(1235,1045,l),
(1235,1140,l)
);
},
{
closed = 1;
nodes = (
(285,1235,l),
(285,1140,l),
(380,1140,l),
(380,1235,l)
);
},
{
closed = 1;
nodes = (
(380,1235,l),
(380,1140,l),
(475,1140,l),
(475,1235,l)
);
},
{
closed = 1;
nodes = (
(475,1235,l),
(475,1140,l),
(570,1140,l),
(570,1235,l)
);
},
{
closed = 1;
nodes = (
(1045,1235,l),
(1045,1140,l),
(1140,1140,l),
(1140,1235,l)
);
},
{
closed = 1;
nodes = (
(1140,1235,l),
(1140,1140,l),
(1235,1140,l),
(1235,1235,l)
);
},
{
closed = 1;
nodes = (
(1235,1235,l),
(1235,1140,l),
(1330,1140,l),
(1330,1235,l)
);
},
{
closed = 1;
nodes = (
(285,1330,l),
(285,1235,l),
(380,1235,l),
(380,1330,l)
);
},
{
closed = 1;
nodes = (
(380,1330,l),
(380,1235,l),
(475,1235,l),
(475,1330,l)
);
},
{
closed = 1;
nodes = (
(475,1330,l),
(475,1235,l),
(570,1235,l),
(570,1330,l)
);
},
{
closed = 1;
nodes = (
(1045,1330,l),
(1045,1235,l),
(1140,1235,l),
(1140,1330,l)
);
},
{
closed = 1;
nodes = (
(1140,1330,l),
(1140,1235,l),
(1235,1235,l),
(1235,1330,l)
);
},
{
closed = 1;
nodes = (
(1235,1330,l),
(1235,1235,l),
(1330,1235,l),
(1330,1330,l)
);
},
{
closed = 1;
nodes = (
(190,1425,l),
(190,1330,l),
(285,1330,l),
(285,1425,l)
);
},
{
closed = 1;
nodes = (
(285,1425,l),
(285,1330,l),
(380,1330,l),
(380,1425,l)
);
},
{
closed = 1;
nodes = (
(380,1425,l),
(380,1330,l),
(475,1330,l),
(475,1425,l)
);
},
{
closed = 1;
nodes = (
(1140,1425,l),
(1140,1330,l),
(1235,1330,l),
(1235,1425,l)
);
},
{
closed = 1;
nodes = (
(1235,1425,l),
(1235,1330,l),
(1330,1330,l),
(1330,1425,l)
);
},
{
closed = 1;
nodes = (
(1330,1425,l),
(1330,1330,l),
(1425,1330,l),
(1425,1425,l)
);
},
{
closed = 1;
nodes = (
(95,1520,l),
(95,1425,l),
(190,1425,l),
(190,1520,l)
);
},
{
closed = 1;
nodes = (
(190,1520,l),
(190,1425,l),
(285,1425,l),
(285,1520,l)
);
},
{
closed = 1;
nodes = (
(285,1520,l),
(285,1425,l),
(380,1425,l),
(380,1520,l)
);
},
{
closed = 1;
nodes = (
(1235,1520,l),
(1235,1425,l),
(1330,1425,l),
(1330,1520,l)
);
},
{
closed = 1;
nodes = (
(1330,1520,l),
(1330,1425,l),
(1425,1425,l),
(1425,1520,l)
);
},
{
closed = 1;
nodes = (
(1425,1520,l),
(1425,1425,l),
(1520,1425,l),
(1520,1520,l)
);
}
);
width = 1615;
}
);
note = Y;
unicode = 89;
}
{
glyphname = Z;
layers = (
{
anchors = (
{
name = bottom;
pos = (665,0);
},
{
name = center;
pos = (665,700);
},
{
name = top;
pos = (665,1400);
}
);
layerId = m01;
shapes = (
{
closed = 1;
nodes = (
(95,95,l),
(95,0,l),
(190,0,l),
(190,95,l)
);
},
{
closed = 1;
nodes = (
(190,95,l),
(190,0,l),
(285,0,l),
(285,95,l)
);
},
{
closed = 1;
nodes = (
(285,95,l),
(285,0,l),
(380,0,l),
(380,95,l)
);
},
{
closed = 1;
nodes = (
(380,95,l),
(380,0,l),
(475,0,l),
(475,95,l)
);
},
{
closed = 1;
nodes = (
(475,95,l),
(475,0,l),
(570,0,l),
(570,95,l)
);
},
{
closed = 1;
nodes = (
(570,95,l),
(570,0,l),
(665,0,l),
(665,95,l)
);
},
{
closed = 1;
nodes = (
(665,95,l),
(665,0,l),
(760,0,l),
(760,95,l)
);
},
{
closed = 1;
nodes = (
(760,95,l),
(760,0,l),
(855,0,l),
(855,95,l)
);
},
{
closed = 1;
nodes = (
(855,95,l),
(855,0,l),
(950,0,l),
(950,95,l)
);
},
{
closed = 1;
nodes = (
(950,95,l),
(950,0,l),
(1045,0,l),
(1045,95,l)
);
},
{
closed = 1;
nodes = (
(1045,95,l),
(1045,0,l),
(1140,0,l),
(1140,95,l)
);
},
{
closed = 1;
nodes = (
(1140,95,l),
(1140,0,l),
(1235,0,l),
(1235,95,l)
);
},
{
closed = 1;
nodes = (
(95,190,l),
(95,95,l),
(190,95,l),
(190,190,l)
);
},
{
closed = 1;
nodes = (
(190,190,l),
(190,95,l),
(285,95,l),
(285,190,l)
);
},
{
closed = 1;
nodes = (
(285,190,l),
(285,95,l),
(380,95,l),
(380,190,l)
);
},
{
closed = 1;
nodes = (
(380,190,l),
(380,95,l),
(475,95,l),
(475,190,l)
);
},
{
closed = 1;
nodes = (
(475,190,l),
(475,95,l),
(570,95,l),
(570,190,l)
);
},
{
closed = 1;
nodes = (
(570,190,l),
(570,95,l),
(665,95,l),
(665,190,l)
);
},
{
closed = 1;
nodes = (
(665,190,l),
(665,95,l),
(760,95,l),
(760,190,l)
);
},
{
closed = 1;
nodes = (
(760,190,l),
(760,95,l),
(855,95,l),
(855,190,l)
);
},
{
closed = 1;
nodes = (
(855,190,l),
(855,95,l),
(950,95,l),
(950,190,l)
);
},
{
closed = 1;
nodes = (
(950,190,l),
(950,95,l),
(1045,95,l),
(1045,190,l)
);
},
{
closed = 1;
nodes = (
(1045,190,l),
(1045,95,l),
(1140,95,l),
(1140,190,l)
);
},
{
closed = 1;
nodes = (
(1140,190,l),
(1140,95,l),
(1235,95,l),
(1235,190,l)
);
},
{
closed = 1;
nodes = (
(95,285,l),
(95,190,l),
(190,190,l),
(190,285,l)
);
},
{
closed = 1;
nodes = (
(190,285,l),
(190,190,l),
(285,190,l),
(285,285,l)
);
},
{
closed = 1;
nodes = (
(285,285,l),
(285,190,l),
(380,190,l),
(380,285,l)
);
},
{
closed = 1;
nodes = (
(380,285,l),
(380,190,l),
(475,190,l),
(475,285,l)
);
},
{
closed = 1;
nodes = (
(190,380,l),
(190,285,l),
(285,285,l),
(285,380,l)
);
},
{
closed = 1;
nodes = (
(285,380,l),
(285,285,l),
(380,285,l),
(380,380,l)
);
},
{
closed = 1;
nodes = (
(380,380,l),
(380,285,l),
(475,285,l),
(475,380,l)
);
},
{
closed = 1;
nodes = (
(285,475,l),
(285,380,l),
(380,380,l),
(380,475,l)
);
},
{
closed = 1;
nodes = (
(380,475,l),
(380,380,l),
(475,380,l),
(475,475,l)
);
},
{
closed = 1;
nodes = (
(475,475,l),
(475,380,l),
(570,380,l),
(570,475,l)
);
},
{
closed = 1;
nodes = (
(380,570,l),
(380,475,l),
(475,475,l),
(475,570,l)
);
},
{
closed = 1;
nodes = (
(475,570,l),
(475,475,l),
(570,475,l),
(570,570,l)
);
},
{
closed = 1;
nodes = (
(570,570,l),
(570,475,l),
(665,475,l),
(665,570,l)
);
},
{
closed = 1;
nodes = (
(380,665,l),
(380,570,l),
(475,570,l),
(475,665,l)
);
},
{
closed = 1;
nodes = (
(475,665,l),
(475,570,l),
(570,570,l),
(570,665,l)
);
},
{
closed = 1;
nodes = (
(570,665,l),
(570,570,l),
(665,570,l),
(665,665,l)
);
},
{
closed = 1;
nodes = (
(665,665,l),
(665,570,l),
(760,570,l),
(760,665,l)
);
},
{
closed = 1;
nodes = (
(475,760,l),
(475,665,l),
(570,665,l),
(570,760,l)
);
},
{
closed = 1;
nodes = (
(570,760,l),
(570,665,l),
(665,665,l),
(665,760,l)
);
},
{
closed = 1;
nodes = (
(665,760,l),
(665,665,l),
(760,665,l),
(760,760,l)
);
},
{
closed = 1;
nodes = (
(570,855,l),
(570,760,l),
(665,760,l),
(665,855,l)
);
},
{
closed = 1;
nodes = (
(665,855,l),
(665,760,l),
(760,760,l),
(760,855,l)
);
},
{
closed = 1;
nodes = (
(760,855,l),
(760,760,l),
(855,760,l),
(855,855,l)
);
},
{
closed = 1;
nodes = (
(570,950,l),
(570,855,l),
(665,855,l),
(665,950,l)
);
},
{
closed = 1;
nodes = (
(665,950,l),
(665,855,l),
(760,855,l),
(760,950,l)
);
},
{
closed = 1;
nodes = (
(760,950,l),
(760,855,l),
(855,855,l),
(855,950,l)
);
},
{
closed = 1;
nodes = (
(855,950,l),
(855,855,l),
(950,855,l),
(950,950,l)
);
},
{
closed = 1;
nodes = (
(665,1045,l),
(665,950,l),
(760,950,l),
(760,1045,l)
);
},
{
closed = 1;
nodes = (
(760,1045,l),
(760,950,l),
(855,950,l),
(855,1045,l)
);
},
{
closed = 1;
nodes = (
(855,1045,l),
(855,950,l),
(950,950,l),
(950,1045,l)
);
},
{
closed = 1;
nodes = (
(950,1045,l),
(950,950,l),
(1045,950,l),
(1045,1045,l)
);
},
{
closed = 1;
nodes = (
(760,1140,l),
(760,1045,l),
(855,1045,l),
(855,1140,l)
);
},
{
closed = 1;
nodes = (
(855,1140,l),
(855,1045,l),
(950,1045,l),
(950,1140,l)
);
},
{
closed = 1;
nodes = (
(950,1140,l),
(950,1045,l),
(1045,1045,l),
(1045,1140,l)
);
},
{
closed = 1;
nodes = (
(855,1235,l),
(855,1140,l),
(950,1140,l),
(950,1235,l)
);
},
{
closed = 1;
nodes = (
(950,1235,l),
(950,1140,l),
(1045,1140,l),
(1045,1235,l)
);
},
{
closed = 1;
nodes = (
(1045,1235,l),
(1045,1140,l),
(1140,1140,l),
(1140,1235,l)
);
},
{
closed = 1;
nodes = (
(855,1330,l),
(855,1235,l),
(950,1235,l),
(950,1330,l)
);
},
{
closed = 1;
nodes = (
(950,1330,l),
(950,1235,l),
(1045,1235,l),
(1045,1330,l)
);
},
{
closed = 1;
nodes = (
(1045,1330,l),
(1045,1235,l),
(1140,1235,l),
(1140,1330,l)
);
},
{
closed = 1;
nodes = (
(1140,1330,l),
(1140,1235,l),
(1235,1235,l),
(1235,1330,l)
);
},
{
closed = 1;
nodes = (
(95,1425,l),
(95,1330,l),
(190,1330,l),
(190,1425,l)
);
},
{
closed = 1;
nodes = (
(190,1425,l),
(190,1330,l),
(285,1330,l),
(285,1425,l)
);
},
{
closed = 1;
nodes = (
(285,1425,l),
(285,1330,l),
(380,1330,l),
(380,1425,l)
);
},
{
closed = 1;
nodes = (
(380,1425,l),
(380,1330,l),
(475,1330,l),
(475,1425,l)
);
},
{
closed = 1;
nodes = (
(475,1425,l),
(475,1330,l),
(570,1330,l),
(570,1425,l)
);
},
{
closed = 1;
nodes = (
(570,1425,l),
(570,1330,l),
(665,1330,l),
(665,1425,l)
);
},
{
closed = 1;
nodes = (
(665,1425,l),
(665,1330,l),
(760,1330,l),
(760,1425,l)
);
},
{
closed = 1;
nodes = (
(760,1425,l),
(760,1330,l),
(855,1330,l),
(855,1425,l)
);
},
{
closed = 1;
nodes = (
(855,1425,l),
(855,1330,l),
(950,1330,l),
(950,1425,l)
);
},
{
closed = 1;
nodes = (
(950,1425,l),
(950,1330,l),
(1045,1330,l),
(1045,1425,l)
);
},
{
closed = 1;
nodes = (
(1045,1425,l),
(1045,1330,l),
(1140,1330,l),
(1140,1425,l)
);
},
{
closed = 1;
nodes = (
(1140,1425,l),
(1140,1330,l),
(1235,1330,l),
(1235,1425,l)
);
},
{
closed = 1;
nodes = (
(95,1520,l),
(95,1425,l),
(190,1425,l),
(190,1520,l)
);
},
{
closed = 1;
nodes = (
(190,1520,l),
(190,1425,l),
(285,1425,l),
(285,1520,l)
);
},
{
closed = 1;
nodes = (
(285,1520,l),
(285,1425,l),
(380,1425,l),
(380,1520,l)
);
},
{
closed = 1;
nodes = (
(380,1520,l),
(380,1425,l),
(475,1425,l),
(475,1520,l)
);
},
{
closed = 1;
nodes = (
(475,1520,l),
(475,1425,l),
(570,1425,l),
(570,1520,l)
);
},
{
closed = 1;
nodes = (
(570,1520,l),
(570,1425,l),
(665,1425,l),
(665,1520,l)
);
},
{
closed = 1;
nodes = (
(665,1520,l),
(665,1425,l),
(760,1425,l),
(760,1520,l)
);
},
{
closed = 1;
nodes = (
(760,1520,l),
(760,1425,l),
(855,1425,l),
(855,1520,l)
);
},
{
closed = 1;
nodes = (
(855,1520,l),
(855,1425,l),
(950,1425,l),
(950,1520,l)
);
},
{
closed = 1;
nodes = (
(950,1520,l),
(950,1425,l),
(1045,1425,l),
(1045,1520,l)
);
},
{
closed = 1;
nodes = (
(1045,1520,l),
(1045,1425,l),
(1140,1425,l),
(1140,1520,l)
);
},
{
closed = 1;
nodes = (
(1140,1520,l),
(1140,1425,l),
(1235,1425,l),
(1235,1520,l)
);
}
);
width = 1330;
}
);
note = Z;
unicode = 90;
}
{
glyphname = backslash;
layers = (
{
layerId = m01;
shapes = (
{
closed = 1;
nodes = (
(190,95,l),
(190,0,l),
(285,0,l),
(285,95,l)
);
},
{
closed = 1;
nodes = (
(285,95,l),
(285,0,l),
(380,0,l),
(380,95,l)
);
},
{
closed = 1;
nodes = (
(665,95,l),
(665,0,l),
(760,0,l),
(760,95,l)
);
},
{
closed = 1;
nodes = (
(760,95,l),
(760,0,l),
(855,0,l),
(855,95,l)
);
},
{
closed = 1;
nodes = (
(190,190,l),
(190,95,l),
(285,95,l),
(285,190,l)
);
},
{
closed = 1;
nodes = (
(285,190,l),
(285,95,l),
(380,95,l),
(380,190,l)
);
},
{
closed = 1;
nodes = (
(665,190,l),
(665,95,l),
(760,95,l),
(760,190,l)
);
},
{
closed = 1;
nodes = (
(760,190,l),
(760,95,l),
(855,95,l),
(855,190,l)
);
},
{
closed = 1;
nodes = (
(190,285,l),
(190,190,l),
(285,190,l),
(285,285,l)
);
},
{
closed = 1;
nodes = (
(285,285,l),
(285,190,l),
(380,190,l),
(380,285,l)
);
},
{
closed = 1;
nodes = (
(665,285,l),
(665,190,l),
(760,190,l),
(760,285,l)
);
},
{
closed = 1;
nodes = (
(760,285,l),
(760,190,l),
(855,190,l),
(855,285,l)
);
},
{
closed = 1;
nodes = (
(190,380,l),
(190,285,l),
(285,285,l),
(285,380,l)
);
},
{
closed = 1;
nodes = (
(285,380,l),
(285,285,l),
(380,285,l),
(380,380,l)
);
},
{
closed = 1;
nodes = (
(665,380,l),
(665,285,l),
(760,285,l),
(760,380,l)
);
},
{
closed = 1;
nodes = (
(760,380,l),
(760,285,l),
(855,285,l),
(855,380,l)
);
},
{
closed = 1;
nodes = (
(190,475,l),
(190,380,l),
(285,380,l),
(285,475,l)
);
},
{
closed = 1;
nodes = (
(285,475,l),
(285,380,l),
(380,380,l),
(380,475,l)
);
},
{
closed = 1;
nodes = (
(665,475,l),
(665,380,l),
(760,380,l),
(760,475,l)
);
},
{
closed = 1;
nodes = (
(760,475,l),
(760,380,l),
(855,380,l),
(855,475,l)
);
},
{
closed = 1;
nodes = (
(0,570,l),
(0,475,l),
(95,475,l),
(95,570,l)
);
},
{
closed = 1;
nodes = (
(95,570,l),
(95,475,l),
(190,475,l),
(190,570,l)
);
},
{
closed = 1;
nodes = (
(190,570,l),
(190,475,l),
(285,475,l),
(285,570,l)
);
},
{
closed = 1;
nodes = (
(285,570,l),
(285,475,l),
(380,475,l),
(380,570,l)
);
},
{
closed = 1;
nodes = (
(380,570,l),
(380,475,l),
(475,475,l),
(475,570,l)
);
},
{
closed = 1;
nodes = (
(475,570,l),
(475,475,l),
(570,475,l),
(570,570,l)
);
},
{
closed = 1;
nodes = (
(570,570,l),
(570,475,l),
(665,475,l),
(665,570,l)
);
},
{
closed = 1;
nodes = (
(665,570,l),
(665,475,l),
(760,475,l),
(760,570,l)
);
},
{
closed = 1;
nodes = (
(760,570,l),
(760,475,l),
(855,475,l),
(855,570,l)
);
},
{
closed = 1;
nodes = (
(855,570,l),
(855,475,l),
(950,475,l),
(950,570,l)
);
},
{
closed = 1;
nodes = (
(950,570,l),
(950,475,l),
(1045,475,l),
(1045,570,l)
);
},
{
closed = 1;
nodes = (
(1045,570,l),
(1045,475,l),
(1140,475,l),
(1140,570,l)
);
},
{
closed = 1;
nodes = (
(0,665,l),
(0,570,l),
(95,570,l),
(95,665,l)
);
},
{
closed = 1;
nodes = (
(95,665,l),
(95,570,l),
(190,570,l),
(190,665,l)
);
},
{
closed = 1;
nodes = (
(190,665,l),
(190,570,l),
(285,570,l),
(285,665,l)
);
},
{
closed = 1;
nodes = (
(285,665,l),
(285,570,l),
(380,570,l),
(380,665,l)
);
},
{
closed = 1;
nodes = (
(380,665,l),
(380,570,l),
(475,570,l),
(475,665,l)
);
},
{
closed = 1;
nodes = (
(475,665,l),
(475,570,l),
(570,570,l),
(570,665,l)
);
},
{
closed = 1;
nodes = (
(570,665,l),
(570,570,l),
(665,570,l),
(665,665,l)
);
},
{
closed = 1;
nodes = (
(665,665,l),
(665,570,l),
(760,570,l),
(760,665,l)
);
},
{
closed = 1;
nodes = (
(760,665,l),
(760,570,l),
(855,570,l),
(855,665,l)
);
},
{
closed = 1;
nodes = (
(855,665,l),
(855,570,l),
(950,570,l),
(950,665,l)
);
},
{
closed = 1;
nodes = (
(950,665,l),
(950,570,l),
(1045,570,l),
(1045,665,l)
);
},
{
closed = 1;
nodes = (
(1045,665,l),
(1045,570,l),
(1140,570,l),
(1140,665,l)
);
},
{
closed = 1;
nodes = (
(285,760,l),
(285,665,l),
(380,665,l),
(380,760,l)
);
},
{
closed = 1;
nodes = (
(380,760,l),
(380,665,l),
(475,665,l),
(475,760,l)
);
},
{
closed = 1;
nodes = (
(760,760,l),
(760,665,l),
(855,665,l),
(855,760,l)
);
},
{
closed = 1;
nodes = (
(855,760,l),
(855,665,l),
(950,665,l),
(950,760,l)
);
},
{
closed = 1;
nodes = (
(285,855,l),
(285,760,l),
(380,760,l),
(380,855,l)
);
},
{
closed = 1;
nodes = (
(380,855,l),
(380,760,l),
(475,760,l),
(475,855,l)
);
},
{
closed = 1;
nodes = (
(760,855,l),
(760,760,l),
(855,760,l),
(855,855,l)
);
},
{
closed = 1;
nodes = (
(855,855,l),
(855,760,l),
(950,760,l),
(950,855,l)
);
},
{
closed = 1;
nodes = (
(95,950,l),
(95,855,l),
(190,855,l),
(190,950,l)
);
},
{
closed = 1;
nodes = (
(190,950,l),
(190,855,l),
(285,855,l),
(285,950,l)
);
},
{
closed = 1;
nodes = (
(285,950,l),
(285,855,l),
(380,855,l),
(380,950,l)
);
},
{
closed = 1;
nodes = (
(380,950,l),
(380,855,l),
(475,855,l),
(475,950,l)
);
},
{
closed = 1;
nodes = (
(475,950,l),
(475,855,l),
(570,855,l),
(570,950,l)
);
},
{
closed = 1;
nodes = (
(570,950,l),
(570,855,l),
(665,855,l),
(665,950,l)
);
},
{
closed = 1;
nodes = (
(665,950,l),
(665,855,l),
(760,855,l),
(760,950,l)
);
},
{
closed = 1;
nodes = (
(760,950,l),
(760,855,l),
(855,855,l),
(855,950,l)
);
},
{
closed = 1;
nodes = (
(855,950,l),
(855,855,l),
(950,855,l),
(950,950,l)
);
},
{
closed = 1;
nodes = (
(950,950,l),
(950,855,l),
(1045,855,l),
(1045,950,l)
);
},
{
closed = 1;
nodes = (
(1045,950,l),
(1045,855,l),
(1140,855,l),
(1140,950,l)
);
},
{
closed = 1;
nodes = (
(1140,950,l),
(1140,855,l),
(1235,855,l),
(1235,950,l)
);
},
{
closed = 1;
nodes = (
(95,1045,l),
(95,950,l),
(190,950,l),
(190,1045,l)
);
},
{
closed = 1;
nodes = (
(190,1045,l),
(190,950,l),
(285,950,l),
(285,1045,l)
);
},
{
closed = 1;
nodes = (
(285,1045,l),
(285,950,l),
(380,950,l),
(380,1045,l)
);
},
{
closed = 1;
nodes = (
(380,1045,l),
(380,950,l),
(475,950,l),
(475,1045,l)
);
},
{
closed = 1;
nodes = (
(475,1045,l),
(475,950,l),
(570,950,l),
(570,1045,l)
);
},
{
closed = 1;
nodes = (
(570,1045,l),
(570,950,l),
(665,950,l),
(665,1045,l)
);
},
{
closed = 1;
nodes = (
(665,1045,l),
(665,950,l),
(760,950,l),
(760,1045,l)
);
},
{
closed = 1;
nodes = (
(760,1045,l),
(760,950,l),
(855,950,l),
(855,1045,l)
);
},
{
closed = 1;
nodes = (
(855,1045,l),
(855,950,l),
(950,950,l),
(950,1045,l)
);
},
{
closed = 1;
nodes = (
(950,1045,l),
(950,950,l),
(1045,950,l),
(1045,1045,l)
);
},
{
closed = 1;
nodes = (
(1045,1045,l),
(1045,950,l),
(1140,950,l),
(1140,1045,l)
);
},
{
closed = 1;
nodes = (
(1140,1045,l),
(1140,950,l),
(1235,950,l),
(1235,1045,l)
);
},
{
closed = 1;
nodes = (
(380,1140,l),
(380,1045,l),
(475,1045,l),
(475,1140,l)
);
},
{
closed = 1;
nodes = (
(475,1140,l),
(475,1045,l),
(570,1045,l),
(570,1140,l)
);
},
{
closed = 1;
nodes = (
(855,1140,l),
(855,1045,l),
(950,1045,l),
(950,1140,l)
);
},
{
closed = 1;
nodes = (
(950,1140,l),
(950,1045,l),
(1045,1045,l),
(1045,1140,l)
);
},
{
closed = 1;
nodes = (
(380,1235,l),
(380,1140,l),
(475,1140,l),
(475,1235,l)
);
},
{
closed = 1;
nodes = (
(475,1235,l),
(475,1140,l),
(570,1140,l),
(570,1235,l)
);
},
{
closed = 1;
nodes = (
(855,1235,l),
(855,1140,l),
(950,1140,l),
(950,1235,l)
);
},
{
closed = 1;
nodes = (
(950,1235,l),
(950,1140,l),
(1045,1140,l),
(1045,1235,l)
);
},
{
closed = 1;
nodes = (
(380,1330,l),
(380,1235,l),
(475,1235,l),
(475,1330,l)
);
},
{
closed = 1;
nodes = (
(475,1330,l),
(475,1235,l),
(570,1235,l),
(570,1330,l)
);
},
{
closed = 1;
nodes = (
(855,1330,l),
(855,1235,l),
(950,1235,l),
(950,1330,l)
);
},
{
closed = 1;
nodes = (
(950,1330,l),
(950,1235,l),
(1045,1235,l),
(1045,1330,l)
);
},
{
closed = 1;
nodes = (
(380,1425,l),
(380,1330,l),
(475,1330,l),
(475,1425,l)
);
},
{
closed = 1;
nodes = (
(475,1425,l),
(475,1330,l),
(570,1330,l),
(570,1425,l)
);
},
{
closed = 1;
nodes = (
(855,1425,l),
(855,1330,l),
(950,1330,l),
(950,1425,l)
);
},
{
closed = 1;
nodes = (
(950,1425,l),
(950,1330,l),
(1045,1330,l),
(1045,1425,l)
);
},
{
closed = 1;
nodes = (
(380,1520,l),
(380,1425,l),
(475,1425,l),
(475,1520,l)
);
},
{
closed = 1;
nodes = (
(475,1520,l),
(475,1425,l),
(570,1425,l),
(570,1520,l)
);
},
{
closed = 1;
nodes = (
(855,1520,l),
(855,1425,l),
(950,1425,l),
(950,1520,l)
);
},
{
closed = 1;
nodes = (
(950,1520,l),
(950,1425,l),
(1045,1425,l),
(1045,1520,l)
);
}
);
width = 1235;
}
);
note = backslash;
unicode = 92;
}
{
glyphname = grave;
layers = (
{
anchors = (
{
name = _top;
pos = (288,905);
},
{
name = top;
pos = (317,1235);
}
);
layerId = m01;
shapes = (
{
closed = 1;
nodes = (
(0,1425,l),
(0,1330,l),
(95,1330,l),
(95,1425,l)
);
},
{
closed = 1;
nodes = (
(95,1425,l),
(95,1330,l),
(190,1330,l),
(190,1425,l)
);
},
{
closed = 1;
nodes = (
(190,1330,l),
(190,1235,l),
(285,1235,l),
(285,1330,l)
);
},
{
closed = 1;
nodes = (
(285,1330,l),
(285,1235,l),
(380,1235,l),
(380,1330,l)
);
},
{
closed = 1;
nodes = (
(380,1330,l),
(380,1235,l),
(475,1235,l),
(475,1330,l)
);
},
{
closed = 1;
nodes = (
(475,1329,l),
(475,1234,l),
(570,1234,l),
(570,1329,l)
);
},
{
closed = 1;
nodes = (
(190,1425,l),
(190,1330,l),
(285,1330,l),
(285,1425,l)
);
},
{
closed = 1;
nodes = (
(0,1330,l),
(0,1235,l),
(95,1235,l),
(95,1330,l)
);
},
{
closed = 1;
nodes = (
(95,1330,l),
(95,1235,l),
(190,1235,l),
(190,1330,l)
);
},
{
closed = 1;
nodes = (
(190,1235,l),
(190,1140,l),
(285,1140,l),
(285,1235,l)
);
},
{
closed = 1;
nodes = (
(285,1235,l),
(285,1140,l),
(380,1140,l),
(380,1235,l)
);
},
{
closed = 1;
nodes = (
(380,1235,l),
(380,1140,l),
(475,1140,l),
(475,1235,l)
);
},
{
closed = 1;
nodes = (
(475,1235,l),
(475,1140,l),
(570,1140,l),
(570,1235,l)
);
}
);
width = 600;
}
);
unicode = 96;
}
{
glyphname = f;
layers = (
{
anchors = (
{
name = bottom;
pos = (475,0);
},
{
name = top;
pos = (475,1600);
}
);
layerId = m01;
shapes = (
{
closed = 1;
nodes = (
(285,95,l),
(285,0,l),
(380,0,l),
(380,95,l)
);
},
{
closed = 1;
nodes = (
(380,95,l),
(380,0,l),
(475,0,l),
(475,95,l)
);
},
{
closed = 1;
nodes = (
(285,190,l),
(285,95,l),
(380,95,l),
(380,190,l)
);
},
{
closed = 1;
nodes = (
(380,190,l),
(380,95,l),
(475,95,l),
(475,190,l)
);
},
{
closed = 1;
nodes = (
(285,285,l),
(285,190,l),
(380,190,l),
(380,285,l)
);
},
{
closed = 1;
nodes = (
(380,285,l),
(380,190,l),
(475,190,l),
(475,285,l)
);
},
{
closed = 1;
nodes = (
(285,380,l),
(285,285,l),
(380,285,l),
(380,380,l)
);
},
{
closed = 1;
nodes = (
(380,380,l),
(380,285,l),
(475,285,l),
(475,380,l)
);
},
{
closed = 1;
nodes = (
(285,475,l),
(285,380,l),
(380,380,l),
(380,475,l)
);
},
{
closed = 1;
nodes = (
(380,475,l),
(380,380,l),
(475,380,l),
(475,475,l)
);
},
{
closed = 1;
nodes = (
(285,570,l),
(285,475,l),
(380,475,l),
(380,570,l)
);
},
{
closed = 1;
nodes = (
(380,570,l),
(380,475,l),
(475,475,l),
(475,570,l)
);
},
{
closed = 1;
nodes = (
(285,665,l),
(285,570,l),
(380,570,l),
(380,665,l)
);
},
{
closed = 1;
nodes = (
(380,665,l),
(380,570,l),
(475,570,l),
(475,665,l)
);
},
{
closed = 1;
nodes = (
(285,760,l),
(285,665,l),
(380,665,l),
(380,760,l)
);
},
{
closed = 1;
nodes = (
(380,760,l),
(380,665,l),
(475,665,l),
(475,760,l)
);
},
{
closed = 1;
nodes = (
(285,855,l),
(285,760,l),
(380,760,l),
(380,855,l)
);
},
{
closed = 1;
nodes = (
(380,855,l),
(380,760,l),
(475,760,l),
(475,855,l)
);
},
{
closed = 1;
nodes = (
(95,950,l),
(95,855,l),
(190,855,l),
(190,950,l)
);
},
{
closed = 1;
nodes = (
(190,950,l),
(190,855,l),
(285,855,l),
(285,950,l)
);
},
{
closed = 1;
nodes = (
(285,950,l),
(285,855,l),
(380,855,l),
(380,950,l)
);
},
{
closed = 1;
nodes = (
(380,950,l),
(380,855,l),
(475,855,l),
(475,950,l)
);
},
{
closed = 1;
nodes = (
(475,950,l),
(475,855,l),
(570,855,l),
(570,950,l)
);
},
{
closed = 1;
nodes = (
(570,950,l),
(570,855,l),
(665,855,l),
(665,950,l)
);
},
{
closed = 1;
nodes = (
(665,950,l),
(665,855,l),
(760,855,l),
(760,950,l)
);
},
{
closed = 1;
nodes = (
(95,1045,l),
(95,950,l),
(190,950,l),
(190,1045,l)
);
},
{
closed = 1;
nodes = (
(190,1045,l),
(190,950,l),
(285,950,l),
(285,1045,l)
);
},
{
closed = 1;
nodes = (
(285,1045,l),
(285,950,l),
(380,950,l),
(380,1045,l)
);
},
{
closed = 1;
nodes = (
(380,1045,l),
(380,950,l),
(475,950,l),
(475,1045,l)
);
},
{
closed = 1;
nodes = (
(475,1045,l),
(475,950,l),
(570,950,l),
(570,1045,l)
);
},
{
closed = 1;
nodes = (
(570,1045,l),
(570,950,l),
(665,950,l),
(665,1045,l)
);
},
{
closed = 1;
nodes = (
(665,1045,l),
(665,950,l),
(760,950,l),
(760,1045,l)
);
},
{
closed = 1;
nodes = (
(285,1140,l),
(285,1045,l),
(380,1045,l),
(380,1140,l)
);
},
{
closed = 1;
nodes = (
(380,1140,l),
(380,1045,l),
(475,1045,l),
(475,1140,l)
);
},
{
closed = 1;
nodes = (
(285,1235,l),
(285,1140,l),
(380,1140,l),
(380,1235,l)
);
},
{
closed = 1;
nodes = (
(380,1235,l),
(380,1140,l),
(475,1140,l),
(475,1235,l)
);
},
{
closed = 1;
nodes = (
(285,1330,l),
(285,1235,l),
(380,1235,l),
(380,1330,l)
);
},
{
closed = 1;
nodes = (
(380,1330,l),
(380,1235,l),
(475,1235,l),
(475,1330,l)
);
},
{
closed = 1;
nodes = (
(285,1330,l),
(380,1330,l)
);
},
{
closed = 1;
nodes = (
(380,1425,l),
(380,1330,l),
(475,1330,l),
(475,1425,l)
);
},
{
closed = 1;
nodes = (
(475,1425,l),
(475,1330,l),
(570,1330,l),
(570,1425,l)
);
},
{
closed = 1;
nodes = (
(570,1425,l),
(570,1330,l),
(665,1330,l),
(665,1425,l)
);
},
{
closed = 1;
nodes = (
(665,1425,l),
(665,1330,l),
(855,1330,l),
(855,1425,l)
);
},
{
closed = 1;
nodes = (
(380,1520,l),
(380,1425,l),
(475,1425,l),
(475,1520,l)
);
},
{
closed = 1;
nodes = (
(475,1520,l),
(475,1425,l),
(570,1425,l),
(570,1520,l)
);
},
{
closed = 1;
nodes = (
(570,1520,l),
(570,1425,l),
(665,1425,l),
(665,1520,l)
);
},
{
closed = 1;
nodes = (
(665,1520,l),
(665,1425,l),
(855,1425,l),
(855,1520,l)
);
},
{
closed = 1;
nodes = (
(475,95,l),
(475,0,l),
(570,0,l),
(570,95,l)
);
},
{
closed = 1;
nodes = (
(475,190,l),
(475,95,l),
(570,95,l),
(570,190,l)
);
},
{
closed = 1;
nodes = (
(475,285,l),
(475,190,l),
(570,190,l),
(570,285,l)
);
},
{
closed = 1;
nodes = (
(475,380,l),
(475,285,l),
(570,285,l),
(570,380,l)
);
},
{
closed = 1;
nodes = (
(475,475,l),
(475,380,l),
(570,380,l),
(570,475,l)
);
},
{
closed = 1;
nodes = (
(475,570,l),
(475,475,l),
(570,475,l),
(570,570,l)
);
},
{
closed = 1;
nodes = (
(475,665,l),
(475,570,l),
(570,570,l),
(570,665,l)
);
},
{
closed = 1;
nodes = (
(475,760,l),
(475,665,l),
(570,665,l),
(570,760,l)
);
},
{
closed = 1;
nodes = (
(475,855,l),
(475,760,l),
(570,760,l),
(570,855,l)
);
},
{
closed = 1;
nodes = (
(475,1235,l),
(475,1140,l),
(570,1140,l),
(570,1235,l)
);
},
{
closed = 1;
nodes = (
(475,1330,l),
(475,1235,l),
(570,1235,l),
(570,1330,l)
);
},
{
closed = 1;
nodes = (
(855,1425,l),
(855,1330,l),
(950,1330,l),
(950,1425,l)
);
},
{
closed = 1;
nodes = (
(855,1425,l),
(855,1330,l),
(950,1330,l),
(950,1425,l)
);
}
);
width = 855;
}
);
note = f;
unicode = 102;
}
{
glyphname = i;
layers = (
{
anchors = (
{
name = bottom;
pos = (333,0);
}
);
layerId = m01;
shapes = (
{
closed = 1;
nodes = (
(190,95,l),
(190,0,l),
(285,0,l),
(285,95,l)
);
},
{
closed = 1;
nodes = (
(285,95,l),
(285,0,l),
(380,0,l),
(380,95,l)
);
},
{
closed = 1;
nodes = (
(190,190,l),
(190,95,l),
(285,95,l),
(285,190,l)
);
},
{
closed = 1;
nodes = (
(285,190,l),
(285,95,l),
(475,95,l),
(475,190,l)
);
},
{
closed = 1;
nodes = (
(190,285,l),
(190,190,l),
(285,190,l),
(285,285,l)
);
},
{
closed = 1;
nodes = (
(285,285,l),
(285,190,l),
(475,190,l),
(475,285,l)
);
},
{
closed = 1;
nodes = (
(190,380,l),
(190,285,l),
(285,285,l),
(285,380,l)
);
},
{
closed = 1;
nodes = (
(285,380,l),
(285,285,l),
(475,285,l),
(475,380,l)
);
},
{
closed = 1;
nodes = (
(190,475,l),
(190,380,l),
(285,380,l),
(285,475,l)
);
},
{
closed = 1;
nodes = (
(285,475,l),
(285,380,l),
(475,380,l),
(475,475,l)
);
},
{
closed = 1;
nodes = (
(190,570,l),
(190,475,l),
(285,475,l),
(285,570,l)
);
},
{
closed = 1;
nodes = (
(285,570,l),
(285,475,l),
(475,475,l),
(475,570,l)
);
},
{
closed = 1;
nodes = (
(190,665,l),
(190,570,l),
(285,570,l),
(285,665,l)
);
},
{
closed = 1;
nodes = (
(285,665,l),
(285,570,l),
(475,570,l),
(475,665,l)
);
},
{
closed = 1;
nodes = (
(190,760,l),
(190,665,l),
(285,665,l),
(285,760,l)
);
},
{
closed = 1;
nodes = (
(285,760,l),
(285,665,l),
(475,665,l),
(475,760,l)
);
},
{
closed = 1;
nodes = (
(190,855,l),
(190,760,l),
(285,760,l),
(285,855,l)
);
},
{
closed = 1;
nodes = (
(285,855,l),
(285,760,l),
(475,760,l),
(475,855,l)
);
},
{
closed = 1;
nodes = (
(190,950,l),
(190,855,l),
(285,855,l),
(285,950,l)
);
},
{
closed = 1;
nodes = (
(285,950,l),
(285,855,l),
(475,855,l),
(475,950,l)
);
},
{
closed = 1;
nodes = (
(190,1045,l),
(190,950,l),
(285,950,l),
(285,1045,l)
);
},
{
closed = 1;
nodes = (
(285,1140,l),
(285,950,l),
(475,950,l),
(475,1140,l)
);
},
{
closed = 1;
nodes = (
(190,1425,l),
(190,1330,l),
(285,1330,l),
(285,1425,l)
);
},
{
closed = 1;
nodes = (
(285,1425,l),
(285,1330,l),
(380,1330,l),
(380,1425,l)
);
},
{
closed = 1;
nodes = (
(285,1520,l),
(285,1425,l),
(380,1425,l),
(380,1520,l)
);
},
{
closed = 1;
nodes = (
(380,1425,l),
(380,1330,l),
(475,1330,l),
(475,1425,l)
);
},
{
closed = 1;
nodes = (
(380,1520,l),
(380,1425,l),
(475,1425,l),
(475,1520,l)
);
},
{
closed = 1;
nodes = (
(380,95,l),
(380,0,l),
(475,0,l),
(475,95,l)
);
},
{
closed = 1;
nodes = (
(380,95,l),
(380,0,l),
(475,0,l),
(475,95,l)
);
},
{
closed = 1;
nodes = (
(190,1330,l),
(190,1235,l),
(285,1235,l),
(285,1330,l)
);
},
{
closed = 1;
nodes = (
(285,1330,l),
(285,1235,l),
(380,1235,l),
(380,1330,l)
);
},
{
closed = 1;
nodes = (
(380,1330,l),
(380,1235,l),
(475,1235,l),
(475,1330,l)
);
},
{
closed = 1;
nodes = (
(95,95,l),
(95,0,l),
(190,0,l),
(190,95,l)
);
}
);
width = 570;
}
);
note = i;
unicode = 105;
}
{
glyphname = j;
layers = (
{
layerId = m01;
shapes = (
{
closed = 1;
nodes = (
(285,-380,l),
(285,-475,l),
(380,-475,l),
(380,-380,l)
);
},
{
closed = 1;
nodes = (
(380,-380,l),
(380,-475,l),
(475,-475,l),
(475,-380,l)
);
},
{
closed = 1;
nodes = (
(285,-285,l),
(285,-380,l),
(380,-380,l),
(380,-285,l)
);
},
{
closed = 1;
nodes = (
(380,-285,l),
(380,-380,l),
(570,-380,l),
(570,-285,l)
);
},
{
closed = 1;
nodes = (
(285,285,l),
(285,-285,l),
(380,-285,l),
(380,285,l)
);
},
{
closed = 1;
nodes = (
(380,285,l),
(380,-285,l),
(570,-285,l),
(570,285,l)
);
},
{
closed = 1;
nodes = (
(285,380,l),
(285,285,l),
(380,285,l),
(380,380,l)
);
},
{
closed = 1;
nodes = (
(380,380,l),
(380,285,l),
(570,285,l),
(570,380,l)
);
},
{
closed = 1;
nodes = (
(285,475,l),
(285,380,l),
(380,380,l),
(380,475,l)
);
},
{
closed = 1;
nodes = (
(380,475,l),
(380,380,l),
(570,380,l),
(570,475,l)
);
},
{
closed = 1;
nodes = (
(285,570,l),
(285,475,l),
(380,475,l),
(380,570,l)
);
},
{
closed = 1;
nodes = (
(380,570,l),
(380,475,l),
(570,475,l),
(570,570,l)
);
},
{
closed = 1;
nodes = (
(285,665,l),
(285,570,l),
(380,570,l),
(380,665,l)
);
},
{
closed = 1;
nodes = (
(380,665,l),
(380,570,l),
(570,570,l),
(570,665,l)
);
},
{
closed = 1;
nodes = (
(285,760,l),
(285,665,l),
(380,665,l),
(380,760,l)
);
},
{
closed = 1;
nodes = (
(380,760,l),
(380,665,l),
(570,665,l),
(570,760,l)
);
},
{
closed = 1;
nodes = (
(285,855,l),
(285,760,l),
(380,760,l),
(380,855,l)
);
},
{
closed = 1;
nodes = (
(380,855,l),
(380,760,l),
(570,760,l),
(570,855,l)
);
},
{
closed = 1;
nodes = (
(285,950,l),
(285,855,l),
(380,855,l),
(380,950,l)
);
},
{
closed = 1;
nodes = (
(380,950,l),
(380,855,l),
(570,855,l),
(570,950,l)
);
},
{
closed = 1;
nodes = (
(285,1045,l),
(285,950,l),
(380,950,l),
(380,1045,l)
);
},
{
closed = 1;
nodes = (
(380,1140,l),
(380,950,l),
(570,950,l),
(570,1140,l)
);
},
{
closed = 1;
nodes = (
(285,1425,l),
(285,1330,l),
(380,1330,l),
(380,1425,l)
);
},
{
closed = 1;
nodes = (
(380,1425,l),
(380,1330,l),
(475,1330,l),
(475,1425,l)
);
},
{
closed = 1;
nodes = (
(380,1520,l),
(380,1425,l),
(475,1425,l),
(475,1520,l)
);
},
{
closed = 1;
nodes = (
(475,1425,l),
(475,1330,l),
(570,1330,l),
(570,1425,l)
);
},
{
closed = 1;
nodes = (
(475,1520,l),
(475,1425,l),
(570,1425,l),
(570,1520,l)
);
},
{
closed = 1;
nodes = (
(285,1330,l),
(285,1235,l),
(380,1235,l),
(380,1330,l)
);
},
{
closed = 1;
nodes = (
(380,1330,l),
(380,1235,l),
(475,1235,l),
(475,1330,l)
);
},
{
closed = 1;
nodes = (
(475,1330,l),
(475,1235,l),
(570,1235,l),
(570,1330,l)
);
},
{
closed = 1;
nodes = (
(190,-380,l),
(190,-475,l),
(285,-475,l),
(285,-380,l)
);
},
{
closed = 1;
nodes = (
(190,-285,l),
(190,-380,l),
(285,-380,l),
(285,-285,l)
);
},
{
closed = 1;
nodes = (
(95,-380,l),
(95,-475,l),
(190,-475,l),
(190,-380,l)
);
}
);
width = 665;
}
);
note = j;
unicode = 106;
}
{
glyphname = k;
layers = (
{
anchors = (
{
name = bottom;
pos = (668,0);
},
{
name = top;
pos = (668,1600);
}
);
layerId = m01;
shapes = (
{
closed = 1;
nodes = (
(95,95,l),
(95,0,l),
(285,0,l),
(285,95,l)
);
},
{
closed = 1;
nodes = (
(285,95,l),
(285,0,l),
(380,0,l),
(380,95,l)
);
},
{
closed = 1;
nodes = (
(760,95,l),
(760,0,l),
(855,0,l),
(855,95,l)
);
},
{
closed = 1;
nodes = (
(855,95,l),
(855,0,l),
(950,0,l),
(950,95,l)
);
},
{
closed = 1;
nodes = (
(950,95,l),
(950,0,l),
(1045,0,l),
(1045,95,l)
);
},
{
closed = 1;
nodes = (
(1045,95,l),
(1045,0,l),
(1140,0,l),
(1140,95,l)
);
},
{
closed = 1;
nodes = (
(95,190,l),
(95,95,l),
(285,95,l),
(285,190,l)
);
},
{
closed = 1;
nodes = (
(285,190,l),
(285,95,l),
(380,95,l),
(380,190,l)
);
},
{
closed = 1;
nodes = (
(760,190,l),
(760,95,l),
(855,95,l),
(855,190,l)
);
},
{
closed = 1;
nodes = (
(855,190,l),
(855,95,l),
(950,95,l),
(950,190,l)
);
},
{
closed = 1;
nodes = (
(950,190,l),
(950,95,l),
(1045,95,l),
(1045,190,l)
);
},
{
closed = 1;
nodes = (
(95,285,l),
(95,190,l),
(285,190,l),
(285,285,l)
);
},
{
closed = 1;
nodes = (
(285,285,l),
(285,190,l),
(380,190,l),
(380,285,l)
);
},
{
closed = 1;
nodes = (
(665,285,l),
(665,190,l),
(760,190,l),
(760,285,l)
);
},
{
closed = 1;
nodes = (
(760,285,l),
(760,190,l),
(855,190,l),
(855,285,l)
);
},
{
closed = 1;
nodes = (
(855,285,l),
(855,190,l),
(950,190,l),
(950,285,l)
);
},
{
closed = 1;
nodes = (
(95,380,l),
(95,285,l),
(285,285,l),
(285,380,l)
);
},
{
closed = 1;
nodes = (
(285,380,l),
(285,285,l),
(380,285,l),
(380,380,l)
);
},
{
closed = 1;
nodes = (
(665,380,l),
(665,285,l),
(760,285,l),
(760,380,l)
);
},
{
closed = 1;
nodes = (
(760,380,l),
(760,285,l),
(855,285,l),
(855,380,l)
);
},
{
closed = 1;
nodes = (
(855,380,l),
(855,285,l),
(950,285,l),
(950,380,l)
);
},
{
closed = 1;
nodes = (
(95,475,l),
(95,380,l),
(285,380,l),
(285,475,l)
);
},
{
closed = 1;
nodes = (
(285,475,l),
(285,380,l),
(380,380,l),
(380,475,l)
);
},
{
closed = 1;
nodes = (
(570,475,l),
(570,380,l),
(665,380,l),
(665,475,l)
);
},
{
closed = 1;
nodes = (
(665,475,l),
(665,380,l),
(760,380,l),
(760,475,l)
);
},
{
closed = 1;
nodes = (
(760,475,l),
(760,380,l),
(855,380,l),
(855,475,l)
);
},
{
closed = 1;
nodes = (
(95,570,l),
(95,475,l),
(285,475,l),
(285,570,l)
);
},
{
closed = 1;
nodes = (
(285,570,l),
(285,475,l),
(380,475,l),
(380,570,l)
);
},
{
closed = 1;
nodes = (
(380,570,l),
(380,475,l),
(475,475,l),
(475,570,l)
);
},
{
closed = 1;
nodes = (
(475,570,l),
(475,475,l),
(570,475,l),
(570,570,l)
);
},
{
closed = 1;
nodes = (
(570,570,l),
(570,475,l),
(665,475,l),
(665,570,l)
);
},
{
closed = 1;
nodes = (
(665,570,l),
(665,475,l),
(760,475,l),
(760,570,l)
);
},
{
closed = 1;
nodes = (
(95,665,l),
(95,570,l),
(285,570,l),
(285,665,l)
);
},
{
closed = 1;
nodes = (
(285,665,l),
(285,570,l),
(380,570,l),
(380,665,l)
);
},
{
closed = 1;
nodes = (
(380,665,l),
(380,570,l),
(475,570,l),
(475,665,l)
);
},
{
closed = 1;
nodes = (
(475,665,l),
(475,570,l),
(570,570,l),
(570,665,l)
);
},
{
closed = 1;
nodes = (
(570,665,l),
(570,570,l),
(665,570,l),
(665,665,l)
);
},
{
closed = 1;
nodes = (
(665,665,l),
(665,570,l),
(760,570,l),
(760,665,l)
);
},
{
closed = 1;
nodes = (
(95,760,l),
(95,665,l),
(285,665,l),
(285,760,l)
);
},
{
closed = 1;
nodes = (
(285,760,l),
(285,665,l),
(380,665,l),
(380,760,l)
);
},
{
closed = 1;
nodes = (
(475,760,l),
(475,665,l),
(570,665,l),
(570,760,l)
);
},
{
closed = 1;
nodes = (
(570,760,l),
(570,665,l),
(665,665,l),
(665,760,l)
);
},
{
closed = 1;
nodes = (
(665,760,l),
(665,665,l),
(760,665,l),
(760,760,l)
);
},
{
closed = 1;
nodes = (
(95,855,l),
(95,760,l),
(285,760,l),
(285,855,l)
);
},
{
closed = 1;
nodes = (
(285,855,l),
(285,760,l),
(380,760,l),
(380,855,l)
);
},
{
closed = 1;
nodes = (
(570,855,l),
(570,760,l),
(665,760,l),
(665,855,l)
);
},
{
closed = 1;
nodes = (
(665,855,l),
(665,760,l),
(760,760,l),
(760,855,l)
);
},
{
closed = 1;
nodes = (
(760,855,l),
(760,760,l),
(855,760,l),
(855,855,l)
);
},
{
closed = 1;
nodes = (
(95,950,l),
(95,855,l),
(285,855,l),
(285,950,l)
);
},
{
closed = 1;
nodes = (
(285,950,l),
(285,855,l),
(380,855,l),
(380,950,l)
);
},
{
closed = 1;
nodes = (
(665,950,l),
(665,855,l),
(760,855,l),
(760,950,l)
);
},
{
closed = 1;
nodes = (
(760,950,l),
(760,855,l),
(855,855,l),
(855,950,l)
);
},
{
closed = 1;
nodes = (
(855,950,l),
(855,855,l),
(950,855,l),
(950,950,l)
);
},
{
closed = 1;
nodes = (
(95,1045,l),
(95,950,l),
(285,950,l),
(285,1045,l)
);
},
{
closed = 1;
nodes = (
(285,1045,l),
(285,950,l),
(380,950,l),
(380,1045,l)
);
},
{
closed = 1;
nodes = (
(665,1045,l),
(665,950,l),
(760,950,l),
(760,1045,l)
);
},
{
closed = 1;
nodes = (
(760,1045,l),
(760,950,l),
(855,950,l),
(855,1045,l)
);
},
{
closed = 1;
nodes = (
(855,1045,l),
(855,950,l),
(950,950,l),
(950,1045,l)
);
},
{
closed = 1;
nodes = (
(950,1045,l),
(950,950,l),
(1045,950,l),
(1045,1045,l)
);
},
{
closed = 1;
nodes = (
(95,1140,l),
(95,1045,l),
(285,1045,l),
(285,1140,l)
);
},
{
closed = 1;
nodes = (
(285,1140,l),
(285,1045,l),
(380,1045,l),
(380,1140,l)
);
},
{
closed = 1;
nodes = (
(95,1235,l),
(95,1140,l),
(285,1140,l),
(285,1235,l)
);
},
{
closed = 1;
nodes = (
(285,1235,l),
(285,1140,l),
(380,1140,l),
(380,1235,l)
);
},
{
closed = 1;
nodes = (
(95,1330,l),
(95,1235,l),
(285,1235,l),
(285,1330,l)
);
},
{
closed = 1;
nodes = (
(285,1330,l),
(285,1235,l),
(380,1235,l),
(380,1330,l)
);
},
{
closed = 1;
nodes = (
(95,1425,l),
(95,1330,l),
(285,1330,l),
(285,1425,l)
);
},
{
closed = 1;
nodes = (
(285,1425,l),
(285,1330,l),
(380,1330,l),
(380,1425,l)
);
},
{
closed = 1;
nodes = (
(95,1520,l),
(95,1425,l),
(285,1425,l),
(285,1520,l)
);
},
{
closed = 1;
nodes = (
(285,1520,l),
(285,1425,l),
(380,1425,l),
(380,1520,l)
);
}
);
width = 1235;
}
);
note = k;
unicode = 107;
}
{
glyphname = o;
layers = (
{
anchors = (
{
name = bottom;
pos = (618,0);
},
{
name = center;
pos = (618,500);
},
{
name = ogonek;
pos = (1112,10);
},
{
name = top;
pos = (618,1000);
},
{
name = topright;
pos = (1215,1000);
}
);
layerId = m01;
shapes = (
{
closed = 1;
nodes = (
(285,95,l),
(285,0,l),
(380,0,l),
(380,95,l)
);
},
{
closed = 1;
nodes = (
(380,95,l),
(380,0,l),
(475,0,l),
(475,95,l)
);
},
{
closed = 1;
nodes = (
(475,95,l),
(475,0,l),
(570,0,l),
(570,95,l)
);
},
{
closed = 1;
nodes = (
(570,95,l),
(570,0,l),
(665,0,l),
(665,95,l)
);
},
{
closed = 1;
nodes = (
(665,95,l),
(665,0,l),
(760,0,l),
(760,95,l)
);
},
{
closed = 1;
nodes = (
(760,95,l),
(760,0,l),
(855,0,l),
(855,95,l)
);
},
{
closed = 1;
nodes = (
(855,95,l),
(855,0,l),
(950,0,l),
(950,95,l)
);
},
{
closed = 1;
nodes = (
(190,190,l),
(190,95,l),
(285,95,l),
(285,190,l)
);
},
{
closed = 1;
nodes = (
(285,190,l),
(285,95,l),
(380,95,l),
(380,190,l)
);
},
{
closed = 1;
nodes = (
(380,190,l),
(380,95,l),
(475,95,l),
(475,190,l)
);
},
{
closed = 1;
nodes = (
(475,190,l),
(475,95,l),
(570,95,l),
(570,190,l)
);
},
{
closed = 1;
nodes = (
(570,190,l),
(570,95,l),
(665,95,l),
(665,190,l)
);
},
{
closed = 1;
nodes = (
(665,190,l),
(665,95,l),
(760,95,l),
(760,190,l)
);
},
{
closed = 1;
nodes = (
(760,190,l),
(760,95,l),
(855,95,l),
(855,190,l)
);
},
{
closed = 1;
nodes = (
(855,190,l),
(855,95,l),
(950,95,l),
(950,190,l)
);
},
{
closed = 1;
nodes = (
(950,190,l),
(950,95,l),
(1045,95,l),
(1045,190,l)
);
},
{
closed = 1;
nodes = (
(95,285,l),
(95,190,l),
(190,190,l),
(190,285,l)
);
},
{
closed = 1;
nodes = (
(190,285,l),
(190,190,l),
(285,190,l),
(285,285,l)
);
},
{
closed = 1;
nodes = (
(285,285,l),
(285,190,l),
(380,190,l),
(380,285,l)
);
},
{
closed = 1;
nodes = (
(380,285,l),
(380,190,l),
(475,190,l),
(475,285,l)
);
},
{
closed = 1;
nodes = (
(760,285,l),
(760,190,l),
(855,190,l),
(855,285,l)
);
},
{
closed = 1;
nodes = (
(855,285,l),
(855,190,l),
(950,190,l),
(950,285,l)
);
},
{
closed = 1;
nodes = (
(950,285,l),
(950,190,l),
(1045,190,l),
(1045,285,l)
);
},
{
closed = 1;
nodes = (
(1045,285,l),
(1045,190,l),
(1140,190,l),
(1140,285,l)
);
},
{
closed = 1;
nodes = (
(95,380,l),
(95,285,l),
(190,285,l),
(190,380,l)
);
},
{
closed = 1;
nodes = (
(190,380,l),
(190,285,l),
(285,285,l),
(285,380,l)
);
},
{
closed = 1;
nodes = (
(285,380,l),
(285,285,l),
(380,285,l),
(380,380,l)
);
},
{
closed = 1;
nodes = (
(855,380,l),
(855,285,l),
(950,285,l),
(950,380,l)
);
},
{
closed = 1;
nodes = (
(950,380,l),
(950,285,l),
(1045,285,l),
(1045,380,l)
);
},
{
closed = 1;
nodes = (
(1045,380,l),
(1045,285,l),
(1140,285,l),
(1140,380,l)
);
},
{
closed = 1;
nodes = (
(95,570,l),
(95,380,l),
(190,380,l),
(190,570,l)
);
},
{
closed = 1;
nodes = (
(190,570,l),
(190,380,l),
(285,380,l),
(285,570,l)
);
},
{
closed = 1;
nodes = (
(285,570,l),
(285,380,l),
(380,380,l),
(380,570,l)
);
},
{
closed = 1;
nodes = (
(855,570,l),
(855,380,l),
(950,380,l),
(950,570,l)
);
},
{
closed = 1;
nodes = (
(950,570,l),
(950,380,l),
(1045,380,l),
(1045,570,l)
);
},
{
closed = 1;
nodes = (
(1045,570,l),
(1045,380,l),
(1140,380,l),
(1140,570,l)
);
},
{
closed = 1;
nodes = (
(95,665,l),
(95,570,l),
(190,570,l),
(190,665,l)
);
},
{
closed = 1;
nodes = (
(190,665,l),
(190,570,l),
(285,570,l),
(285,665,l)
);
},
{
closed = 1;
nodes = (
(285,665,l),
(285,570,l),
(380,570,l),
(380,665,l)
);
},
{
closed = 1;
nodes = (
(855,665,l),
(855,570,l),
(950,570,l),
(950,665,l)
);
},
{
closed = 1;
nodes = (
(950,665,l),
(950,570,l),
(1045,570,l),
(1045,665,l)
);
},
{
closed = 1;
nodes = (
(1045,665,l),
(1045,570,l),
(1140,570,l),
(1140,665,l)
);
},
{
closed = 1;
nodes = (
(95,760,l),
(95,665,l),
(190,665,l),
(190,760,l)
);
},
{
closed = 1;
nodes = (
(190,760,l),
(190,665,l),
(285,665,l),
(285,760,l)
);
},
{
closed = 1;
nodes = (
(285,760,l),
(285,665,l),
(380,665,l),
(380,760,l)
);
},
{
closed = 1;
nodes = (
(855,760,l),
(855,665,l),
(950,665,l),
(950,760,l)
);
},
{
closed = 1;
nodes = (
(950,760,l),
(950,665,l),
(1045,665,l),
(1045,760,l)
);
},
{
closed = 1;
nodes = (
(1045,760,l),
(1045,665,l),
(1140,665,l),
(1140,760,l)
);
},
{
closed = 1;
nodes = (
(95,855,l),
(95,760,l),
(190,760,l),
(190,855,l)
);
},
{
closed = 1;
nodes = (
(190,855,l),
(190,760,l),
(285,760,l),
(285,855,l)
);
},
{
closed = 1;
nodes = (
(285,855,l),
(285,760,l),
(380,760,l),
(380,855,l)
);
},
{
closed = 1;
nodes = (
(855,855,l),
(855,760,l),
(950,760,l),
(950,855,l)
);
},
{
closed = 1;
nodes = (
(950,855,l),
(950,760,l),
(1045,760,l),
(1045,855,l)
);
},
{
closed = 1;
nodes = (
(1045,855,l),
(1045,760,l),
(1140,760,l),
(1140,855,l)
);
},
{
closed = 1;
nodes = (
(95,950,l),
(95,855,l),
(190,855,l),
(190,950,l)
);
},
{
closed = 1;
nodes = (
(190,950,l),
(190,855,l),
(285,855,l),
(285,950,l)
);
},
{
closed = 1;
nodes = (
(285,950,l),
(285,855,l),
(380,855,l),
(380,950,l)
);
},
{
closed = 1;
nodes = (
(380,950,l),
(380,855,l),
(475,855,l),
(475,950,l)
);
},
{
closed = 1;
nodes = (
(760,950,l),
(760,855,l),
(855,855,l),
(855,950,l)
);
},
{
closed = 1;
nodes = (
(855,950,l),
(855,855,l),
(950,855,l),
(950,950,l)
);
},
{
closed = 1;
nodes = (
(950,950,l),
(950,855,l),
(1045,855,l),
(1045,950,l)
);
},
{
closed = 1;
nodes = (
(1045,950,l),
(1045,855,l),
(1140,855,l),
(1140,950,l)
);
},
{
closed = 1;
nodes = (
(190,1045,l),
(190,950,l),
(285,950,l),
(285,1045,l)
);
},
{
closed = 1;
nodes = (
(285,1045,l),
(285,950,l),
(380,950,l),
(380,1045,l)
);
},
{
closed = 1;
nodes = (
(380,1045,l),
(380,950,l),
(475,950,l),
(475,1045,l)
);
},
{
closed = 1;
nodes = (
(475,1045,l),
(475,950,l),
(570,950,l),
(570,1045,l)
);
},
{
closed = 1;
nodes = (
(570,1045,l),
(570,950,l),
(665,950,l),
(665,1045,l)
);
},
{
closed = 1;
nodes = (
(665,1045,l),
(665,950,l),
(760,950,l),
(760,1045,l)
);
},
{
closed = 1;
nodes = (
(760,1045,l),
(760,950,l),
(855,950,l),
(855,1045,l)
);
},
{
closed = 1;
nodes = (
(855,1045,l),
(855,950,l),
(950,950,l),
(950,1045,l)
);
},
{
closed = 1;
nodes = (
(950,1045,l),
(950,950,l),
(1045,950,l),
(1045,1045,l)
);
},
{
closed = 1;
nodes = (
(285,1140,l),
(285,1045,l),
(380,1045,l),
(380,1140,l)
);
},
{
closed = 1;
nodes = (
(380,1140,l),
(380,1045,l),
(475,1045,l),
(475,1140,l)
);
},
{
closed = 1;
nodes = (
(475,1140,l),
(475,1045,l),
(570,1045,l),
(570,1140,l)
);
},
{
closed = 1;
nodes = (
(570,1140,l),
(570,1045,l),
(665,1045,l),
(665,1140,l)
);
},
{
closed = 1;
nodes = (
(665,1140,l),
(665,1045,l),
(760,1045,l),
(760,1140,l)
);
},
{
closed = 1;
nodes = (
(760,1140,l),
(760,1045,l),
(855,1045,l),
(855,1140,l)
);
},
{
closed = 1;
nodes = (
(855,1140,l),
(855,1045,l),
(950,1045,l),
(950,1140,l)
);
},
{
closed = 1;
nodes = (
(380,380,l),
(380,285,l),
(475,285,l),
(475,380,l)
);
},
{
closed = 1;
nodes = (
(760,855,l),
(760,760,l),
(855,760,l),
(855,855,l)
);
}
);
width = 1235;
}
);
note = o;
unicode = 111;
}
{
glyphname = p;
layers = (
{
anchors = (
{
name = bottom;
pos = (618,0);
},
{
name = top;
pos = (618,1000);
}
);
layerId = m01;
shapes = (
{
closed = 1;
nodes = (
(95,-380,l),
(95,-475,l),
(190,-475,l),
(190,-380,l)
);
},
{
closed = 1;
nodes = (
(190,-380,l),
(190,-475,l),
(285,-475,l),
(285,-380,l)
);
},
{
closed = 1;
nodes = (
(285,-380,l),
(285,-475,l),
(380,-475,l),
(380,-380,l)
);
},
{
closed = 1;
nodes = (
(95,-285,l),
(95,-380,l),
(190,-380,l),
(190,-285,l)
);
},
{
closed = 1;
nodes = (
(190,-285,l),
(190,-380,l),
(285,-380,l),
(285,-285,l)
);
},
{
closed = 1;
nodes = (
(285,-285,l),
(285,-380,l),
(380,-380,l),
(380,-285,l)
);
},
{
closed = 1;
nodes = (
(95,-190,l),
(95,-285,l),
(190,-285,l),
(190,-190,l)
);
},
{
closed = 1;
nodes = (
(190,-190,l),
(190,-285,l),
(285,-285,l),
(285,-190,l)
);
},
{
closed = 1;
nodes = (
(285,-190,l),
(285,-285,l),
(380,-285,l),
(380,-190,l)
);
},
{
closed = 1;
nodes = (
(95,-95,l),
(95,-190,l),
(190,-190,l),
(190,-95,l)
);
},
{
closed = 1;
nodes = (
(190,-95,l),
(190,-190,l),
(285,-190,l),
(285,-95,l)
);
},
{
closed = 1;
nodes = (
(285,-95,l),
(285,-190,l),
(380,-190,l),
(380,-95,l)
);
},
{
closed = 1;
nodes = (
(95,0,l),
(95,-95,l),
(190,-95,l),
(190,0,l)
);
},
{
closed = 1;
nodes = (
(190,0,l),
(190,-95,l),
(285,-95,l),
(285,0,l)
);
},
{
closed = 1;
nodes = (
(285,0,l),
(285,-95,l),
(380,-95,l),
(380,0,l)
);
},
{
closed = 1;
nodes = (
(95,95,l),
(95,0,l),
(190,0,l),
(190,95,l)
);
},
{
closed = 1;
nodes = (
(190,95,l),
(190,0,l),
(285,0,l),
(285,95,l)
);
},
{
closed = 1;
nodes = (
(285,95,l),
(285,0,l),
(380,0,l),
(380,95,l)
);
},
{
closed = 1;
nodes = (
(475,95,l),
(475,0,l),
(570,0,l),
(570,95,l)
);
},
{
closed = 1;
nodes = (
(570,95,l),
(570,0,l),
(665,0,l),
(665,95,l)
);
},
{
closed = 1;
nodes = (
(665,95,l),
(665,0,l),
(760,0,l),
(760,95,l)
);
},
{
closed = 1;
nodes = (
(760,95,l),
(760,0,l),
(855,0,l),
(855,95,l)
);
},
{
closed = 1;
nodes = (
(95,190,l),
(95,95,l),
(190,95,l),
(190,190,l)
);
},
{
closed = 1;
nodes = (
(190,190,l),
(190,95,l),
(285,95,l),
(285,190,l)
);
},
{
closed = 1;
nodes = (
(285,190,l),
(285,95,l),
(380,95,l),
(380,190,l)
);
},
{
closed = 1;
nodes = (
(380,190,l),
(380,95,l),
(475,95,l),
(475,190,l)
);
},
{
closed = 1;
nodes = (
(475,190,l),
(475,95,l),
(570,95,l),
(570,190,l)
);
},
{
closed = 1;
nodes = (
(570,190,l),
(570,95,l),
(665,95,l),
(665,190,l)
);
},
{
closed = 1;
nodes = (
(665,190,l),
(665,95,l),
(760,95,l),
(760,190,l)
);
},
{
closed = 1;
nodes = (
(760,190,l),
(760,95,l),
(855,95,l),
(855,190,l)
);
},
{
closed = 1;
nodes = (
(855,190,l),
(855,95,l),
(950,95,l),
(950,190,l)
);
},
{
closed = 1;
nodes = (
(950,190,l),
(950,95,l),
(1045,95,l),
(1045,190,l)
);
},
{
closed = 1;
nodes = (
(95,285,l),
(95,190,l),
(190,190,l),
(190,285,l)
);
},
{
closed = 1;
nodes = (
(190,285,l),
(190,190,l),
(285,190,l),
(285,285,l)
);
},
{
closed = 1;
nodes = (
(285,285,l),
(285,190,l),
(380,190,l),
(380,285,l)
);
},
{
closed = 1;
nodes = (
(380,285,l),
(380,190,l),
(475,190,l),
(475,285,l)
);
},
{
closed = 1;
nodes = (
(760,285,l),
(760,190,l),
(855,190,l),
(855,285,l)
);
},
{
closed = 1;
nodes = (
(855,285,l),
(855,190,l),
(950,190,l),
(950,285,l)
);
},
{
closed = 1;
nodes = (
(950,285,l),
(950,190,l),
(1045,190,l),
(1045,285,l)
);
},
{
closed = 1;
nodes = (
(1045,285,l),
(1045,190,l),
(1140,190,l),
(1140,285,l)
);
},
{
closed = 1;
nodes = (
(95,380,l),
(95,285,l),
(190,285,l),
(190,380,l)
);
},
{
closed = 1;
nodes = (
(190,380,l),
(190,285,l),
(285,285,l),
(285,380,l)
);
},
{
closed = 1;
nodes = (
(285,380,l),
(285,285,l),
(380,285,l),
(380,380,l)
);
},
{
closed = 1;
nodes = (
(855,380,l),
(855,285,l),
(950,285,l),
(950,380,l)
);
},
{
closed = 1;
nodes = (
(950,380,l),
(950,285,l),
(1045,285,l),
(1045,380,l)
);
},
{
closed = 1;
nodes = (
(1045,380,l),
(1045,285,l),
(1140,285,l),
(1140,380,l)
);
},
{
closed = 1;
nodes = (
(95,475,l),
(95,380,l),
(190,380,l),
(190,475,l)
);
},
{
closed = 1;
nodes = (
(190,475,l),
(190,380,l),
(285,380,l),
(285,475,l)
);
},
{
closed = 1;
nodes = (
(285,475,l),
(285,380,l),
(380,380,l),
(380,475,l)
);
},
{
closed = 1;
nodes = (
(855,475,l),
(855,380,l),
(950,380,l),
(950,475,l)
);
},
{
closed = 1;
nodes = (
(950,475,l),
(950,380,l),
(1045,380,l),
(1045,475,l)
);
},
{
closed = 1;
nodes = (
(1045,475,l),
(1045,380,l),
(1140,380,l),
(1140,475,l)
);
},
{
closed = 1;
nodes = (
(95,665,l),
(95,475,l),
(190,475,l),
(190,665,l)
);
},
{
closed = 1;
nodes = (
(190,665,l),
(190,475,l),
(285,475,l),
(285,665,l)
);
},
{
closed = 1;
nodes = (
(285,665,l),
(285,475,l),
(380,475,l),
(380,665,l)
);
},
{
closed = 1;
nodes = (
(855,665,l),
(855,475,l),
(950,475,l),
(950,665,l)
);
},
{
closed = 1;
nodes = (
(950,665,l),
(950,475,l),
(1045,475,l),
(1045,665,l)
);
},
{
closed = 1;
nodes = (
(1045,665,l),
(1045,475,l),
(1140,475,l),
(1140,665,l)
);
},
{
closed = 1;
nodes = (
(95,760,l),
(95,665,l),
(190,665,l),
(190,760,l)
);
},
{
closed = 1;
nodes = (
(190,760,l),
(190,665,l),
(285,665,l),
(285,760,l)
);
},
{
closed = 1;
nodes = (
(285,760,l),
(285,665,l),
(380,665,l),
(380,760,l)
);
},
{
closed = 1;
nodes = (
(855,760,l),
(855,665,l),
(950,665,l),
(950,760,l)
);
},
{
closed = 1;
nodes = (
(950,760,l),
(950,665,l),
(1045,665,l),
(1045,760,l)
);
},
{
closed = 1;
nodes = (
(1045,760,l),
(1045,665,l),
(1140,665,l),
(1140,760,l)
);
},
{
closed = 1;
nodes = (
(95,855,l),
(95,760,l),
(190,760,l),
(190,855,l)
);
},
{
closed = 1;
nodes = (
(190,855,l),
(190,760,l),
(285,760,l),
(285,855,l)
);
},
{
closed = 1;
nodes = (
(285,855,l),
(285,760,l),
(380,760,l),
(380,855,l)
);
},
{
closed = 1;
nodes = (
(855,855,l),
(855,760,l),
(950,760,l),
(950,855,l)
);
},
{
closed = 1;
nodes = (
(950,855,l),
(950,760,l),
(1045,760,l),
(1045,855,l)
);
},
{
closed = 1;
nodes = (
(1045,855,l),
(1045,760,l),
(1140,760,l),
(1140,855,l)
);
},
{
closed = 1;
nodes = (
(95,950,l),
(95,855,l),
(190,855,l),
(190,950,l)
);
},
{
closed = 1;
nodes = (
(190,950,l),
(190,855,l),
(285,855,l),
(285,950,l)
);
},
{
closed = 1;
nodes = (
(285,950,l),
(285,855,l),
(380,855,l),
(380,950,l)
);
},
{
closed = 1;
nodes = (
(380,950,l),
(380,855,l),
(475,855,l),
(475,950,l)
);
},
{
closed = 1;
nodes = (
(760,950,l),
(760,855,l),
(855,855,l),
(855,950,l)
);
},
{
closed = 1;
nodes = (
(855,950,l),
(855,855,l),
(950,855,l),
(950,950,l)
);
},
{
closed = 1;
nodes = (
(950,950,l),
(950,855,l),
(1045,855,l),
(1045,950,l)
);
},
{
closed = 1;
nodes = (
(1045,950,l),
(1045,855,l),
(1140,855,l),
(1140,950,l)
);
},
{
closed = 1;
nodes = (
(95,1045,l),
(95,950,l),
(190,950,l),
(190,1045,l)
);
},
{
closed = 1;
nodes = (
(190,1045,l),
(190,950,l),
(285,950,l),
(285,1045,l)
);
},
{
closed = 1;
nodes = (
(285,1045,l),
(285,950,l),
(380,950,l),
(380,1045,l)
);
},
{
closed = 1;
nodes = (
(380,1045,l),
(380,950,l),
(475,950,l),
(475,1045,l)
);
},
{
closed = 1;
nodes = (
(475,1045,l),
(475,950,l),
(570,950,l),
(570,1045,l)
);
},
{
closed = 1;
nodes = (
(570,1045,l),
(570,950,l),
(665,950,l),
(665,1045,l)
);
},
{
closed = 1;
nodes = (
(665,1045,l),
(665,950,l),
(760,950,l),
(760,1045,l)
);
},
{
closed = 1;
nodes = (
(760,1045,l),
(760,950,l),
(855,950,l),
(855,1045,l)
);
},
{
closed = 1;
nodes = (
(855,1045,l),
(855,950,l),
(950,950,l),
(950,1045,l)
);
},
{
closed = 1;
nodes = (
(950,1045,l),
(950,950,l),
(1045,950,l),
(1045,1045,l)
);
},
{
closed = 1;
nodes = (
(95,1140,l),
(95,1045,l),
(190,1045,l),
(190,1140,l)
);
},
{
closed = 1;
nodes = (
(190,1140,l),
(190,1045,l),
(285,1045,l),
(285,1140,l)
);
},
{
closed = 1;
nodes = (
(380,1140,l),
(380,1045,l),
(475,1045,l),
(475,1140,l)
);
},
{
closed = 1;
nodes = (
(475,1140,l),
(475,1045,l),
(570,1045,l),
(570,1140,l)
);
},
{
closed = 1;
nodes = (
(570,1140,l),
(570,1045,l),
(665,1045,l),
(665,1140,l)
);
},
{
closed = 1;
nodes = (
(665,1140,l),
(665,1045,l),
(760,1045,l),
(760,1140,l)
);
},
{
closed = 1;
nodes = (
(760,1140,l),
(760,1045,l),
(855,1045,l),
(855,1140,l)
);
},
{
closed = 1;
nodes = (
(855,1140,l),
(855,1045,l),
(950,1045,l),
(950,1140,l)
);
},
{
closed = 1;
nodes = (
(380,380,l),
(380,285,l),
(475,285,l),
(475,380,l)
);
},
{
closed = 1;
nodes = (
(475,1140,l),
(475,1045,l),
(570,1045,l),
(570,1140,l)
);
},
{
closed = 1;
nodes = (
(760,855,l),
(760,760,l),
(855,760,l),
(855,855,l)
);
},
{
closed = 1;
nodes = (
(855,95,l),
(855,0,l),
(950,0,l),
(950,95,l)
);
}
);
width = 1235;
}
);
note = p;
unicode = 112;
}
{
glyphname = r;
layers = (
{
anchors = (
{
name = bottom;
pos = (523,0);
},
{
name = top;
pos = (523,1000);
}
);
layerId = m01;
shapes = (
{
closed = 1;
nodes = (
(95,95,l),
(95,0,l),
(190,0,l),
(190,95,l)
);
},
{
closed = 1;
nodes = (
(190,95,l),
(190,0,l),
(285,0,l),
(285,95,l)
);
},
{
closed = 1;
nodes = (
(285,95,l),
(285,0,l),
(380,0,l),
(380,95,l)
);
},
{
closed = 1;
nodes = (
(95,190,l),
(95,95,l),
(190,95,l),
(190,190,l)
);
},
{
closed = 1;
nodes = (
(190,190,l),
(190,95,l),
(285,95,l),
(285,190,l)
);
},
{
closed = 1;
nodes = (
(285,190,l),
(285,95,l),
(380,95,l),
(380,190,l)
);
},
{
closed = 1;
nodes = (
(95,285,l),
(95,190,l),
(190,190,l),
(190,285,l)
);
},
{
closed = 1;
nodes = (
(190,285,l),
(190,190,l),
(285,190,l),
(285,285,l)
);
},
{
closed = 1;
nodes = (
(285,285,l),
(285,190,l),
(380,190,l),
(380,285,l)
);
},
{
closed = 1;
nodes = (
(95,380,l),
(95,285,l),
(190,285,l),
(190,380,l)
);
},
{
closed = 1;
nodes = (
(190,380,l),
(190,285,l),
(285,285,l),
(285,380,l)
);
},
{
closed = 1;
nodes = (
(285,380,l),
(285,285,l),
(380,285,l),
(380,380,l)
);
},
{
closed = 1;
nodes = (
(95,475,l),
(95,380,l),
(190,380,l),
(190,475,l)
);
},
{
closed = 1;
nodes = (
(190,475,l),
(190,380,l),
(285,380,l),
(285,475,l)
);
},
{
closed = 1;
nodes = (
(285,475,l),
(285,380,l),
(380,380,l),
(380,475,l)
);
},
{
closed = 1;
nodes = (
(95,570,l),
(95,475,l),
(190,475,l),
(190,570,l)
);
},
{
closed = 1;
nodes = (
(190,570,l),
(190,475,l),
(285,475,l),
(285,570,l)
);
},
{
closed = 1;
nodes = (
(285,570,l),
(285,475,l),
(380,475,l),
(380,570,l)
);
},
{
closed = 1;
nodes = (
(95,665,l),
(95,570,l),
(190,570,l),
(190,665,l)
);
},
{
closed = 1;
nodes = (
(190,665,l),
(190,570,l),
(285,570,l),
(285,665,l)
);
},
{
closed = 1;
nodes = (
(285,665,l),
(285,570,l),
(380,570,l),
(380,665,l)
);
},
{
closed = 1;
nodes = (
(95,760,l),
(95,665,l),
(190,665,l),
(190,760,l)
);
},
{
closed = 1;
nodes = (
(190,760,l),
(190,665,l),
(285,665,l),
(285,760,l)
);
},
{
closed = 1;
nodes = (
(285,760,l),
(285,665,l),
(380,665,l),
(380,760,l)
);
},
{
closed = 1;
nodes = (
(95,855,l),
(95,760,l),
(190,760,l),
(190,855,l)
);
},
{
closed = 1;
nodes = (
(190,855,l),
(190,760,l),
(285,760,l),
(285,855,l)
);
},
{
closed = 1;
nodes = (
(285,855,l),
(285,760,l),
(380,760,l),
(380,855,l)
);
},
{
closed = 1;
nodes = (
(380,855,l),
(380,760,l),
(475,760,l),
(475,855,l)
);
},
{
closed = 1;
nodes = (
(95,950,l),
(95,855,l),
(190,855,l),
(190,950,l)
);
},
{
closed = 1;
nodes = (
(190,950,l),
(190,855,l),
(285,855,l),
(285,950,l)
);
},
{
closed = 1;
nodes = (
(285,950,l),
(285,855,l),
(380,855,l),
(380,950,l)
);
},
{
closed = 1;
nodes = (
(380,950,l),
(380,855,l),
(475,855,l),
(475,950,l)
);
},
{
closed = 1;
nodes = (
(475,950,l),
(475,855,l),
(570,855,l),
(570,950,l)
);
},
{
closed = 1;
nodes = (
(760,950,l),
(760,855,l),
(855,855,l),
(855,950,l)
);
},
{
closed = 1;
nodes = (
(855,950,l),
(855,855,l),
(950,855,l),
(950,950,l)
);
},
{
closed = 1;
nodes = (
(95,1045,l),
(95,950,l),
(190,950,l),
(190,1045,l)
);
},
{
closed = 1;
nodes = (
(190,1045,l),
(190,950,l),
(285,950,l),
(285,1045,l)
);
},
{
closed = 1;
nodes = (
(285,1045,l),
(285,950,l),
(380,950,l),
(380,1045,l)
);
},
{
closed = 1;
nodes = (
(475,1045,l),
(475,950,l),
(570,950,l),
(570,1045,l)
);
},
{
closed = 1;
nodes = (
(570,1045,l),
(570,950,l),
(760,950,l),
(760,1045,l)
);
},
{
closed = 1;
nodes = (
(760,1045,l),
(760,950,l),
(855,950,l),
(855,1045,l)
);
},
{
closed = 1;
nodes = (
(855,1045,l),
(855,950,l),
(950,950,l),
(950,1045,l)
);
},
{
closed = 1;
nodes = (
(95,1140,l),
(95,1045,l),
(190,1045,l),
(190,1140,l)
);
},
{
closed = 1;
nodes = (
(190,1140,l),
(190,1045,l),
(285,1045,l),
(285,1140,l)
);
},
{
closed = 1;
nodes = (
(285,1140,l),
(285,1045,l),
(380,1045,l),
(380,1140,l)
);
},
{
closed = 1;
nodes = (
(570,1140,l),
(570,1045,l),
(760,1045,l),
(760,1140,l)
);
},
{
closed = 1;
nodes = (
(760,1140,l),
(760,1045,l),
(855,1045,l),
(855,1140,l)
);
},
{
closed = 1;
nodes = (
(855,1140,l),
(855,1045,l),
(950,1045,l),
(950,1140,l)
);
},
{
closed = 1;
nodes = (
(665,950,l),
(665,855,l),
(760,855,l),
(760,950,l)
);
}
);
width = 1045;
}
);
note = r;
unicode = 114;
}
{
glyphname = s;
layers = (
{
anchors = (
{
name = bottom;
pos = (523,0);
},
{
name = top;
pos = (523,1000);
}
);
layerId = m01;
shapes = (
{
closed = 1;
nodes = (
(190,95,l),
(190,0,l),
(285,0,l),
(285,95,l)
);
},
{
closed = 1;
nodes = (
(285,95,l),
(285,0,l),
(380,0,l),
(380,95,l)
);
},
{
closed = 1;
nodes = (
(380,95,l),
(380,0,l),
(475,0,l),
(475,95,l)
);
},
{
closed = 1;
nodes = (
(475,95,l),
(475,0,l),
(570,0,l),
(570,95,l)
);
},
{
closed = 1;
nodes = (
(570,95,l),
(570,0,l),
(665,0,l),
(665,95,l)
);
},
{
closed = 1;
nodes = (
(665,95,l),
(665,0,l),
(760,0,l),
(760,95,l)
);
},
{
closed = 1;
nodes = (
(95,190,l),
(95,95,l),
(190,95,l),
(190,190,l)
);
},
{
closed = 1;
nodes = (
(190,190,l),
(190,95,l),
(285,95,l),
(285,190,l)
);
},
{
closed = 1;
nodes = (
(285,190,l),
(285,95,l),
(380,95,l),
(380,190,l)
);
},
{
closed = 1;
nodes = (
(380,190,l),
(380,95,l),
(475,95,l),
(475,190,l)
);
},
{
closed = 1;
nodes = (
(475,190,l),
(475,95,l),
(570,95,l),
(570,190,l)
);
},
{
closed = 1;
nodes = (
(570,190,l),
(570,95,l),
(665,95,l),
(665,190,l)
);
},
{
closed = 1;
nodes = (
(665,190,l),
(665,95,l),
(760,95,l),
(760,190,l)
);
},
{
closed = 1;
nodes = (
(760,190,l),
(760,95,l),
(855,95,l),
(855,190,l)
);
},
{
closed = 1;
nodes = (
(95,285,l),
(95,190,l),
(190,190,l),
(190,285,l)
);
},
{
closed = 1;
nodes = (
(190,285,l),
(190,190,l),
(285,190,l),
(285,285,l)
);
},
{
closed = 1;
nodes = (
(665,285,l),
(665,190,l),
(760,190,l),
(760,285,l)
);
},
{
closed = 1;
nodes = (
(760,285,l),
(760,190,l),
(855,190,l),
(855,285,l)
);
},
{
closed = 1;
nodes = (
(855,285,l),
(855,190,l),
(950,190,l),
(950,285,l)
);
},
{
closed = 1;
nodes = (
(665,380,l),
(665,285,l),
(760,285,l),
(760,380,l)
);
},
{
closed = 1;
nodes = (
(760,380,l),
(760,285,l),
(855,285,l),
(855,380,l)
);
},
{
closed = 1;
nodes = (
(855,380,l),
(855,285,l),
(950,285,l),
(950,380,l)
);
},
{
closed = 1;
nodes = (
(570,475,l),
(570,380,l),
(665,380,l),
(665,475,l)
);
},
{
closed = 1;
nodes = (
(665,475,l),
(665,380,l),
(760,380,l),
(760,475,l)
);
},
{
closed = 1;
nodes = (
(760,475,l),
(760,380,l),
(855,380,l),
(855,475,l)
);
},
{
closed = 1;
nodes = (
(855,475,l),
(855,380,l),
(950,380,l),
(950,475,l)
);
},
{
closed = 1;
nodes = (
(285,570,l),
(285,475,l),
(380,475,l),
(380,570,l)
);
},
{
closed = 1;
nodes = (
(380,570,l),
(380,475,l),
(475,475,l),
(475,570,l)
);
},
{
closed = 1;
nodes = (
(475,570,l),
(475,475,l),
(570,475,l),
(570,570,l)
);
},
{
closed = 1;
nodes = (
(570,570,l),
(570,475,l),
(665,475,l),
(665,570,l)
);
},
{
closed = 1;
nodes = (
(665,570,l),
(665,475,l),
(760,475,l),
(760,570,l)
);
},
{
closed = 1;
nodes = (
(760,570,l),
(760,475,l),
(855,475,l),
(855,570,l)
);
},
{
closed = 1;
nodes = (
(190,665,l),
(190,570,l),
(285,570,l),
(285,665,l)
);
},
{
closed = 1;
nodes = (
(285,665,l),
(285,570,l),
(380,570,l),
(380,665,l)
);
},
{
closed = 1;
nodes = (
(380,665,l),
(380,570,l),
(475,570,l),
(475,665,l)
);
},
{
closed = 1;
nodes = (
(475,665,l),
(475,570,l),
(570,570,l),
(570,665,l)
);
},
{
closed = 1;
nodes = (
(570,665,l),
(570,570,l),
(665,570,l),
(665,665,l)
);
},
{
closed = 1;
nodes = (
(95,760,l),
(95,665,l),
(190,665,l),
(190,760,l)
);
},
{
closed = 1;
nodes = (
(190,760,l),
(190,665,l),
(285,665,l),
(285,760,l)
);
},
{
closed = 1;
nodes = (
(285,760,l),
(285,665,l),
(380,665,l),
(380,760,l)
);
},
{
closed = 1;
nodes = (
(95,855,l),
(95,760,l),
(190,760,l),
(190,855,l)
);
},
{
closed = 1;
nodes = (
(190,855,l),
(190,760,l),
(285,760,l),
(285,855,l)
);
},
{
closed = 1;
nodes = (
(95,950,l),
(95,855,l),
(190,855,l),
(190,950,l)
);
},
{
closed = 1;
nodes = (
(190,950,l),
(190,855,l),
(285,855,l),
(285,950,l)
);
},
{
closed = 1;
nodes = (
(285,950,l),
(285,855,l),
(380,855,l),
(380,950,l)
);
},
{
closed = 1;
nodes = (
(190,1045,l),
(190,950,l),
(285,950,l),
(285,1045,l)
);
},
{
closed = 1;
nodes = (
(285,1045,l),
(285,950,l),
(380,950,l),
(380,1045,l)
);
},
{
closed = 1;
nodes = (
(380,1045,l),
(380,950,l),
(475,950,l),
(475,1045,l)
);
},
{
closed = 1;
nodes = (
(475,1045,l),
(475,950,l),
(570,950,l),
(570,1045,l)
);
},
{
closed = 1;
nodes = (
(570,1045,l),
(570,950,l),
(665,950,l),
(665,1045,l)
);
},
{
closed = 1;
nodes = (
(665,1045,l),
(665,950,l),
(760,950,l),
(760,1045,l)
);
},
{
closed = 1;
nodes = (
(760,1045,l),
(760,950,l),
(855,950,l),
(855,1045,l)
);
},
{
closed = 1;
nodes = (
(380,1140,l),
(380,1045,l),
(475,1045,l),
(475,1140,l)
);
},
{
closed = 1;
nodes = (
(475,1140,l),
(475,1045,l),
(570,1045,l),
(570,1140,l)
);
},
{
closed = 1;
nodes = (
(570,1140,l),
(570,1045,l),
(665,1045,l),
(665,1140,l)
);
},
{
closed = 1;
nodes = (
(665,1140,l),
(665,1045,l),
(760,1045,l),
(760,1140,l)
);
},
{
closed = 1;
nodes = (
(760,950,l),
(760,855,l),
(855,855,l),
(855,950,l)
);
},
{
closed = 1;
nodes = (
(665,950,l),
(665,855,l),
(760,855,l),
(760,950,l)
);
},
{
closed = 1;
nodes = (
(95,380,l),
(95,285,l),
(190,285,l),
(190,380,l)
);
}
);
width = 1045;
}
);
unicode = 115;
}
{
glyphname = u;
layers = (
{
anchors = (
{
name = bottom;
pos = (618,0);
},
{
name = ogonek;
pos = (1112,10);
},
{
name = top;
pos = (666,1000);
},
{
name = topright;
pos = (1216,1000);
}
);
layerId = m01;
shapes = (
{
closed = 1;
nodes = (
(1141,1046,l),
(1141,1141,l),
(1046,1141,l),
(1046,1046,l)
);
},
{
closed = 1;
nodes = (
(1046,1046,l),
(1046,1141,l),
(951,1141,l),
(951,1046,l)
);
},
{
closed = 1;
nodes = (
(951,1046,l),
(951,1141,l),
(856,1141,l),
(856,1046,l)
);
},
{
closed = 1;
nodes = (
(381,1046,l),
(381,1141,l),
(286,1141,l),
(286,1046,l)
);
},
{
closed = 1;
nodes = (
(286,1046,l),
(286,1141,l),
(191,1141,l),
(191,1046,l)
);
},
{
closed = 1;
nodes = (
(191,1046,l),
(191,1141,l),
(96,1141,l),
(96,1046,l)
);
},
{
closed = 1;
nodes = (
(1141,951,l),
(1141,1046,l),
(1046,1046,l),
(1046,951,l)
);
},
{
closed = 1;
nodes = (
(1046,951,l),
(1046,1046,l),
(951,1046,l),
(951,951,l)
);
},
{
closed = 1;
nodes = (
(951,951,l),
(951,1046,l),
(856,1046,l),
(856,951,l)
);
},
{
closed = 1;
nodes = (
(381,951,l),
(381,1046,l),
(286,1046,l),
(286,951,l)
);
},
{
closed = 1;
nodes = (
(286,951,l),
(286,1046,l),
(191,1046,l),
(191,951,l)
);
},
{
closed = 1;
nodes = (
(191,951,l),
(191,1046,l),
(96,1046,l),
(96,951,l)
);
},
{
closed = 1;
nodes = (
(1141,856,l),
(1141,951,l),
(1046,951,l),
(1046,856,l)
);
},
{
closed = 1;
nodes = (
(1046,856,l),
(1046,951,l),
(951,951,l),
(951,856,l)
);
},
{
closed = 1;
nodes = (
(951,856,l),
(951,951,l),
(856,951,l),
(856,856,l)
);
},
{
closed = 1;
nodes = (
(381,856,l),
(381,951,l),
(286,951,l),
(286,856,l)
);
},
{
closed = 1;
nodes = (
(286,856,l),
(286,951,l),
(191,951,l),
(191,856,l)
);
},
{
closed = 1;
nodes = (
(191,856,l),
(191,951,l),
(96,951,l),
(96,856,l)
);
},
{
closed = 1;
nodes = (
(1141,761,l),
(1141,856,l),
(1046,856,l),
(1046,761,l)
);
},
{
closed = 1;
nodes = (
(1046,761,l),
(1046,856,l),
(951,856,l),
(951,761,l)
);
},
{
closed = 1;
nodes = (
(951,761,l),
(951,856,l),
(856,856,l),
(856,761,l)
);
},
{
closed = 1;
nodes = (
(381,761,l),
(381,856,l),
(286,856,l),
(286,761,l)
);
},
{
closed = 1;
nodes = (
(286,761,l),
(286,856,l),
(191,856,l),
(191,761,l)
);
},
{
closed = 1;
nodes = (
(191,761,l),
(191,856,l),
(96,856,l),
(96,761,l)
);
},
{
closed = 1;
nodes = (
(1141,666,l),
(1141,761,l),
(1046,761,l),
(1046,666,l)
);
},
{
closed = 1;
nodes = (
(1046,666,l),
(1046,761,l),
(951,761,l),
(951,666,l)
);
},
{
closed = 1;
nodes = (
(951,666,l),
(951,761,l),
(856,761,l),
(856,666,l)
);
},
{
closed = 1;
nodes = (
(381,666,l),
(381,761,l),
(286,761,l),
(286,666,l)
);
},
{
closed = 1;
nodes = (
(286,666,l),
(286,761,l),
(191,761,l),
(191,666,l)
);
},
{
closed = 1;
nodes = (
(191,666,l),
(191,761,l),
(96,761,l),
(96,666,l)
);
},
{
closed = 1;
nodes = (
(1141,571,l),
(1141,666,l),
(1046,666,l),
(1046,571,l)
);
},
{
closed = 1;
nodes = (
(1046,571,l),
(1046,666,l),
(951,666,l),
(951,571,l)
);
},
{
closed = 1;
nodes = (
(951,571,l),
(951,666,l),
(856,666,l),
(856,571,l)
);
},
{
closed = 1;
nodes = (
(381,571,l),
(381,666,l),
(286,666,l),
(286,571,l)
);
},
{
closed = 1;
nodes = (
(286,571,l),
(286,666,l),
(191,666,l),
(191,571,l)
);
},
{
closed = 1;
nodes = (
(191,571,l),
(191,666,l),
(96,666,l),
(96,571,l)
);
},
{
closed = 1;
nodes = (
(1141,476,l),
(1141,571,l),
(1046,571,l),
(1046,476,l)
);
},
{
closed = 1;
nodes = (
(1046,476,l),
(1046,571,l),
(951,571,l),
(951,476,l)
);
},
{
closed = 1;
nodes = (
(951,476,l),
(951,571,l),
(856,571,l),
(856,476,l)
);
},
{
closed = 1;
nodes = (
(381,476,l),
(381,571,l),
(286,571,l),
(286,476,l)
);
},
{
closed = 1;
nodes = (
(286,476,l),
(286,571,l),
(191,571,l),
(191,476,l)
);
},
{
closed = 1;
nodes = (
(191,476,l),
(191,571,l),
(96,571,l),
(96,476,l)
);
},
{
closed = 1;
nodes = (
(1141,381,l),
(1141,476,l),
(1046,476,l),
(1046,381,l)
);
},
{
closed = 1;
nodes = (
(1046,381,l),
(1046,476,l),
(951,476,l),
(951,381,l)
);
},
{
closed = 1;
nodes = (
(951,381,l),
(951,476,l),
(856,476,l),
(856,381,l)
);
},
{
closed = 1;
nodes = (
(856,381,l),
(856,476,l),
(761,476,l),
(761,381,l)
);
},
{
closed = 1;
nodes = (
(381,381,l),
(381,476,l),
(286,476,l),
(286,381,l)
);
},
{
closed = 1;
nodes = (
(286,381,l),
(286,476,l),
(191,476,l),
(191,381,l)
);
},
{
closed = 1;
nodes = (
(191,381,l),
(191,476,l),
(96,476,l),
(96,381,l)
);
},
{
closed = 1;
nodes = (
(1141,286,l),
(1141,381,l),
(1046,381,l),
(1046,286,l)
);
},
{
closed = 1;
nodes = (
(1046,286,l),
(1046,381,l),
(951,381,l),
(951,286,l)
);
},
{
closed = 1;
nodes = (
(951,286,l),
(951,381,l),
(856,381,l),
(856,286,l)
);
},
{
closed = 1;
nodes = (
(856,286,l),
(856,381,l),
(761,381,l),
(761,286,l)
);
},
{
closed = 1;
nodes = (
(476,286,l),
(476,381,l),
(381,381,l),
(381,286,l)
);
},
{
closed = 1;
nodes = (
(381,286,l),
(381,381,l),
(286,381,l),
(286,286,l)
);
},
{
closed = 1;
nodes = (
(286,286,l),
(286,381,l),
(191,381,l),
(191,286,l)
);
},
{
closed = 1;
nodes = (
(191,286,l),
(191,381,l),
(96,381,l),
(96,286,l)
);
},
{
closed = 1;
nodes = (
(1141,191,l),
(1141,286,l),
(1046,286,l),
(1046,191,l)
);
},
{
closed = 1;
nodes = (
(1046,191,l),
(1046,286,l),
(951,286,l),
(951,191,l)
);
},
{
closed = 1;
nodes = (
(951,191,l),
(951,286,l),
(856,286,l),
(856,191,l)
);
},
{
closed = 1;
nodes = (
(856,191,l),
(856,286,l),
(761,286,l),
(761,191,l)
);
},
{
closed = 1;
nodes = (
(761,191,l),
(761,286,l),
(666,286,l),
(666,191,l)
);
},
{
closed = 1;
nodes = (
(666,191,l),
(666,286,l),
(571,286,l),
(571,191,l)
);
},
{
closed = 1;
nodes = (
(571,191,l),
(571,286,l),
(476,286,l),
(476,191,l)
);
},
{
closed = 1;
nodes = (
(476,191,l),
(476,286,l),
(381,286,l),
(381,191,l)
);
},
{
closed = 1;
nodes = (
(381,191,l),
(381,286,l),
(286,286,l),
(286,191,l)
);
},
{
closed = 1;
nodes = (
(286,191,l),
(286,286,l),
(191,286,l),
(191,191,l)
);
},
{
closed = 1;
nodes = (
(1141,96,l),
(1141,191,l),
(1046,191,l),
(1046,96,l)
);
},
{
closed = 1;
nodes = (
(1046,96,l),
(1046,191,l),
(951,191,l),
(951,96,l)
);
},
{
closed = 1;
nodes = (
(951,96,l),
(951,191,l),
(856,191,l),
(856,96,l)
);
},
{
closed = 1;
nodes = (
(761,96,l),
(761,191,l),
(666,191,l),
(666,96,l)
);
},
{
closed = 1;
nodes = (
(666,96,l),
(666,191,l),
(571,191,l),
(571,96,l)
);
},
{
closed = 1;
nodes = (
(571,96,l),
(571,191,l),
(476,191,l),
(476,96,l)
);
},
{
closed = 1;
nodes = (
(476,96,l),
(476,191,l),
(381,191,l),
(381,96,l)
);
},
{
closed = 1;
nodes = (
(1141,1,l),
(1141,96,l),
(1046,96,l),
(1046,1,l)
);
},
{
closed = 1;
nodes = (
(1046,1,l),
(1046,96,l),
(951,96,l),
(951,1,l)
);
},
{
closed = 1;
nodes = (
(951,1,l),
(951,96,l),
(856,96,l),
(856,1,l)
);
},
{
closed = 1;
nodes = (
(666,1,l),
(666,96,l),
(571,96,l),
(571,1,l)
);
},
{
closed = 1;
nodes = (
(571,1,l),
(571,96,l),
(476,96,l),
(476,1,l)
);
},
{
closed = 1;
nodes = (
(381,96,l),
(381,191,l),
(286,191,l),
(286,96,l)
);
},
{
closed = 1;
nodes = (
(476,1,l),
(476,96,l),
(381,96,l),
(381,1,l)
);
}
);
width = 1236;
}
);
unicode = 117;
}
